<svg width="18" height="18" fill="none" xmlns="http://www.w3.org/2000/svg"><rect width="18" height="18" rx="2" fill="#fff"/><rect width="18" height="18" rx="2" fill="#C19D58"/><path d="M9 5.313h1.843c.434 0 .651.109.814.163.216.108.38.163.542.325.162.163.27.326.325.542.054.163.109.38.163.814v3.686c0 .434-.109.651-.163.814-.108.216-.163.38-.325.542a1.125 1.125 0 01-.542.325c-.163.054-.38.109-.814.163H7.157c-.434 0-.651-.109-.814-.163-.216-.108-.38-.163-.542-.325a1.125 1.125 0 01-.325-.542c-.054-.163-.109-.38-.163-.814V7.157c0-.434.109-.651.163-.814.108-.216.163-.38.325-.542a1.14 1.14 0 01.542-.325c.163-.054.38-.109.814-.163H9zM9 4.5H7.157a2.72 2.72 0 00-1.085.217 2.367 2.367 0 00-.813.542c-.271.271-.38.488-.542.813-.109.271-.163.597-.217 1.085v3.686c0 .488.108.814.217 1.085.108.27.271.542.542.813.271.271.488.38.813.542.271.109.597.163 1.085.217h3.686a2.72 2.72 0 001.085-.217 2.37 2.37 0 00.813-.542c.271-.271.38-.488.542-.813.109-.271.163-.597.217-1.085V7.157a2.72 2.72 0 00-.217-1.085 2.368 2.368 0 00-.542-.813c-.271-.271-.488-.38-.813-.542-.271-.109-.597-.163-1.085-.217H9z" fill="#fff"/><path d="M9 6.669A2.314 2.314 0 006.669 9 2.314 2.314 0 009 11.331 2.314 2.314 0 0011.331 9 2.314 2.314 0 009 6.669zm0 3.85A1.517 1.517 0 017.482 9c0-.813.65-1.518 1.518-1.518.813 0 1.518.65 1.518 1.518 0 .813-.705 1.518-1.518 1.518zm2.386-3.362a.542.542 0 100-1.085.542.542 0 000 1.085z" fill="#fff"/></svg>