<svg width="142" height="41" fill="none" xmlns="http://www.w3.org/2000/svg"><path d="M41.803 23.169c-.255-.127-.447-.064-.639.19-.255.51-.703 1.208-1.214 1.97a15.262 15.262 0 01-1.79 2.352 13.766 13.766 0 01-1.98 1.907c-.703.508-1.342.699-1.917.572-.639-.128-1.086-.572-1.214-1.335-.128-.508-.128-1.08-.064-1.716.064-.635.256-1.27.511-1.97h.639c.32 0 .64-.063 1.087-.19a6.084 6.084 0 001.341-.573 4.258 4.258 0 001.278-1.143c.384-.572.703-1.144.831-1.78.128-.635.064-1.144-.32-1.525-.191-.19-.574-.254-1.022-.254-.447 0-1.086.317-1.917 1.017-.575.444-1.086 1.016-1.533 1.715-.256.382-.448.7-.64 1.08a68.891 68.891 0 01-2.364 2.733c-.767.763-1.342 1.271-1.725 1.462a.645.645 0 00-.192.064c0-.064-.064-.127-.128-.191-.064-.063-.064-.19-.127-.381 0-.127-.064-.318-.064-.572-.064-.382-.064-.826-.064-1.271 0-.445.064-.89.128-1.335.063-1.017.063-1.78.063-2.288 0-.572-.255-.826-.639-.89h-.063c-.576 0-1.215.255-1.917.827a15.38 15.38 0 00-2.237 2.288c-.83.953-1.661 2.097-2.492 3.368-.895 1.27-1.725 2.605-2.62 4.003a65.18 65.18 0 011.214-4.067c.511-1.525 1.086-3.05 1.725-4.703.64-1.652 1.278-3.304 1.981-4.957.703-1.652 1.406-3.304 2.11-4.893.574-1.334 1.15-2.605 1.66-3.75 2.045-.063 3.962-.063 5.943-.063.128 0 .256 0 .32-.127a.484.484 0 00.128-.318c0-.254-.128-.445-.448-.508-1.789-.064-3.578 0-5.495 0 .575-1.208 1.086-2.224 1.533-3.114.064-.064.192-.064.192-.127.064-.064.256-.254.447-.509.192-.254.384-.445.575-.762a5.85 5.85 0 00.512-.826c.127-.255.191-.509.191-.763-.064-.254-.127-.445-.32-.572-.19-.127-.319-.127-.51-.064-.064 0-.128.064-.192.128a1.994 1.994 0 00-.383.508c-.192.254-.448.699-.703 1.27-.32.573-.703 1.336-1.214 2.352a46.477 46.477 0 00-1.15 2.479c-1.854.063-3.77.19-5.624.318.256-.7.383-1.017.447-1.08.064-.128.064-.255 0-.319a.498.498 0 00-.255-.254c-.256-.127-.511-.063-.575.254-.064.064-.128.191-.192.445-.064.255-.256.572-.383 1.017-2.11.127-4.154.318-6.071.509-1.917.19-3.706.444-5.304.635-1.597.19-2.94.381-4.09.572-1.15.19-1.98.318-2.428.445-.894.254-1.533.445-1.917.699-.383.254-.575.508-.51.763 0 .127.063.254.127.38.064.128.256.191.511.319.256.063.511.19.959.254.383.063.894.127 1.533.127 4.026.127 6.838 1.462 8.435 4.004.447.699.767 1.525 1.023 2.415.255.89.383 1.779.447 2.732.064.953.064 1.907 0 2.86a22.89 22.89 0 01-.383 2.923 112.61 112.61 0 01-1.342 3.623c-.384 1.144-.767 2.224-1.087 3.177-.32.953-.575 1.78-.767 2.479-.191.699-.32 1.27-.32 1.652 0 .254.129.445.384.508h.128c.192 0 .32-.063.447-.254.064-.063.192-.445.512-1.08.255-.636.575-1.462.958-2.479.384-1.016.767-2.16 1.15-3.431a37.92 37.92 0 00.959-4.068 294.988 294.988 0 012.045-5.338 151.965 151.965 0 012.108-5.275c.703-1.715 1.279-3.24 1.854-4.702.575-1.462 1.086-2.606 1.47-3.56 1.852-.126 3.705-.19 5.559-.317-.128.254-.256.572-.384.826-.703 1.589-1.47 3.178-2.172 4.894-.256.699-.64 1.525-1.023 2.478-.383.953-.83 2.034-1.278 3.178-.447 1.144-.894 2.351-1.342 3.559a126.492 126.492 0 00-1.278 3.558c-.383 1.144-.703 2.288-1.022 3.369-.32 1.08-.448 1.97-.575 2.796v.063c0 .255.127.382.383.445 0 0 .064.064.128.064a.49.49 0 00.32-.127c.063-.127.191-.255.319-.445.064-.127.192-.254.32-.445l.383-.572c.511-.826 1.15-1.843 1.917-3.114.767-1.207 1.661-2.415 2.556-3.559a33.14 33.14 0 011.534-1.906c.447-.509.83-.89 1.15-1.208.32-.318.639-.508.83-.635.256-.127.448-.191.576-.255.063.191.063.509.063.954 0 .445-.063.826-.063 1.207C28 25.266 28 26.283 28 27.045c.064.763.255 1.335.703 1.59.127.063.255.127.447.19.192 0 .383 0 .639-.127.32-.19.703-.445 1.15-.826.383-.381.83-.763 1.278-1.208.128-.19.32-.317.447-.508l-.191.953c-.128.763-.128 1.462.064 2.097.255 1.144.958 1.78 1.98 2.034.065 0 .256.064.512.064.575 0 1.086-.191 1.661-.509s1.15-.763 1.662-1.207c.51-.509 1.022-1.017 1.47-1.653.447-.572.894-1.144 1.213-1.715.384-.572.64-1.017.895-1.462.256-.381.384-.7.447-.826-.255-.382-.32-.636-.575-.763zm-23.196-10.93c-.447 1.143-.958 2.35-1.47 3.685a185.64 185.64 0 01-1.66 4.131c-.576 1.398-1.151 2.923-1.726 4.385.064-1.398-.064-2.796-.256-4.13a12.133 12.133 0 00-1.342-3.687c-1.725-2.796-4.792-4.321-9.138-4.448-.575 0-.958-.064-1.278-.064-.32-.063-.51-.063-.702-.127.127-.063.319-.127.51-.19.256-.064.576-.191.96-.318.447-.127 1.277-.255 2.364-.445a92.47 92.47 0 013.898-.572c1.533-.19 3.258-.381 5.112-.572a145.31 145.31 0 015.879-.509c-.32.763-.703 1.78-1.15 2.86zm17.317 9.341c.448-.317.767-.572 1.023-.699.255-.127.447-.19.575-.19h.192c.127.127.127.38.064.762-.064.381-.32.826-.64 1.335-.255.317-.575.572-.83.762-.32.191-.64.382-.895.445-.32.127-.575.19-.83.19-.256.064-.448.064-.576.064l.192-.38.064-.064.064-.064c.064-.127.128-.19.128-.318.191-.254.32-.572.51-.826.193-.318.576-.699.96-1.017z" fill="#C19D58"/><path d="M57.651 12.111l.128 2.733a5.07 5.07 0 01-.958 1.08c-.384.318-.895.572-1.47.763a6.57 6.57 0 01-2.045.318c-1.278 0-2.428-.255-3.387-.7-.958-.444-1.725-1.08-2.236-1.97-.511-.826-.767-1.906-.767-3.114 0-1.207.256-2.224.767-3.05a5.196 5.196 0 012.236-1.97c.959-.445 2.11-.699 3.451-.699.83 0 1.598.064 2.3.254.703.19 1.215.381 1.662.636V9.06h-.128c-.255-1.017-.767-1.78-1.406-2.224a3.888 3.888 0 00-2.236-.7c-.831 0-1.598.191-2.173.636-.575.381-1.086 1.017-1.406 1.716-.32.762-.51 1.652-.51 2.669 0 1.017.127 1.97.446 2.67.32.762.767 1.334 1.342 1.779.575.444 1.278.635 2.045.635.83 0 1.47-.127 2.045-.381.575-.255 1.022-.7 1.342-1.335.32-.635.575-1.398.767-2.478h.191v.063zm2.684-6.481v.953h-.064c0-.254-.064-.445-.256-.572a1.034 1.034 0 00-.575-.19h-.255v-.128h1.15v-.064zm2.3 0v6.926c0 .763.128 1.399.384 1.97.255.572.575.954 1.086 1.272.447.317 1.022.444 1.661.444.64 0 1.215-.127 1.662-.444.447-.255.83-.7 1.086-1.208.256-.508.383-1.144.383-1.843V5.63h1.15v7.055c0 .89-.191 1.588-.574 2.224-.384.635-.895 1.144-1.598 1.462-.703.317-1.534.508-2.492.508-1.15 0-2.045-.19-2.812-.508a3.566 3.566 0 01-1.725-1.462c-.383-.636-.575-1.398-.575-2.224V5.629h2.364zm1.087 0v.127h-.256c-.256 0-.447.063-.575.19-.192.127-.256.318-.256.572v-.953h1.087v.063zm5.175 0v.953h-.063c0-.254-.064-.445-.256-.572a1.034 1.034 0 00-.575-.19h-.256v-.128h1.15v-.064zm2.173 0v.127h-.255c-.256 0-.448.063-.576.19-.191.127-.255.318-.255.572v-.953h1.086v.063zm2.236 1.207a1.513 1.513 0 00-.383-.7c-.192-.19-.447-.317-.703-.317h-.192v-.127h1.278v1.144zm0 8.706v1.144h-1.278v-.127h.192c.256 0 .511-.127.703-.318.192-.19.32-.445.383-.699zm2.3-9.914v11.058h-2.364V5.63h2.365zm0 1.208V5.693h1.279v.127h-.192c-.255 0-.511.127-.703.318-.255.19-.383.381-.383.699zm4.218 9.151l.384.7h-4.601v-.7h4.217zm1.15-2.542l-.703 3.241h-3.13l.575-.699c.51 0 1.022-.127 1.405-.318a2.73 2.73 0 001.023-.89 6.6 6.6 0 00.703-1.334h.127zm-1.021-8.071c.127.064.255.064.51.127.256.064.448.064.704.127.255 0 .51.064.703.064l-1.917.19v-.508zm10.096.254v.636h-10.16v-.636h10.16zm-8.371.636c-.511.063-.895.19-1.15.508-.32.318-.448.7-.448 1.144v.19h-.127V6.266h1.725zm2.172 9.278v1.144h-1.277v-.127h.191c.256 0 .511-.127.703-.318.256-.19.32-.445.383-.699zm2.365-9.85v10.994H83.85V5.693h2.365zm-.064 9.85c.064.254.192.509.383.7.192.19.448.317.703.317h.192v.127h-1.278v-1.144zm3.898-10.168v.445l-1.917-.19c.255 0 .447 0 .767-.064.255 0 .51-.064.703-.127.191 0 .383-.064.447-.064zm0 .89v1.843h-.128v-.191c0-.508-.128-.89-.447-1.144-.32-.318-.703-.445-1.15-.445v-.063h1.725zm1.981-.635v.953h-.064c0-.254-.064-.445-.255-.572a1.034 1.034 0 00-.576-.19h-.255v-.128h1.15v-.064zm2.3 0v6.926c0 .763.128 1.399.384 1.97.255.572.575.954 1.086 1.272.448.317 1.023.444 1.662.444s1.214-.127 1.661-.444c.447-.255.83-.7 1.086-1.208.256-.508.384-1.144.384-1.843V5.63h1.15v7.055c0 .89-.192 1.588-.575 2.224-.383.635-.895 1.144-1.598 1.462-.702.317-1.533.508-2.492.508-1.15 0-2.045-.19-2.811-.508a3.566 3.566 0 01-1.726-1.462c-.383-.636-.575-1.398-.575-2.224V5.629h2.365zm1.087 0v.127h-.256c-.255 0-.447.063-.575.19-.192.127-.255.318-.255.572v-.953h1.086v.063zm5.176 0v.953h-.064c0-.254-.064-.445-.256-.572a1.032 1.032 0 00-.575-.19h-.255v-.128h1.15v-.064zm2.236 0v.127h-.255c-.256 0-.448.063-.575.19-.192.127-.256.318-.256.572v-.953h1.086v.063zm2.237 1.207a1.512 1.512 0 00-.384-.7c-.192-.19-.447-.317-.703-.317h-.255v-.127h1.278v1.144h.064zm0 8.706v1.144h-1.278v-.127h.255c.256 0 .511-.127.703-.318.128-.19.256-.445.32-.699zm2.3-9.914v11.058h-2.364V5.63h2.364zm1.853 0c.447 0 .959.064 1.406.128.447.127.831.254 1.214.508s.639.508.831.89c.191.38.319.826.319 1.398 0 .445-.064.89-.255 1.334a2.95 2.95 0 01-.831 1.144c-.383.318-.895.509-1.47.572.32.127.639.318.959.572.255.254.511.572.703.826 0 0 .064.127.191.255.128.19.256.38.384.635.191.254.319.508.511.763.192.254.319.444.511.635.256.254.447.508.639.7.192.19.384.317.575.38a2.3 2.3 0 00.703.128v.127h-1.533a10.73 10.73 0 01-1.534-.127c-.447-.128-.895-.255-1.214-.509-.384-.254-.639-.572-.959-.953-.064-.127-.191-.318-.255-.508-.128-.191-.192-.382-.32-.636s-.191-.445-.319-.636a2.25 2.25 0 01-.256-.572c-.064-.19-.128-.317-.128-.38a2.284 2.284 0 00-.511-.763c-.192-.191-.383-.255-.575-.318v-.064h.511c.256 0 .575-.063.831-.19s.511-.318.703-.572a2.41 2.41 0 00.447-1.08c0-.064.064-.191.064-.318v-.445c0-.763-.192-1.335-.575-1.653-.32-.38-.767-.508-1.278-.572h-1.278s0-.063-.064-.19c0-.127-.064-.254-.128-.509h1.981zm-1.917 9.914c.064.255.128.509.32.7.191.19.447.317.702.317h.192v.127h-1.278v-1.144h.064z" fill="#fff"/><path d="M116.95 15.543c-.063.19-.127.382-.063.509.063.127.127.254.255.317.128.064.256.128.384.128h.127v.127h-3.386v-.127h.127c.256 0 .512-.064.767-.255.256-.127.448-.381.639-.762h1.15v.063zm3.387-10.231l.064 1.906-3.962 9.406h-1.15l4.09-9.215c0-.064.064-.19.191-.382.064-.19.192-.38.256-.572.064-.19.192-.444.256-.635.063-.19.127-.381.127-.508h.128zm1.662 7.626v.635h-4.665v-.635h4.665zm-1.662-7.626l5.176 11.248h-2.875l-3.323-8.198 1.022-3.05zm1.917 10.231h2.748c.192.382.383.636.639.763s.511.254.767.254h.128v.127h-5.049v-.127h.128a.78.78 0 00.575-.254c.128-.19.192-.445.064-.763zm5.752-8.706a1.512 1.512 0 00-.384-.7c-.192-.19-.447-.317-.703-.317h-.191v-.127h1.278v1.144zm0 8.706v1.144h-1.278v-.127h.191c.256 0 .511-.127.703-.318.256-.19.32-.445.384-.699zm2.364-9.914v11.058h-2.364V5.63h2.364zm-.064 1.208V5.693h1.278v.127h-.192c-.255 0-.511.127-.703.318-.191.19-.319.381-.383.699zm4.217 9.151l.384.7h-4.601v-.7h4.217zm1.151-2.542l-.703 3.241h-3.131l.575-.699a3.27 3.27 0 001.406-.318c.383-.19.766-.508 1.022-.89.256-.38.511-.825.703-1.334h.128zm-89.27 6.609c.128.064.256.064.511.127.192.064.448.064.703.127.256 0 .512.064.703.064l-1.917.19v-.508zm10.16.254v.636h-10.16v-.636h10.16zm-8.37.636c-.512.063-.895.19-1.15.508-.32.318-.448.7-.448 1.144v.19h-.128v-1.842h1.725zm2.172 9.278v1.144h-1.278v-.127h.192c.255 0 .511-.127.703-.318.192-.19.32-.38.383-.699zm2.3-9.85v10.994h-2.364V20.373h2.365zm0 9.85c.065.255.192.509.384.7.192.19.447.317.703.317h.192v.127h-1.278v-1.144zm3.899-10.168v.445l-1.917-.19c.255 0 .447 0 .766-.064.256 0 .511-.064.703-.127.192 0 .384 0 .448-.064zm0 .89v1.843h-.128v-.19c0-.51-.128-.89-.448-1.145-.32-.317-.703-.445-1.15-.445v-.063h1.726zm2.172.572a1.512 1.512 0 00-.383-.699c-.192-.19-.447-.318-.703-.318h-.256v-.127h1.278v1.144h.064zm0 8.707v1.143H57.46v-.127h.256c.256 0 .511-.127.703-.317.192-.191.255-.382.32-.7zm2.365-9.85V31.43h-2.365V20.373h2.365zm1.853 0c.447 0 .958.063 1.406.126.447.127.83.254 1.214.509.383.254.639.508.83.89.192.38.32.825.32 1.398 0 .444-.064.89-.256 1.334a2.938 2.938 0 01-.83 1.144c-.384.318-.895.508-1.47.572.32.127.639.318.959.572.255.254.51.572.702.826 0 0 .064.127.192.254.128.19.256.382.383.636.192.254.32.508.512.762.191.255.32.445.51.636.256.254.448.508.64.699.192.19.383.318.575.381.192.064.447.127.703.127v.127h-1.534c-.575 0-1.086-.063-1.533-.127-.448-.127-.895-.254-1.214-.508-.384-.254-.64-.572-.959-.953-.064-.128-.192-.318-.256-.509-.127-.19-.191-.381-.319-.635-.128-.19-.192-.445-.32-.636-.127-.19-.191-.381-.255-.572-.064-.19-.128-.317-.128-.381a2.285 2.285 0 00-.511-.763c-.192-.19-.384-.254-.575-.317v-.128h.511c.256 0 .575-.063.83-.19.256-.127.512-.318.704-.572.191-.254.383-.636.447-1.08 0-.064.064-.191.064-.318v-.445c0-.763-.192-1.335-.575-1.652-.32-.382-.767-.509-1.278-.572h-1.279s0-.064-.063-.191c0-.127-.064-.254-.128-.508h1.98v.063zm-1.917 9.85c.064.254.128.508.32.699.191.19.447.317.702.317h.192v.127h-1.278v-1.143h.064z" fill="#fff"/><path d="M70.622 30.223c-.064.191-.127.382-.064.509.064.127.128.254.256.317.128.064.256.128.383.128h.128v.127H67.94v-.127h.127c.256 0 .511-.064.767-.255.256-.127.447-.38.64-.762h1.15v.063zm3.387-10.168l.064 1.907-3.962 9.405h-1.15l4.09-9.215c0-.063.063-.19.191-.38.064-.192.192-.382.256-.573.064-.19.191-.445.255-.635.064-.191.128-.382.128-.509h.128zm1.725 7.563v.635H71.07v-.635h4.664zm-1.725-7.563l5.176 11.249h-2.876l-3.322-8.198 1.022-3.05zm1.917 10.168h2.748c.191.382.383.636.639.763.255.127.511.254.767.254h.127v.127h-4.984v-.127h.128c.192 0 .383-.063.575-.254.128-.19.128-.445 0-.763zm5.816-8.706c-.064-.254-.128-.508-.32-.7-.191-.19-.447-.317-.703-.317h-.191v-.127h1.278v1.144h-.064zm0 8.706v1.144h-1.278v-.127h.192c.255 0 .51-.127.703-.317a1.26 1.26 0 00.383-.7zm2.3-9.85v11.058h-2.364V20.373h2.364zm2.173 0c1.278 0 2.3.254 3.259.7a5.09 5.09 0 012.109 1.906c.51.826.766 1.78.766 2.923 0 1.144-.255 2.097-.766 2.923a5.09 5.09 0 01-2.11 1.907c-.894.445-1.98.699-3.258.699h-3.77v-.636h3.578c.767 0 1.406-.19 1.981-.572.575-.38.959-.953 1.278-1.652.32-.699.448-1.589.448-2.606 0-1.016-.128-1.842-.448-2.605-.32-.7-.703-1.271-1.278-1.652-.575-.382-1.214-.572-1.98-.572h-3.771V20.5h3.962v-.127zm8.307 1.144a1.513 1.513 0 00-.383-.7c-.192-.19-.448-.317-.703-.317h-.192v-.127h1.278v1.144zm0 8.706v1.144h-1.278v-.127h.192c.255 0 .511-.127.703-.317.255-.191.32-.382.383-.7zm2.364-9.85v11.058h-2.364V20.373h2.364zm-.063 1.144v-1.144H98.1v.127h-.192c-.256 0-.511.127-.703.318-.192.19-.32.445-.383.699zm0 8.706c.064.255.191.509.383.7.192.19.447.317.703.317h.192v.127h-1.278v-1.144zm2.107-10.168c.128.064.256.064.512.127.192.064.447.064.703.127.255 0 .511.064.703.064l-1.917.19v-.508zm10.161.254v.636h-10.16v-.636h10.16zm-8.371.636c-.511.063-.895.19-1.15.508-.32.318-.448.7-.448 1.144v.19h-.127v-1.842h1.725zm2.173 9.278v1.144h-1.279v-.127h.192c.256 0 .511-.127.703-.318.192-.19.32-.38.384-.699zm2.3-9.85v10.994h-2.364V20.373h2.364zm0 9.85c.064.255.192.509.383.7.192.19.448.317.703.317h.192v.127h-1.278v-1.144zm3.898-10.168v.445l-1.917-.19c.255 0 .447 0 .767-.064.255 0 .511-.064.703-.127.191 0 .383 0 .447-.064zm0 .89v1.843h-.128v-.19c0-.51-.128-.89-.447-1.145-.32-.317-.703-.445-1.15-.445v-.063h1.725zm2.172.572a1.51 1.51 0 00-.383-.7c-.192-.19-.447-.317-.703-.317h-.192v-.127h1.278v1.144zm0 8.706v1.144h-1.278v-.127h.192c.256 0 .511-.127.703-.317.192-.191.319-.382.383-.7zm2.301-9.85v11.058h-2.365V20.373h2.365zm-.064 1.144v-1.144h1.278v.127h-.192c-.255 0-.511.127-.703.318a1.52 1.52 0 00-.383.699zm0 8.706c.064.255.192.509.383.7.192.19.448.317.703.317h.192v.127H113.5v-1.144zm8.627-10.104c1.278 0 2.364.254 3.322.699.959.445 1.662 1.144 2.173 1.97.511.826.767 1.843.767 3.05 0 1.208-.256 2.224-.767 3.05-.511.827-1.214 1.526-2.173 1.97-.958.446-2.044.7-3.322.7s-2.365-.254-3.323-.7c-.959-.444-1.662-1.143-2.173-1.97-.511-.826-.767-1.842-.767-3.05 0-1.207.256-2.224.767-3.05.511-.826 1.214-1.525 2.173-1.97.958-.445 2.045-.7 3.323-.7zm0 10.803c.766 0 1.405-.19 1.917-.635a4.751 4.751 0 001.278-1.78c.319-.762.447-1.652.447-2.669 0-1.017-.128-1.97-.447-2.669-.32-.762-.703-1.335-1.278-1.78-.512-.444-1.215-.635-1.917-.635-.767 0-1.406.19-1.917.636-.576.444-.959 1.017-1.279 1.78-.319.762-.447 1.651-.447 2.668 0 1.017.128 1.97.447 2.67.32.762.703 1.334 1.279 1.779.575.445 1.214.635 1.917.635zm8.435-.635v1.144h-1.342v-.127h.319c.256 0 .511-.064.703-.255.192-.19.256-.508.32-.762zm-.128-10.168l2.3 2.415v8.833h-2.236V22.09c0-.572-.064-1.271-.192-1.97h.128zm0 0l10.096 9.596.192 1.906-10.096-9.596-.192-1.906zm2.3 10.168c0 .254.064.508.256.699.192.19.447.254.703.254h.319v.127h-1.278v-1.08zm4.473-9.914h1.342v1.144c0-.254-.128-.509-.319-.7-.192-.19-.384-.253-.703-.253h-.32v-.191zm3.515 0v9.215c0 .381 0 .762.064 1.017 0 .317.064.635.128.953h-.128l-2.301-2.542v-8.707h2.237v.064zm1.278 0v.127h-.32c-.255 0-.511.064-.703.254-.191.19-.319.381-.319.7h-.064v-1.145H142v.064z" fill="#fff"/><path d="M57.651 12.111l.128 2.733a5.07 5.07 0 01-.958 1.08c-.384.318-.895.572-1.47.763a6.57 6.57 0 01-2.045.318c-1.278 0-2.428-.255-3.387-.7-.958-.444-1.725-1.08-2.236-1.97-.511-.826-.767-1.906-.767-3.114 0-1.207.256-2.224.767-3.05a5.196 5.196 0 012.236-1.97c.959-.445 2.11-.699 3.451-.699.83 0 1.598.064 2.3.254.703.19 1.215.381 1.662.636V9.06h-.128c-.255-1.017-.767-1.78-1.406-2.224a3.888 3.888 0 00-2.236-.7c-.831 0-1.598.191-2.173.636-.575.381-1.086 1.017-1.406 1.716-.32.762-.51 1.652-.51 2.669 0 1.017.127 1.97.446 2.67.32.762.767 1.334 1.342 1.779.575.444 1.278.635 2.045.635.83 0 1.47-.127 2.045-.381.575-.255 1.022-.7 1.342-1.335.32-.635.575-1.398.767-2.478h.191v.063zm2.684-6.481v.953h-.064c0-.254-.064-.445-.256-.572a1.034 1.034 0 00-.575-.19h-.255v-.128h1.15v-.064zm2.3 0v6.926c0 .763.128 1.399.384 1.97.255.572.575.954 1.086 1.272.447.317 1.022.444 1.661.444.64 0 1.215-.127 1.662-.444.447-.255.83-.7 1.086-1.208.256-.508.383-1.144.383-1.843V5.63h1.15v7.055c0 .89-.191 1.588-.574 2.224-.384.635-.895 1.144-1.598 1.462-.703.317-1.534.508-2.492.508-1.15 0-2.045-.19-2.812-.508a3.566 3.566 0 01-1.725-1.462c-.383-.636-.575-1.398-.575-2.224V5.629h2.364zm1.087 0v.127h-.256c-.256 0-.447.063-.575.19-.192.127-.256.318-.256.572v-.953h1.087v.063zm5.175 0v.953h-.063c0-.254-.064-.445-.256-.572a1.034 1.034 0 00-.575-.19h-.256v-.128h1.15v-.064zm2.173 0v.127h-.255c-.256 0-.448.063-.576.19-.191.127-.255.318-.255.572v-.953h1.086v.063zm2.236 1.207a1.513 1.513 0 00-.383-.7c-.192-.19-.447-.317-.703-.317h-.192v-.127h1.278v1.144zm0 8.706v1.144h-1.278v-.127h.192c.256 0 .511-.127.703-.318.192-.19.32-.445.383-.699zm2.3-9.914v11.058h-2.364V5.63h2.365zm0 1.208V5.693h1.279v.127h-.192c-.255 0-.511.127-.703.318-.255.19-.383.381-.383.699zm4.218 9.151l.384.7h-4.601v-.7h4.217zm1.15-2.542l-.703 3.241h-3.13l.575-.699c.51 0 1.022-.127 1.405-.318a2.73 2.73 0 001.023-.89 6.6 6.6 0 00.703-1.334h.127zm-1.021-8.071c.127.064.255.064.51.127.256.064.448.064.704.127.255 0 .51.064.703.064l-1.917.19v-.508zm10.096.254v.636h-10.16v-.636h10.16zm-8.371.636c-.511.063-.895.19-1.15.508-.32.318-.448.7-.448 1.144v.19h-.127V6.266h1.725zm2.172 9.278v1.144h-1.277v-.127h.191c.256 0 .511-.127.703-.318.256-.19.32-.445.383-.699zm2.365-9.85v10.994H83.85V5.693h2.365zm-.064 9.85c.064.254.192.509.383.7.192.19.448.317.703.317h.192v.127h-1.278v-1.144zm3.898-10.168v.445l-1.917-.19c.255 0 .447 0 .767-.064.255 0 .51-.064.703-.127.191 0 .383-.064.447-.064zm0 .89v1.843h-.128v-.191c0-.508-.128-.89-.447-1.144-.32-.318-.703-.445-1.15-.445v-.063h1.725zm1.981-.635v.953h-.064c0-.254-.064-.445-.255-.572a1.034 1.034 0 00-.576-.19h-.255v-.128h1.15v-.064zm2.3 0v6.926c0 .763.128 1.399.384 1.97.255.572.575.954 1.086 1.272.448.317 1.023.444 1.662.444s1.214-.127 1.661-.444c.447-.255.83-.7 1.086-1.208.256-.508.384-1.144.384-1.843V5.63h1.15v7.055c0 .89-.192 1.588-.575 2.224-.383.635-.895 1.144-1.598 1.462-.702.317-1.533.508-2.492.508-1.15 0-2.045-.19-2.811-.508a3.566 3.566 0 01-1.726-1.462c-.383-.636-.575-1.398-.575-2.224V5.629h2.365zm1.087 0v.127h-.256c-.255 0-.447.063-.575.19-.192.127-.255.318-.255.572v-.953h1.086v.063zm5.176 0v.953h-.064c0-.254-.064-.445-.256-.572a1.032 1.032 0 00-.575-.19h-.255v-.128h1.15v-.064zm2.236 0v.127h-.255c-.256 0-.448.063-.575.19-.192.127-.256.318-.256.572v-.953h1.086v.063zm2.237 1.207a1.512 1.512 0 00-.384-.7c-.192-.19-.447-.317-.703-.317h-.255v-.127h1.278v1.144h.064zm0 8.706v1.144h-1.278v-.127h.255c.256 0 .511-.127.703-.318.128-.19.256-.445.32-.699zm2.3-9.914v11.058h-2.364V5.63h2.364zm1.853 0c.447 0 .959.064 1.406.128.447.127.831.254 1.214.508s.639.508.831.89c.191.38.319.826.319 1.398 0 .445-.064.89-.255 1.334a2.95 2.95 0 01-.831 1.144c-.383.318-.895.509-1.47.572.32.127.639.318.959.572.255.254.511.572.703.826 0 0 .064.127.191.255.128.19.256.38.384.635.191.254.319.508.511.763.192.254.319.444.511.635.256.254.447.508.639.7.192.19.384.317.575.38a2.3 2.3 0 00.703.128v.127h-1.533a10.73 10.73 0 01-1.534-.127c-.447-.128-.895-.255-1.214-.509-.384-.254-.639-.572-.959-.953-.064-.127-.191-.318-.255-.508-.128-.191-.192-.382-.32-.636s-.191-.445-.319-.636a2.25 2.25 0 01-.256-.572c-.064-.19-.128-.317-.128-.38a2.284 2.284 0 00-.511-.763c-.192-.191-.383-.255-.575-.318v-.064h.511c.256 0 .575-.063.831-.19s.511-.318.703-.572a2.41 2.41 0 00.447-1.08c0-.064.064-.191.064-.318v-.445c0-.763-.192-1.335-.575-1.653-.32-.38-.767-.508-1.278-.572h-1.278s0-.063-.064-.19c0-.127-.064-.254-.128-.509h1.981zm-1.917 9.914c.064.255.128.509.32.7.191.19.447.317.702.317h.192v.127h-1.278v-1.144h.064z" fill="#035055"/><path d="M116.95 15.543c-.063.19-.127.382-.063.509.063.127.127.254.255.317.128.064.256.128.384.128h.127v.127h-3.386v-.127h.127c.256 0 .512-.064.767-.255.256-.127.448-.381.639-.762h1.15v.063zm3.387-10.231l.064 1.906-3.962 9.406h-1.15l4.09-9.215c0-.064.064-.19.191-.382.064-.19.192-.38.256-.572.064-.19.192-.444.256-.635.063-.19.127-.381.127-.508h.128zm1.662 7.626v.635h-4.665v-.635h4.665zm-1.662-7.626l5.176 11.248h-2.875l-3.323-8.198 1.022-3.05zm1.917 10.231h2.748c.192.382.383.636.639.763s.511.254.767.254h.128v.127h-5.049v-.127h.128a.78.78 0 00.575-.254c.128-.19.192-.445.064-.763zm5.752-8.706a1.512 1.512 0 00-.384-.7c-.192-.19-.447-.317-.703-.317h-.191v-.127h1.278v1.144zm0 8.706v1.144h-1.278v-.127h.191c.256 0 .511-.127.703-.318.256-.19.32-.445.384-.699zm2.364-9.914v11.058h-2.364V5.63h2.364zm-.064 1.208V5.693h1.278v.127h-.192c-.255 0-.511.127-.703.318-.191.19-.319.381-.383.699zm4.217 9.151l.384.7h-4.601v-.7h4.217zm1.151-2.542l-.703 3.241h-3.131l.575-.699a3.27 3.27 0 001.406-.318c.383-.19.766-.508 1.022-.89.256-.38.511-.825.703-1.334h.128zm-89.27 6.609c.128.064.256.064.511.127.192.064.448.064.703.127.256 0 .512.064.703.064l-1.917.19v-.508zm10.16.254v.636h-10.16v-.636h10.16zm-8.37.636c-.512.063-.895.19-1.15.508-.32.318-.448.7-.448 1.144v.19h-.128v-1.842h1.725zm2.172 9.278v1.144h-1.278v-.127h.192c.255 0 .511-.127.703-.318.192-.19.32-.38.383-.699zm2.3-9.85v10.994h-2.364V20.373h2.365zm0 9.85c.065.255.192.509.384.7.192.19.447.317.703.317h.192v.127h-1.278v-1.144zm3.899-10.168v.445l-1.917-.19c.255 0 .447 0 .766-.064.256 0 .511-.064.703-.127.192 0 .384 0 .448-.064zm0 .89v1.843h-.128v-.19c0-.51-.128-.89-.448-1.145-.32-.317-.703-.445-1.15-.445v-.063h1.726zm2.172.572a1.512 1.512 0 00-.383-.699c-.192-.19-.447-.318-.703-.318h-.256v-.127h1.278v1.144h.064zm0 8.707v1.143H57.46v-.127h.256c.256 0 .511-.127.703-.317.192-.191.255-.382.32-.7zm2.365-9.85V31.43h-2.365V20.373h2.365zm1.853 0c.447 0 .958.063 1.406.126.447.127.83.254 1.214.509.383.254.639.508.83.89.192.38.32.825.32 1.398 0 .444-.064.89-.256 1.334a2.938 2.938 0 01-.83 1.144c-.384.318-.895.508-1.47.572.32.127.639.318.959.572.255.254.51.572.702.826 0 0 .064.127.192.254.128.19.256.382.383.636.192.254.32.508.512.762.191.255.32.445.51.636.256.254.448.508.64.699.192.19.383.318.575.381.192.064.447.127.703.127v.127h-1.534c-.575 0-1.086-.063-1.533-.127-.448-.127-.895-.254-1.214-.508-.384-.254-.64-.572-.959-.953-.064-.128-.192-.318-.256-.509-.127-.19-.191-.381-.319-.635-.128-.19-.192-.445-.32-.636-.127-.19-.191-.381-.255-.572-.064-.19-.128-.317-.128-.381a2.285 2.285 0 00-.511-.763c-.192-.19-.384-.254-.575-.317v-.128h.511c.256 0 .575-.063.83-.19.256-.127.512-.318.704-.572.191-.254.383-.636.447-1.08 0-.064.064-.191.064-.318v-.445c0-.763-.192-1.335-.575-1.652-.32-.382-.767-.509-1.278-.572h-1.279s0-.064-.063-.191c0-.127-.064-.254-.128-.508h1.98v.063zm-1.917 9.85c.064.254.128.508.32.699.191.19.447.317.702.317h.192v.127h-1.278v-1.143h.064z" fill="#035055"/><path d="M70.622 30.223c-.064.191-.127.382-.064.509.064.127.128.254.256.317.128.064.256.128.383.128h.128v.127H67.94v-.127h.127c.256 0 .511-.064.767-.255.256-.127.447-.38.64-.762h1.15v.063zm3.387-10.168l.064 1.907-3.962 9.405h-1.15l4.09-9.215c0-.063.063-.19.191-.38.064-.192.192-.382.256-.573.064-.19.191-.445.255-.635.064-.191.128-.382.128-.509h.128zm1.725 7.563v.635H71.07v-.635h4.664zm-1.725-7.563l5.176 11.249h-2.876l-3.322-8.198 1.022-3.05zm1.917 10.168h2.748c.191.382.383.636.639.763.255.127.511.254.767.254h.127v.127h-4.984v-.127h.128c.192 0 .383-.063.575-.254.128-.19.128-.445 0-.763zm5.816-8.706c-.064-.254-.128-.508-.32-.7-.191-.19-.447-.317-.703-.317h-.191v-.127h1.278v1.144h-.064zm0 8.706v1.144h-1.278v-.127h.192c.255 0 .51-.127.703-.317a1.26 1.26 0 00.383-.7zm2.3-9.85v11.058h-2.364V20.373h2.364zm2.173 0c1.278 0 2.3.254 3.259.7a5.09 5.09 0 012.109 1.906c.51.826.766 1.78.766 2.923 0 1.144-.255 2.097-.766 2.923a5.09 5.09 0 01-2.11 1.907c-.894.445-1.98.699-3.258.699h-3.77v-.636h3.578c.767 0 1.406-.19 1.981-.572.575-.38.959-.953 1.278-1.652.32-.699.448-1.589.448-2.606 0-1.016-.128-1.842-.448-2.605-.32-.7-.703-1.271-1.278-1.652-.575-.382-1.214-.572-1.98-.572h-3.771V20.5h3.962v-.127zm8.307 1.144a1.513 1.513 0 00-.383-.7c-.192-.19-.448-.317-.703-.317h-.192v-.127h1.278v1.144zm0 8.706v1.144h-1.278v-.127h.192c.255 0 .511-.127.703-.317.255-.191.32-.382.383-.7zm2.364-9.85v11.058h-2.364V20.373h2.364zm-.063 1.144v-1.144H98.1v.127h-.192c-.256 0-.511.127-.703.318-.192.19-.32.445-.383.699zm0 8.706c.064.255.191.509.383.7.192.19.447.317.703.317h.192v.127h-1.278v-1.144zm2.107-10.168c.128.064.256.064.512.127.192.064.447.064.703.127.255 0 .511.064.703.064l-1.917.19v-.508zm10.161.254v.636h-10.16v-.636h10.16zm-8.371.636c-.511.063-.895.19-1.15.508-.32.318-.448.7-.448 1.144v.19h-.127v-1.842h1.725zm2.173 9.278v1.144h-1.279v-.127h.192c.256 0 .511-.127.703-.318.192-.19.32-.38.384-.699zm2.3-9.85v10.994h-2.364V20.373h2.364zm0 9.85c.064.255.192.509.383.7.192.19.448.317.703.317h.192v.127h-1.278v-1.144zm3.898-10.168v.445l-1.917-.19c.255 0 .447 0 .767-.064.255 0 .511-.064.703-.127.191 0 .383 0 .447-.064zm0 .89v1.843h-.128v-.19c0-.51-.128-.89-.447-1.145-.32-.317-.703-.445-1.15-.445v-.063h1.725zm2.172.572a1.51 1.51 0 00-.383-.7c-.192-.19-.447-.317-.703-.317h-.192v-.127h1.278v1.144zm0 8.706v1.144h-1.278v-.127h.192c.256 0 .511-.127.703-.317.192-.191.319-.382.383-.7zm2.301-9.85v11.058h-2.365V20.373h2.365zm-.064 1.144v-1.144h1.278v.127h-.192c-.255 0-.511.127-.703.318a1.52 1.52 0 00-.383.699zm0 8.706c.064.255.192.509.383.7.192.19.448.317.703.317h.192v.127H113.5v-1.144zm8.627-10.104c1.278 0 2.364.254 3.322.699.959.445 1.662 1.144 2.173 1.97.511.826.767 1.843.767 3.05 0 1.208-.256 2.224-.767 3.05-.511.827-1.214 1.526-2.173 1.97-.958.446-2.044.7-3.322.7s-2.365-.254-3.323-.7c-.959-.444-1.662-1.143-2.173-1.97-.511-.826-.767-1.842-.767-3.05 0-1.207.256-2.224.767-3.05.511-.826 1.214-1.525 2.173-1.97.958-.445 2.045-.7 3.323-.7zm0 10.803c.766 0 1.405-.19 1.917-.635a4.751 4.751 0 001.278-1.78c.319-.762.447-1.652.447-2.669 0-1.017-.128-1.97-.447-2.669-.32-.762-.703-1.335-1.278-1.78-.512-.444-1.215-.635-1.917-.635-.767 0-1.406.19-1.917.636-.576.444-.959 1.017-1.279 1.78-.319.762-.447 1.651-.447 2.668 0 1.017.128 1.97.447 2.67.32.762.703 1.334 1.279 1.779.575.445 1.214.635 1.917.635zm8.435-.635v1.144h-1.342v-.127h.319c.256 0 .511-.064.703-.255.192-.19.256-.508.32-.762zm-.128-10.168l2.3 2.415v8.833h-2.236V22.09c0-.572-.064-1.271-.192-1.97h.128zm0 0l10.096 9.596.192 1.906-10.096-9.596-.192-1.906zm2.3 10.168c0 .254.064.508.256.699.192.19.447.254.703.254h.319v.127h-1.278v-1.08zm4.473-9.914h1.342v1.144c0-.254-.128-.509-.319-.7-.192-.19-.384-.253-.703-.253h-.32v-.191zm3.515 0v9.215c0 .381 0 .762.064 1.017 0 .317.064.635.128.953h-.128l-2.301-2.542v-8.707h2.237v.064zm1.278 0v.127h-.32c-.255 0-.511.064-.703.254-.191.19-.319.381-.319.7h-.064v-1.145H142v.064z" fill="#035055"/></svg>