<svg width="44" height="44" fill="none" xmlns="http://www.w3.org/2000/svg"><g clip-path="url(#clip0_210_5181)"><circle cx="22" cy="22" r="22" fill="#075358"/><path d="M29.137 15.345c-.094-.047-.165-.024-.236.07-.094.187-.26.444-.449.724a5.615 5.615 0 01-.661.864 5.09 5.09 0 01-.733.7c-.26.188-.496.258-.709.21-.236-.046-.401-.21-.449-.49a1.84 1.84 0 01-.023-.63 2.93 2.93 0 01.189-.724h.237c.117 0 .235-.024.4-.07.166-.047.332-.117.497-.21a1.57 1.57 0 00.472-.421c.142-.21.26-.42.308-.654.047-.234.023-.42-.119-.56-.07-.07-.212-.094-.378-.094-.165 0-.401.117-.708.374a2.473 2.473 0 00-.567.63 3.51 3.51 0 00-.237.397c-.33.397-.614.725-.874 1.005-.283.28-.496.467-.638.537-.023 0-.07.023-.07.023 0-.023-.024-.046-.048-.07-.024-.023-.024-.07-.047-.14 0-.047-.024-.117-.024-.21-.023-.14-.023-.304-.023-.467 0-.164.023-.327.047-.49.023-.374.023-.655.023-.841 0-.21-.094-.304-.236-.328h-.023c-.213 0-.45.094-.71.304-.26.21-.543.49-.826.84a11.47 11.47 0 00-.922 1.239c-.33.467-.638.957-.969 1.471.119-.444.26-.934.45-1.494.189-.561.401-1.122.637-1.729.237-.607.473-1.214.733-1.822.26-.607.52-1.214.78-1.798.212-.49.425-.958.614-1.378.756-.024 1.465-.024 2.197-.024.047 0 .095 0 .118-.046a.178.178 0 00.048-.117c0-.093-.048-.163-.166-.187-.661-.023-1.323 0-2.032 0 .213-.444.402-.817.567-1.144.024-.024.071-.024.071-.047a1.63 1.63 0 00.166-.187c.07-.093.141-.163.212-.28.071-.094.142-.21.19-.304a.616.616 0 00.07-.28c-.024-.093-.047-.164-.118-.21-.07-.047-.118-.047-.19-.024-.023 0-.046.024-.07.047a.744.744 0 00-.142.187c-.07.093-.165.257-.26.467-.118.21-.26.49-.448.864-.142.28-.284.584-.426.911-.685.024-1.394.07-2.079.117.095-.257.142-.374.165-.397.024-.047.024-.094 0-.117a.184.184 0 00-.094-.093c-.095-.047-.19-.024-.213.093-.023.023-.047.07-.07.164-.024.093-.095.21-.142.373-.78.047-1.536.117-2.245.187-.709.07-1.37.164-1.961.234-.59.07-1.087.14-1.512.21-.425.07-.733.117-.898.163-.33.094-.567.164-.709.257-.142.094-.213.187-.189.28 0 .047.024.094.047.14.024.048.095.07.19.117.094.024.188.07.354.094.142.023.33.047.567.047 1.488.046 2.528.537 3.119 1.471.165.257.283.56.378.888.094.327.142.654.165 1.004.024.35.024.7 0 1.051a8.36 8.36 0 01-.142 1.074c-.165.468-.33.911-.496 1.332-.142.42-.283.817-.402 1.168-.118.35-.212.654-.283.91-.07.257-.118.468-.118.608 0 .093.047.163.142.186h.047c.07 0 .118-.023.165-.093.024-.023.071-.163.19-.397.094-.233.212-.537.354-.91.141-.375.283-.795.425-1.262.142-.467.26-.981.354-1.495.237-.63.497-1.308.756-1.962.26-.677.52-1.331.78-1.938.26-.631.473-1.192.685-1.729.213-.537.402-.957.544-1.308.685-.046 1.37-.07 2.055-.117-.047.094-.094.21-.142.304-.26.584-.543 1.168-.803 1.799-.094.256-.236.56-.378.91-.142.35-.307.748-.472 1.168-.166.42-.331.864-.496 1.308-.166.444-.331.888-.473 1.308-.142.42-.26.841-.378 1.238s-.166.724-.213 1.028v.023c0 .093.047.14.142.164 0 0 .024.023.047.023a.181.181 0 00.118-.047c.024-.047.071-.093.118-.163.024-.047.071-.094.119-.164l.141-.21c.19-.304.426-.677.71-1.144.283-.444.614-.888.944-1.308.213-.28.402-.514.567-.701.166-.187.308-.327.426-.444.118-.117.236-.187.307-.233.094-.047.165-.07.213-.094.023.07.023.187.023.35 0 .164-.023.304-.023.444-.024.467-.024.841-.024 1.121.024.28.094.49.26.584.047.024.094.047.165.07.071 0 .142 0 .236-.046.119-.07.26-.164.426-.304.142-.14.307-.28.472-.444.047-.07.118-.117.166-.187l-.071.35c-.047.281-.047.538.023.771.095.42.355.655.733.748.024 0 .094.023.189.023.213 0 .402-.07.614-.187.213-.116.425-.28.614-.443.19-.187.378-.374.544-.608.165-.21.33-.42.449-.63.142-.21.236-.374.33-.537.095-.14.142-.257.166-.304-.095-.14-.118-.234-.213-.28zm-8.576-4.018c-.166.42-.355.865-.544 1.355-.189.49-.401 1.004-.614 1.518-.213.514-.425 1.075-.638 1.612a8.071 8.071 0 00-.095-1.518 4.441 4.441 0 00-.496-1.355c-.638-1.028-1.772-1.588-3.378-1.635-.213 0-.355-.023-.473-.023-.118-.024-.189-.024-.26-.047.047-.023.118-.047.19-.07.094-.024.212-.07.354-.117.165-.047.472-.093.874-.163s.898-.14 1.441-.21a92.16 92.16 0 011.89-.21c.685-.07 1.418-.14 2.174-.188-.118.28-.26.654-.425 1.051zm6.403 3.434c.165-.117.283-.21.378-.257a.548.548 0 01.212-.07h.071c.047.046.047.14.024.28-.024.14-.118.304-.236.49-.095.117-.213.21-.308.28a1.44 1.44 0 01-.33.164.824.824 0 01-.307.07c-.095.024-.166.024-.213.024l.07-.14.024-.024.024-.023c.024-.047.047-.07.047-.117.071-.093.118-.21.19-.304a1.72 1.72 0 01.354-.373z" fill="#C5A15D"/><path d="M10.636 25.185l.04.878a1.63 1.63 0 01-.309.347c-.124.102-.29.184-.475.245a2.138 2.138 0 01-.661.102 2.63 2.63 0 01-1.095-.224 1.556 1.556 0 01-.723-.633c-.165-.266-.247-.613-.247-1 0-.389.082-.715.247-.98.166-.266.413-.491.723-.634.31-.143.682-.225 1.116-.225.268 0 .516.02.743.082.227.061.393.123.537.204v.858h-.041c-.083-.327-.248-.572-.454-.715a1.262 1.262 0 00-.723-.224c-.269 0-.517.061-.703.204a1.345 1.345 0 00-.454.551 2.198 2.198 0 00-.165.858c0 .326.041.633.144.857.104.245.248.429.434.572.186.143.413.204.661.204.269 0 .475-.04.66-.122a.88.88 0 00.435-.43 2.77 2.77 0 00.247-.795h.063v.02zm.867-2.083v.306h-.021c0-.081-.02-.143-.083-.184a.336.336 0 00-.185-.06h-.083v-.042h.372v-.02zm.743 0v2.226c0 .245.041.449.124.633a.856.856 0 00.351.408c.145.102.33.143.537.143.207 0 .393-.041.537-.143a.924.924 0 00.351-.388c.083-.164.124-.368.124-.592v-2.287h.372v2.266c0 .286-.062.51-.186.715a1.149 1.149 0 01-.516.47 1.95 1.95 0 01-.806.163 2.33 2.33 0 01-.908-.163 1.15 1.15 0 01-.558-.47 1.367 1.367 0 01-.186-.715v-2.266h.764zm.351 0v.04h-.082c-.083 0-.145.021-.186.062-.062.04-.083.102-.083.184v-.307h.351v.021zm1.673 0v.306h-.02c0-.081-.02-.143-.083-.184a.335.335 0 00-.186-.06H13.9v-.042h.371v-.02zm.703 0v.04h-.083c-.083 0-.145.021-.186.062-.062.04-.083.102-.083.184v-.307h.352v.021zm.722.388a.484.484 0 00-.124-.225.333.333 0 00-.227-.102h-.062v-.04h.413v.367zm0 2.797v.368h-.413v-.041h.062c.083 0 .165-.04.227-.102a.484.484 0 00.124-.225zm.744-3.185v3.553h-.764v-3.553h.764zm0 .388v-.367h.413v.04h-.062a.333.333 0 00-.227.102c-.083.062-.124.123-.124.225zm1.363 2.94l.124.225h-1.487v-.225h1.363zm.372-.817l-.227 1.042h-1.012l.186-.225c.165 0 .33-.04.454-.102a.882.882 0 00.33-.286 2.06 2.06 0 00.228-.429h.04zm-.33-2.593c.041.02.082.02.165.041.083.02.145.02.227.041.083 0 .166.02.227.02l-.62.062v-.164zm3.263.082v.204h-3.284v-.204h3.284zm-2.705.204c-.166.02-.29.062-.372.164a.489.489 0 00-.145.367v.061h-.041v-.592h.558zm.702 2.981v.368h-.413v-.041h.062a.33.33 0 00.227-.102c.082-.061.103-.143.124-.225zm.764-3.164v3.532h-.764v-3.532h.764zm-.02 3.164c.02.082.061.164.123.225a.334.334 0 00.227.102h.063v.04h-.414v-.367zm1.26-3.267v.143l-.62-.06c.082 0 .144 0 .247-.021.083 0 .166-.02.228-.041.062 0 .124-.02.144-.02zm0 .286v.592h-.042v-.06c0-.164-.041-.287-.145-.368a.5.5 0 00-.371-.143v-.02h.557zm.64-.204v.307h-.02c0-.082-.022-.143-.084-.184a.335.335 0 00-.185-.061h-.083v-.041h.372v-.02zm.743 0v2.226c0 .245.042.45.124.633a.855.855 0 00.351.408c.145.102.33.143.537.143.207 0 .393-.04.537-.143a.925.925 0 00.352-.388 1.32 1.32 0 00.123-.592v-2.287h.372v2.267c0 .286-.062.51-.186.715a1.15 1.15 0 01-.516.47 1.95 1.95 0 01-.805.162c-.372 0-.662-.06-.91-.163a1.15 1.15 0 01-.557-.47 1.367 1.367 0 01-.186-.714v-2.267h.764zm.352 0v.041h-.083c-.083 0-.145.02-.186.061-.062.041-.083.103-.083.184v-.306h.352v.02zm1.672 0v.307h-.02c0-.082-.02-.143-.083-.184a.335.335 0 00-.186-.061h-.082v-.041h.372v-.02zm.723 0v.041h-.082c-.083 0-.145.02-.186.061-.062.041-.083.103-.083.184v-.306h.351v.02zm.723.388a.486.486 0 00-.124-.225.333.333 0 00-.227-.102h-.083v-.04h.413v.367h.021zm0 2.797v.368h-.413v-.041h.083a.33.33 0 00.227-.102.751.751 0 00.103-.225zm.744-3.185v3.553h-.765v-3.553h.765zm.599 0c.144 0 .31.02.454.04.145.042.269.083.393.164a.715.715 0 01.268.286.964.964 0 01.103.45c0 .142-.02.285-.082.428a.945.945 0 01-.269.368.894.894 0 01-.475.183c.103.041.207.102.31.184.082.082.165.184.227.266 0 0 .02.04.062.081.041.061.083.123.124.204.062.082.103.164.165.245.062.082.104.143.166.205.082.081.144.163.206.224a.489.489 0 00.186.123c.062.02.145.04.227.04v.041h-.496c-.186 0-.35-.02-.495-.04-.145-.041-.29-.082-.393-.164-.124-.081-.206-.184-.31-.306-.02-.04-.062-.102-.082-.163-.041-.062-.062-.123-.104-.205-.04-.081-.061-.143-.103-.204a.724.724 0 01-.082-.184c-.021-.06-.042-.102-.042-.122a.733.733 0 00-.165-.245.424.424 0 00-.186-.102v-.02h.165a.643.643 0 00.269-.062.645.645 0 00.227-.184.771.771 0 00.145-.347c0-.02.02-.061.02-.102v-.143c0-.245-.062-.428-.185-.53-.104-.123-.248-.164-.414-.184h-.413s0-.02-.02-.062c0-.04-.021-.081-.042-.163h.64zm-.62 3.185c.02.082.041.164.103.225a.333.333 0 00.228.102h.061v.04h-.413v-.367h.021z" fill="#fff"/><path d="M29.803 26.287c-.021.062-.042.123-.021.164.02.04.041.081.082.102.042.02.083.04.124.04h.042v.041h-1.095v-.04h.041a.4.4 0 00.248-.082c.083-.041.145-.123.207-.245h.372v.02zM30.897 23l.02.613-1.28 3.021h-.372l1.322-2.96c0-.02.021-.061.062-.123.021-.061.062-.122.083-.183.02-.062.062-.143.083-.205a.623.623 0 00.04-.163h.042zm.537 2.45v.204h-1.508v-.204h1.508zM30.897 23l1.673 3.614h-.93l-1.073-2.634.33-.98zm.62 3.287h.888c.062.123.124.204.207.245a.587.587 0 00.247.082h.042v.04h-1.632v-.04h.041c.062 0 .124-.02.186-.082a.249.249 0 00.02-.245zm1.859-2.797a.486.486 0 00-.124-.225.333.333 0 00-.227-.102h-.062v-.04h.413v.367zm0 2.797v.368h-.413v-.041h.062c.083 0 .165-.04.227-.102.083-.061.103-.143.124-.225zm.764-3.185v3.553h-.764v-3.553h.764zm-.02.388v-.367h.413v.04h-.062a.333.333 0 00-.227.102.402.402 0 00-.124.225zm1.363 2.94l.124.225H34.12v-.225h1.363zm.372-.817l-.228 1.042h-1.012l.186-.225c.165 0 .33-.04.455-.102a.882.882 0 00.33-.286 2.1 2.1 0 00.227-.429h.041zM7 27.737c.041.02.083.02.165.04.062.021.145.021.227.041.083 0 .166.02.228.02L7 27.9v-.163zm3.284.082v.204H7v-.204h3.284zm-2.706.204c-.165.02-.289.06-.371.163a.489.489 0 00-.145.367v.062h-.041v-.592h.557zm.703 2.98v.368h-.414v-.04h.062a.332.332 0 00.228-.103.402.402 0 00.124-.224zm.743-3.164v3.532H8.26V27.84h.764zm0 3.165a.48.48 0 00.124.224.334.334 0 00.227.102h.062v.041h-.413v-.367zm1.26-3.267v.143l-.62-.061c.083 0 .145 0 .248-.02a.728.728 0 00.227-.042c.063 0 .124 0 .145-.02zm0 .286v.592h-.041v-.061c0-.164-.042-.286-.145-.368a.5.5 0 00-.372-.143v-.02h.558zm.702.183a.486.486 0 00-.123-.224.334.334 0 00-.228-.102h-.082v-.041h.413v.367h.02zm0 2.797v.368h-.413v-.04h.083a.334.334 0 00.227-.103c.062-.061.083-.122.104-.225zm.765-3.164v3.553h-.764v-3.553h.764zm.599 0c.144 0 .31.02.454.04.145.041.269.082.393.164a.713.713 0 01.268.286.964.964 0 01.103.449c0 .143-.02.286-.082.429a.946.946 0 01-.269.367.895.895 0 01-.475.184c.103.04.207.102.31.184a2.6 2.6 0 01.227.265s.02.041.062.082c.041.061.083.122.124.204.062.082.103.163.165.245.062.082.104.143.165.204.083.082.145.164.207.225a.488.488 0 00.186.122.75.75 0 00.227.041v.041h-.496c-.185 0-.35-.02-.495-.04-.145-.042-.29-.082-.393-.164-.124-.082-.206-.184-.31-.306-.02-.041-.062-.102-.082-.164-.041-.061-.062-.122-.103-.204-.042-.061-.062-.143-.104-.204a.72.72 0 01-.082-.184c-.021-.061-.042-.102-.042-.122a.734.734 0 00-.165-.245c-.062-.062-.124-.082-.186-.102v-.041h.166a.64.64 0 00.268-.061.645.645 0 00.227-.184.771.771 0 00.145-.347c0-.02.02-.062.02-.102v-.143c0-.245-.061-.43-.185-.531-.104-.123-.248-.164-.414-.184h-.413s0-.02-.02-.061c0-.041-.021-.082-.042-.164h.64v.02zm-.62 3.165c.02.081.041.163.103.224a.333.333 0 00.227.102h.063v.041h-.414v-.367h.021z" fill="#fff"/><path d="M14.828 31.004c-.02.06-.041.122-.02.163.02.04.04.082.082.102.041.02.082.04.124.04h.041v.042H13.96v-.041h.042a.4.4 0 00.248-.082c.082-.04.144-.122.206-.245h.372v.02zm1.095-3.267l.02.612-1.28 3.022h-.372l1.322-2.96c0-.02.02-.062.062-.123.02-.061.062-.122.082-.184.021-.06.062-.143.083-.204a.624.624 0 00.041-.163h.042zm.557 2.43v.204h-1.508v-.204h1.508zm-.557-2.43l1.673 3.614h-.93l-1.074-2.634.33-.98zm.62 3.267h.887c.062.122.124.204.207.245.083.04.165.081.248.081h.041v.041h-1.61v-.04h.04a.255.255 0 00.186-.082c.042-.062.042-.143 0-.245zm1.879-2.798a.444.444 0 00-.103-.224.333.333 0 00-.228-.102h-.062v-.041h.413v.367h-.02zm0 2.798v.367h-.413v-.04h.062a.332.332 0 00.227-.103.402.402 0 00.124-.224zm.744-3.165v3.553H18.4v-3.553h.765zm.702 0c.413 0 .743.082 1.053.225.29.142.517.347.682.612.165.265.248.572.248.94 0 .367-.083.673-.248.938-.166.266-.393.47-.682.613-.29.143-.64.225-1.053.225h-1.219v-.205h1.157c.248 0 .454-.06.64-.183s.31-.307.413-.531c.103-.225.145-.51.145-.837 0-.327-.042-.592-.145-.837-.103-.225-.227-.409-.413-.531a1.121 1.121 0 00-.64-.184h-1.218v-.204h1.28v-.041zm2.685.367a.484.484 0 00-.124-.224.333.333 0 00-.227-.102h-.062v-.041h.413v.367zm0 2.798v.367h-.413v-.04h.062a.33.33 0 00.227-.103c.083-.061.104-.122.124-.224zm.764-3.165v3.553h-.764v-3.553h.764zm-.02.367v-.367h.413v.04h-.062a.333.333 0 00-.227.103.486.486 0 00-.124.224zm0 2.798a.48.48 0 00.124.224.333.333 0 00.227.102h.062v.041h-.413v-.367zm.681-3.267c.041.02.083.02.165.04.062.021.145.021.227.041.083 0 .166.02.228.02l-.62.062v-.163zm3.284.082v.204h-3.284v-.204h3.284zm-2.706.204c-.165.02-.289.06-.371.163a.489.489 0 00-.145.367v.062h-.041v-.592h.557zm.703 2.98v.368h-.413v-.04h.061a.332.332 0 00.228-.103.402.402 0 00.124-.224zm.743-3.164v3.532h-.764V27.84h.764zm0 3.165a.48.48 0 00.124.224.334.334 0 00.227.102h.062v.041h-.413v-.367zm1.26-3.267v.143l-.62-.061c.083 0 .145 0 .248-.02a.723.723 0 00.227-.042c.063 0 .124 0 .145-.02zm0 .286v.592h-.041v-.061c0-.164-.041-.286-.145-.368a.5.5 0 00-.372-.143v-.02h.558zm.702.183a.485.485 0 00-.124-.224.333.333 0 00-.227-.102h-.062v-.041h.413v.367zm0 2.798v.367h-.413v-.04h.062a.328.328 0 00.227-.103.402.402 0 00.124-.224zm.744-3.165v3.553h-.764v-3.553h.764zm-.02.367v-.367h.412v.04h-.062a.333.333 0 00-.227.103.484.484 0 00-.124.224zm0 2.798c.02.081.061.163.123.224a.333.333 0 00.227.102h.062v.041h-.413v-.367zm2.788-3.247c.413 0 .764.082 1.074.225.31.143.537.367.702.633.165.265.248.592.248.98s-.083.715-.248.98a1.62 1.62 0 01-.702.633c-.31.143-.661.225-1.074.225-.413 0-.764-.082-1.074-.225a1.621 1.621 0 01-.703-.633c-.165-.265-.247-.592-.247-.98s.082-.715.247-.98a1.62 1.62 0 01.703-.633c.31-.143.66-.225 1.074-.225zm0 3.471c.248 0 .454-.06.62-.204.165-.143.31-.326.413-.572.103-.245.144-.53.144-.857 0-.327-.041-.633-.145-.858-.103-.245-.227-.428-.413-.571-.165-.143-.392-.204-.62-.204-.247 0-.454.06-.619.204-.186.143-.31.326-.413.571-.103.245-.145.531-.145.858 0 .327.042.633.145.858.103.245.227.428.413.571a.982.982 0 00.62.204zm2.726-.204v.368h-.433v-.041h.103a.31.31 0 00.227-.082c.062-.061.083-.163.103-.245zm-.041-3.267l.744.776v2.838h-.723v-2.98c0-.184-.021-.41-.062-.634h.041zm0 0l3.263 3.083.062.613-3.263-3.083-.062-.613zm.744 3.267c0 .082.02.163.082.225a.313.313 0 00.227.081h.104v.041h-.413v-.347zm1.445-3.185h.434v.367a.326.326 0 00-.103-.224c-.062-.061-.124-.082-.227-.082h-.104v-.061zm1.136 0v2.96c0 .123 0 .246.021.327 0 .102.02.204.041.306h-.04l-.745-.816v-2.797h.723v.02zm.414 0v.04h-.104a.313.313 0 00-.227.082c-.062.062-.103.123-.103.225h-.02v-.367h.454v.02zm-27.264-2.654l.04.878a1.63 1.63 0 01-.309.347c-.124.102-.29.184-.475.245a2.138 2.138 0 01-.661.102 2.63 2.63 0 01-1.095-.224 1.556 1.556 0 01-.723-.633c-.165-.266-.247-.613-.247-1 0-.389.082-.715.247-.98.166-.266.413-.491.723-.634.31-.143.682-.225 1.116-.225.268 0 .516.02.743.082.227.061.393.123.537.204v.858h-.041c-.083-.327-.248-.572-.454-.715a1.262 1.262 0 00-.723-.224c-.269 0-.517.061-.703.204a1.345 1.345 0 00-.454.551 2.198 2.198 0 00-.165.858c0 .326.041.633.144.857.104.245.248.429.434.572.186.143.413.204.661.204.269 0 .475-.04.66-.122a.88.88 0 00.435-.43 2.77 2.77 0 00.247-.795h.063v.02zm.867-2.083v.306h-.021c0-.081-.02-.143-.083-.184a.336.336 0 00-.185-.06h-.083v-.042h.372v-.02zm.743 0v2.226c0 .245.041.449.124.633a.856.856 0 00.351.408c.145.102.33.143.537.143.207 0 .393-.041.537-.143a.924.924 0 00.351-.388c.083-.164.124-.368.124-.592v-2.287h.372v2.266c0 .286-.062.51-.186.715a1.149 1.149 0 01-.516.47 1.95 1.95 0 01-.806.163 2.33 2.33 0 01-.908-.163 1.15 1.15 0 01-.558-.47 1.367 1.367 0 01-.186-.715v-2.266h.764zm.351 0v.04h-.082c-.083 0-.145.021-.186.062-.062.04-.083.102-.083.184v-.307h.351v.021zm1.673 0v.306h-.02c0-.081-.02-.143-.083-.184a.335.335 0 00-.186-.06H13.9v-.042h.371v-.02zm.703 0v.04h-.083c-.083 0-.145.021-.186.062-.062.04-.083.102-.083.184v-.307h.352v.021zm.722.388a.484.484 0 00-.124-.225.333.333 0 00-.227-.102h-.062v-.04h.413v.367zm0 2.797v.368h-.413v-.041h.062c.083 0 .165-.04.227-.102a.484.484 0 00.124-.225zm.744-3.185v3.553h-.764v-3.553h.764zm0 .388v-.367h.413v.04h-.062a.333.333 0 00-.227.102c-.083.062-.124.123-.124.225zm1.363 2.94l.124.225h-1.487v-.225h1.363zm.372-.817l-.227 1.042h-1.012l.186-.225c.165 0 .33-.04.454-.102a.882.882 0 00.33-.286 2.06 2.06 0 00.228-.429h.04zm-.33-2.593c.041.02.082.02.165.041.083.02.145.02.227.041.083 0 .166.02.227.02l-.62.062v-.164zm3.263.082v.204h-3.284v-.204h3.284zm-2.705.204c-.166.02-.29.062-.372.164a.489.489 0 00-.145.367v.061h-.041v-.592h.558zm.702 2.981v.368h-.413v-.041h.062a.33.33 0 00.227-.102c.082-.061.103-.143.124-.225zm.764-3.164v3.532h-.764v-3.532h.764zm-.02 3.164c.02.082.061.164.123.225a.334.334 0 00.227.102h.063v.04h-.414v-.367zm1.26-3.267v.143l-.62-.06c.082 0 .144 0 .247-.021.083 0 .166-.02.228-.041.062 0 .124-.02.144-.02zm0 .286v.592h-.042v-.06c0-.164-.041-.287-.145-.368a.5.5 0 00-.371-.143v-.02h.557zm.64-.204v.307h-.02c0-.082-.022-.143-.084-.184a.335.335 0 00-.185-.061h-.083v-.041h.372v-.02zm.743 0v2.226c0 .245.042.45.124.633a.855.855 0 00.351.408c.145.102.33.143.537.143.207 0 .393-.04.537-.143a.925.925 0 00.352-.388 1.32 1.32 0 00.123-.592v-2.287h.372v2.267c0 .286-.062.51-.186.715a1.15 1.15 0 01-.516.47 1.95 1.95 0 01-.805.162c-.372 0-.662-.06-.91-.163a1.15 1.15 0 01-.557-.47 1.367 1.367 0 01-.186-.714v-2.267h.764zm.352 0v.041h-.083c-.083 0-.145.02-.186.061-.062.041-.083.103-.083.184v-.306h.352v.02zm1.672 0v.307h-.02c0-.082-.02-.143-.083-.184a.335.335 0 00-.186-.061h-.082v-.041h.372v-.02zm.723 0v.041h-.082c-.083 0-.145.02-.186.061-.062.041-.083.103-.083.184v-.306h.351v.02zm.723.388a.486.486 0 00-.124-.225.333.333 0 00-.227-.102h-.083v-.04h.413v.367h.021zm0 2.797v.368h-.413v-.041h.083a.33.33 0 00.227-.102.751.751 0 00.103-.225zm.744-3.185v3.553h-.765v-3.553h.765zm.599 0c.144 0 .31.02.454.04.145.042.269.083.393.164a.715.715 0 01.268.286.964.964 0 01.103.45c0 .142-.02.285-.082.428a.945.945 0 01-.269.368.894.894 0 01-.475.183c.103.041.207.102.31.184.082.082.165.184.227.266 0 0 .02.04.062.081.041.061.083.123.124.204.062.082.103.164.165.245.062.082.104.143.166.205.082.081.144.163.206.224a.489.489 0 00.186.123c.062.02.145.04.227.04v.041h-.496c-.186 0-.35-.02-.495-.04-.145-.041-.29-.082-.393-.164-.124-.081-.206-.184-.31-.306-.02-.04-.062-.102-.082-.163-.041-.062-.062-.123-.104-.205-.04-.081-.061-.143-.103-.204a.724.724 0 01-.082-.184c-.021-.06-.042-.102-.042-.122a.733.733 0 00-.165-.245.424.424 0 00-.186-.102v-.02h.165a.643.643 0 00.269-.062.645.645 0 00.227-.184.771.771 0 00.145-.347c0-.02.02-.061.02-.102v-.143c0-.245-.062-.428-.185-.53-.104-.123-.248-.164-.414-.184h-.413s0-.02-.02-.062c0-.04-.021-.081-.042-.163h.64zm-.62 3.185c.02.082.041.164.103.225a.333.333 0 00.228.102h.061v.04h-.413v-.367h.021z" fill="#fff"/><path d="M29.803 26.287c-.021.062-.042.123-.021.164.02.04.041.081.082.102.042.02.083.04.124.04h.042v.041h-1.095v-.04h.041a.4.4 0 00.248-.082c.083-.041.145-.123.207-.245h.372v.02zM30.897 23l.02.613-1.28 3.021h-.372l1.322-2.96c0-.02.021-.061.062-.123.021-.061.062-.122.083-.183.02-.062.062-.143.083-.205a.623.623 0 00.04-.163h.042zm.537 2.45v.204h-1.508v-.204h1.508zM30.897 23l1.673 3.614h-.93l-1.073-2.634.33-.98zm.62 3.287h.888c.062.123.124.204.207.245a.587.587 0 00.247.082h.042v.04h-1.632v-.04h.041c.062 0 .124-.02.186-.082a.249.249 0 00.02-.245zm1.859-2.797a.486.486 0 00-.124-.225.333.333 0 00-.227-.102h-.062v-.04h.413v.367zm0 2.797v.368h-.413v-.041h.062c.083 0 .165-.04.227-.102.083-.061.103-.143.124-.225zm.764-3.185v3.553h-.764v-3.553h.764zm-.02.388v-.367h.413v.04h-.062a.333.333 0 00-.227.102.402.402 0 00-.124.225zm1.363 2.94l.124.225H34.12v-.225h1.363zm.372-.817l-.228 1.042h-1.012l.186-.225c.165 0 .33-.04.455-.102a.882.882 0 00.33-.286 2.1 2.1 0 00.227-.429h.041zM7 27.737c.041.02.083.02.165.04.062.021.145.021.227.041.083 0 .166.02.228.02L7 27.9v-.163zm3.284.082v.204H7v-.204h3.284zm-2.706.204c-.165.02-.289.06-.371.163a.489.489 0 00-.145.367v.062h-.041v-.592h.557zm.703 2.98v.368h-.414v-.04h.062a.332.332 0 00.228-.103.402.402 0 00.124-.224zm.743-3.164v3.532H8.26V27.84h.764zm0 3.165a.48.48 0 00.124.224.334.334 0 00.227.102h.062v.041h-.413v-.367zm1.26-3.267v.143l-.62-.061c.083 0 .145 0 .248-.02a.728.728 0 00.227-.042c.063 0 .124 0 .145-.02zm0 .286v.592h-.041v-.061c0-.164-.042-.286-.145-.368a.5.5 0 00-.372-.143v-.02h.558zm.702.183a.486.486 0 00-.123-.224.334.334 0 00-.228-.102h-.082v-.041h.413v.367h.02zm0 2.797v.368h-.413v-.04h.083a.334.334 0 00.227-.103c.062-.061.083-.122.104-.225zm.765-3.164v3.553h-.764v-3.553h.764zm.599 0c.144 0 .31.02.454.04.145.041.269.082.393.164a.713.713 0 01.268.286.964.964 0 01.103.449c0 .143-.02.286-.082.429a.946.946 0 01-.269.367.895.895 0 01-.475.184c.103.04.207.102.31.184a2.6 2.6 0 01.227.265s.02.041.062.082c.041.061.083.122.124.204.062.082.103.163.165.245.062.082.104.143.165.204.083.082.145.164.207.225a.488.488 0 00.186.122.75.75 0 00.227.041v.041h-.496c-.185 0-.35-.02-.495-.04-.145-.042-.29-.082-.393-.164-.124-.082-.206-.184-.31-.306-.02-.041-.062-.102-.082-.164-.041-.061-.062-.122-.103-.204-.042-.061-.062-.143-.104-.204a.72.72 0 01-.082-.184c-.021-.061-.042-.102-.042-.122a.734.734 0 00-.165-.245c-.062-.062-.124-.082-.186-.102v-.041h.166a.64.64 0 00.268-.061.645.645 0 00.227-.184.771.771 0 00.145-.347c0-.02.02-.062.02-.102v-.143c0-.245-.061-.43-.185-.531-.104-.123-.248-.164-.414-.184h-.413s0-.02-.02-.061c0-.041-.021-.082-.042-.164h.64v.02zm-.62 3.165c.02.081.041.163.103.224a.333.333 0 00.227.102h.063v.041h-.414v-.367h.021z" fill="#fff"/><path d="M14.828 31.004c-.02.06-.041.122-.02.163.02.04.04.082.082.102.041.02.082.04.124.04h.041v.042H13.96v-.041h.042a.4.4 0 00.248-.082c.082-.04.144-.122.206-.245h.372v.02zm1.095-3.267l.02.612-1.28 3.022h-.372l1.322-2.96c0-.02.02-.062.062-.123.02-.061.062-.122.082-.184.021-.06.062-.143.083-.204a.624.624 0 00.041-.163h.042zm.557 2.43v.204h-1.508v-.204h1.508zm-.557-2.43l1.673 3.614h-.93l-1.074-2.634.33-.98zm.62 3.267h.887c.062.122.124.204.207.245.083.04.165.081.248.081h.041v.041h-1.61v-.04h.04a.255.255 0 00.186-.082c.042-.062.042-.143 0-.245zm1.879-2.798a.444.444 0 00-.103-.224.333.333 0 00-.228-.102h-.062v-.041h.413v.367h-.02zm0 2.798v.367h-.413v-.04h.062a.332.332 0 00.227-.103.402.402 0 00.124-.224zm.744-3.165v3.553H18.4v-3.553h.765zm.702 0c.413 0 .743.082 1.053.225.29.142.517.347.682.612.165.265.248.572.248.94 0 .367-.083.673-.248.938-.166.266-.393.47-.682.613-.29.143-.64.225-1.053.225h-1.219v-.205h1.157c.248 0 .454-.06.64-.183s.31-.307.413-.531c.103-.225.145-.51.145-.837 0-.327-.042-.592-.145-.837-.103-.225-.227-.409-.413-.531a1.121 1.121 0 00-.64-.184h-1.218v-.204h1.28v-.041zm2.685.367a.484.484 0 00-.124-.224.333.333 0 00-.227-.102h-.062v-.041h.413v.367zm0 2.798v.367h-.413v-.04h.062a.33.33 0 00.227-.103c.083-.061.104-.122.124-.224zm.764-3.165v3.553h-.764v-3.553h.764zm-.02.367v-.367h.413v.04h-.062a.333.333 0 00-.227.103.486.486 0 00-.124.224zm0 2.798a.48.48 0 00.124.224.333.333 0 00.227.102h.062v.041h-.413v-.367zm.681-3.267c.041.02.083.02.165.04.062.021.145.021.227.041.083 0 .166.02.228.02l-.62.062v-.163zm3.284.082v.204h-3.284v-.204h3.284zm-2.706.204c-.165.02-.289.06-.371.163a.489.489 0 00-.145.367v.062h-.041v-.592h.557zm.703 2.98v.368h-.413v-.04h.061a.332.332 0 00.228-.103.402.402 0 00.124-.224zm.743-3.164v3.532h-.764V27.84h.764zm0 3.165a.48.48 0 00.124.224.334.334 0 00.227.102h.062v.041h-.413v-.367zm1.26-3.267v.143l-.62-.061c.083 0 .145 0 .248-.02a.723.723 0 00.227-.042c.063 0 .124 0 .145-.02zm0 .286v.592h-.041v-.061c0-.164-.041-.286-.145-.368a.5.5 0 00-.372-.143v-.02h.558zm.702.183a.485.485 0 00-.124-.224.333.333 0 00-.227-.102h-.062v-.041h.413v.367zm0 2.798v.367h-.413v-.04h.062a.328.328 0 00.227-.103.402.402 0 00.124-.224zm.744-3.165v3.553h-.764v-3.553h.764zm-.02.367v-.367h.412v.04h-.062a.333.333 0 00-.227.103.484.484 0 00-.124.224zm0 2.798c.02.081.061.163.123.224a.333.333 0 00.227.102h.062v.041h-.413v-.367zm2.788-3.247c.413 0 .764.082 1.074.225.31.143.537.367.702.633.165.265.248.592.248.98s-.083.715-.248.98a1.62 1.62 0 01-.702.633c-.31.143-.661.225-1.074.225-.413 0-.764-.082-1.074-.225a1.621 1.621 0 01-.703-.633c-.165-.265-.247-.592-.247-.98s.082-.715.247-.98a1.62 1.62 0 01.703-.633c.31-.143.66-.225 1.074-.225zm0 3.471c.248 0 .454-.06.62-.204.165-.143.31-.326.413-.572.103-.245.144-.53.144-.857 0-.327-.041-.633-.145-.858-.103-.245-.227-.428-.413-.571-.165-.143-.392-.204-.62-.204-.247 0-.454.06-.619.204-.186.143-.31.326-.413.571-.103.245-.145.531-.145.858 0 .327.042.633.145.858.103.245.227.428.413.571a.982.982 0 00.62.204zm2.726-.204v.368h-.433v-.041h.103a.31.31 0 00.227-.082c.062-.061.083-.163.103-.245zm-.041-3.267l.744.776v2.838h-.723v-2.98c0-.184-.021-.41-.062-.634h.041zm0 0l3.263 3.083.062.613-3.263-3.083-.062-.613zm.744 3.267c0 .082.02.163.082.225a.313.313 0 00.227.081h.104v.041h-.413v-.347zm1.445-3.185h.434v.367a.326.326 0 00-.103-.224c-.062-.061-.124-.082-.227-.082h-.104v-.061zm1.136 0v2.96c0 .123 0 .246.021.327 0 .102.02.204.041.306h-.04l-.745-.816v-2.797h.723v.02zm.414 0v.04h-.104a.313.313 0 00-.227.082c-.062.062-.103.123-.103.225h-.02v-.367h.454v.02z" fill="#fff"/></g><defs><clipPath id="clip0_210_5181"><path fill="#fff" d="M0 0h44v44H0z"/></clipPath></defs></svg>