<svg width="18" height="18" fill="none" xmlns="http://www.w3.org/2000/svg"><rect width="18" height="18" rx="2" fill="#fff"/><rect width="18" height="18" rx="2" fill="#C19D58"/><path fill-rule="evenodd" clip-rule="evenodd" d="M5.068 12.176a1.158 1.158 0 01-.47-.271 1.12 1.12 0 01-.289-.452c-.33-.884-.428-4.574.208-5.302.212-.237.511-.383.832-.406 1.707-.18 6.98-.156 7.585.06a1.179 1.179 0 01.747.698c.36.914.373 4.233-.05 5.111a1.136 1.136 0 01-.532.526c-.636.31-7.187.304-8.031.036zm2.71-1.732l3.058-1.553-3.058-1.564v3.117z" fill="#fff"/></svg>