<svg width="88" height="60" fill="none" xmlns="http://www.w3.org/2000/svg"><rect x=".5" y=".5" width="87" height="59" rx="3.5" fill="#006FCF" stroke="#F3F3F3"/><path fill-rule="evenodd" clip-rule="evenodd" d="M19.402 43.665V32.123h13.219l1.418 1.71 1.465-1.71h47.98v10.746s-1.255.784-2.706.796H54.21l-1.599-1.82v1.82h-5.24v-3.106s-.715.434-2.262.434h-1.784v2.672h-7.933l-1.416-1.746-1.438 1.746H19.402zM4 23.425L6.974 17h5.143l1.688 3.599V17H20.2l1.004 2.601.975-2.601h28.7v1.308S52.387 17 54.867 17l9.312.03 1.659 3.552V17h5.35l1.473 2.04V17h5.4v11.542h-5.4l-1.412-2.047v2.047h-7.86l-.791-1.82h-2.114l-.777 1.82h-5.331c-2.134 0-3.498-1.281-3.498-1.281v1.28H42.84l-1.595-1.819v1.82h-29.89l-.79-1.82H8.46l-.785 1.82H4v-5.117zm.016 3.64l4.01-8.641h3.042l4.008 8.642h-2.67l-.736-1.73H7.367l-.74 1.73H4.016zm6.806-3.606l-1.311-3.023-1.316 3.023h2.627zm4.53 3.605v-8.642l3.71.012 2.16 5.572 2.106-5.584h3.682v8.642h-2.332v-6.368l-2.471 6.368h-2.045l-2.479-6.368v6.368h-2.331zm13.253 0v-8.642h7.609v1.933h-5.252v1.478h5.13v1.82h-5.13v1.535h5.252v1.876h-7.608zm8.96.002v-8.642h5.188c1.72 0 3.26.985 3.26 2.803 0 1.555-1.299 2.556-2.558 2.655l3.068 3.184h-2.85l-2.795-3.07h-.982v3.07h-2.331zm4.997-6.709h-2.665v1.82h2.7c.467 0 1.07-.336 1.07-.91 0-.446-.466-.91-1.105-.91zm6.782 6.707h-2.381v-8.642h2.38v8.642zm5.646 0h-.514c-2.486 0-3.995-1.815-3.995-4.286 0-2.531 1.492-4.356 4.632-4.356h2.577v2.047h-2.67c-1.275 0-2.176.921-2.176 2.33 0 1.674 1.03 2.377 2.515 2.377h.614l-.982 1.888zm1.063.002l4.011-8.642h3.041l4.008 8.642h-2.67l-.736-1.73h-4.303l-.74 1.73h-2.611zm6.806-3.606l-1.311-3.024-1.316 3.024h2.627zm4.524 3.604v-8.642h2.964l3.785 5.43v-5.43h2.332v8.642h-2.869l-3.88-5.572v5.572h-2.332zM20.996 42.187v-8.642h7.609v1.933h-5.253v1.478h5.13v1.82h-5.13v1.535h5.253v1.876h-7.609zm37.281 0v-8.642h7.609v1.933h-5.252v1.478h5.105v1.82h-5.106v1.535h5.253v1.876h-7.609zm-29.378 0l3.704-4.268-3.793-4.374h2.938l2.259 2.704 2.266-2.704h2.823l-3.743 4.32 3.711 4.322h-2.937l-2.193-2.662-2.14 2.662H28.9zm10.445 0v-8.642h5.15c2.113 0 3.348 1.262 3.348 2.907 0 1.985-1.574 3.006-3.65 3.006h-2.455v2.729h-2.393zM44.32 35.5h-2.585v1.99h2.577c.681 0 1.159-.418 1.159-.995 0-.614-.48-.995-1.15-.995zm4.533 6.687v-8.642h5.188c1.72 0 3.26.985 3.26 2.804 0 1.554-1.299 2.556-2.558 2.654l3.068 3.184h-2.85l-2.795-3.07h-.982v3.07h-2.331zm4.997-6.708h-2.665v1.819h2.7c.467 0 1.07-.336 1.07-.91 0-.446-.466-.91-1.105-.91zm13.117 6.708v-1.876h4.666c.69 0 .99-.346.99-.725 0-.364-.298-.73-.99-.73h-2.108c-1.833 0-2.854-1.035-2.854-2.59 0-1.385.935-2.721 3.658-2.721h4.541l-.982 1.944h-3.927c-.75 0-.981.365-.981.714 0 .358.285.753.859.753h2.209c2.043 0 2.93 1.074 2.93 2.48 0 1.513-.989 2.751-3.042 2.751h-4.97zm8.213 0v-1.876h4.666c.69 0 .99-.346.99-.725 0-.364-.298-.73-.99-.73H77.74c-1.833 0-2.854-1.035-2.854-2.59 0-1.385.935-2.721 3.658-2.721h4.54l-.98 1.944h-3.928c-.75 0-.982.365-.982.714 0 .358.286.753.86.753h2.208c2.044 0 2.93 1.074 2.93 2.48 0 1.513-.988 2.751-3.04 2.751h-4.97z" fill="#fff"/></svg>