<svg width="88" height="61" fill="none" xmlns="http://www.w3.org/2000/svg"><rect x=".5" y=".5" width="87" height="60" rx="3.5" fill="#fff" stroke="#F3F3F3"/><path d="M64.326 35.586c-2.8 11.275-14.178 18.128-25.392 15.318-11.231-2.81-18.058-14.233-15.259-25.491 2.8-11.275 14.162-18.128 25.392-15.318 11.215 2.794 18.058 14.216 15.259 25.491z" fill="url(#paint0_linear_821_7212)"/><path d="M53.976 27.878c.41-2.794-1.702-4.306-4.616-5.308l.95-3.796-2.292-.576-.917 3.698a61.075 61.075 0 00-1.85-.427l.917-3.714-2.292-.575-.933 3.78c-.507-.116-.998-.23-1.473-.346v-.016l-3.175-.789-.606 2.465s1.702.394 1.67.41c.933.23 1.096.855 1.063 1.348l-1.08 4.322c.066.017.148.033.246.082-.082-.016-.164-.032-.246-.065l-1.506 6.047c-.114.28-.409.707-1.047.542.016.033-1.67-.41-1.67-.41l-1.146 2.645 2.996.756c.556.148 1.096.28 1.637.428l-.95 3.828 2.292.576.95-3.797c.621.165 1.243.33 1.833.477l-.934 3.78 2.292.575.95-3.829c3.928.74 6.875.444 8.102-3.122.999-2.86-.049-4.52-2.111-5.604 1.522-.345 2.651-1.348 2.946-3.385zm-5.254 7.395c-.704 2.859-5.517 1.314-7.072.92l1.26-5.078c1.556.394 6.565 1.167 5.812 4.158zm.72-7.445c-.655 2.613-4.649 1.282-5.942.954l1.146-4.602c1.293.329 5.467.937 4.796 3.648z" fill="#fff"/><defs><linearGradient id="paint0_linear_821_7212" x1="43.989" y1="9.455" x2="43.989" y2="51.53" gradientUnits="userSpaceOnUse"><stop stop-color="#F9AA4B"/><stop offset="1" stop-color="#F7931A"/></linearGradient></defs></svg>