<svg version="1.1" id="Слой_1" xmlns="http://www.w3.org/2000/svg" x="0" y="0" viewBox="0 0 161.7 28.3" xml:space="preserve"><style>.st0{fill:#707171}</style><path class="st0" d="M161.7 23.1c-.1.1-.2.3-.3.4-1.2 1.9-2.7 3.4-4.9 4-3 .8-5.9.4-8.3-1.8-1.3-1.2-2.1-2.8-2.5-4.5-.6-2.6-.6-5.2.5-7.7s2.8-4.3 5.5-5c2.6-.6 5-.4 7.2 1.4 1.2 1 1.8 2.4 2.2 3.9.2 1.1.2 2.2.2 3.3 0 .3-.2.3-.4.3h-11c-.9 0-.9 0-.8.9.1 1.2.2 2.4.6 3.6.7 1.8 1.8 3.2 3.7 3.7 1.7.5 3.5.4 5-.7.8-.6 1.4-1.4 1.9-2.3.1-.1.1-.2.2-.4.3.4.8.6 1.2.9 0-.1 0 0 0 0zm-8.4-7.1h3.5c.8 0 .8 0 .8-.8-.1-.9-.2-1.8-.4-2.7-.6-2.1-2.4-3.1-4.5-2.6-1.3.3-2.2 1.2-2.8 2.4-.6 1.1-.8 2.2-.9 3.4 0 .3 0 .4.3.4 1.3-.1 2.7-.1 4-.1zm-33.9-5.2l.3-.3c1.1-1.1 2.4-1.8 3.9-2.1 2.3-.4 4.4.2 6.1 1.9 1.7 1.6 2.5 3.5 2.8 5.7.3 1.9.2 3.8-.4 5.6-1 2.8-2.9 4.9-5.8 5.9-2.1.7-4.3.4-6.3-.5-.5-.2-1-.5-1.5-.7-.2-.1-.4-.1-.5.1-.3.5-.7 1.1-1 1.6-.1.2-.3.2-.5.2-.8-.2-.8-.2-.7-1.1.1-1.6.1-3.3.1-4.9V4.9c0-.4-.1-.9-.3-1.3-.3-.8-.9-1.2-1.7-1.3-.4-.1-.8-.1-1.2-.1-.3 0-.4-.1-.4-.4 0-.7 0-.8.7-.8.9-.1 1.8-.1 2.7-.2 1-.1 2.1-.1 3.1-.2.3 0 .5.1.5.5v9.6c0 .1.1.1.1.1zm9.4 7.6c0-.5-.1-1-.1-1.5-.1-1.2-.3-2.3-.8-3.4-.6-1.3-1.5-2.3-2.9-2.8-2-.7-4.2-.1-5.6 1.5-.1.1-.2.4-.2.5v10.1c0 .3.1.7.2.9.2.5.5.9.8 1.3 1.4 1.7 3.9 2.1 5.7.9.9-.6 1.5-1.5 1.9-2.5.8-1.6 1-3.3 1-5zm-42.7 6.4l-.3.3c-1 1.1-2.1 2-3.5 2.4-1.4.5-2.9.5-4.3 0-1.6-.6-2.5-1.9-2.8-3.5-.2-.8-.3-1.7-.3-2.5v-8.9c0-1.3-.8-2.1-2-2.3-.1 0-.3-.1-.4-.1-.5 0-.5 0-.5-.5 0-.7 0-.7.7-.7 1.5-.1 2.9-.2 4.4-.3.3 0 .6-.1.9 0 .1 0 .3.2.4.4v13.1c0 .6.1 1.2.3 1.8.5 1.4 1.8 2.1 3.3 1.9 1.7-.2 3-1.1 4-2.4.1-.2.2-.4.2-.6V12.8c0-.8-.3-1.4-.8-1.9-.5-.4-1.1-.4-1.7-.5h-.6c-.3 0-.4-.1-.4-.4v-.3c0-.6 0-.6.6-.6 2-.1 4-.2 5.9-.4.3 0 .4.1.4.3v14.5c0 1.1.6 2 1.5 2.2.3.1.7.1 1.1.1.2 0 .3.1.3.3 0 1 .2.9-.9 1l-4.5.3h-.3c-.5 0-.6-.1-.6-.5v-1.7c.1-.1 0-.2-.1-.4.1.1.1.1 0 0zm19.5.2c-.1.1-.1.3-.2.4-1.1 1.1-2.3 2-3.9 2.3-1.1.2-2.2.3-3.3 0-1.9-.5-3.1-2.1-3.2-4-.1-1.7.3-3.2 1.7-4.3.8-.7 1.7-1.1 2.7-1.4 1.7-.6 3.5-1.2 5.2-1.8 1.2-.4 1.1-.5 1.2-1.7 0-.9 0-1.7-.4-2.6-.4-1.1-1.2-1.9-2.4-2.1-1.1-.2-2.2 0-3.2.6-.3.2-.4.4-.3.8l.3 1.5c.3 1.2-.7 2.1-1.7 2.2h-1c-.6-.1-1-.6-1.2-1.2-.3-1-.1-1.9.6-2.7 1-1.2 2.4-1.9 3.9-2.3 1.8-.4 3.7-.4 5.5.2 1.8.6 2.8 1.9 3.1 3.7.3 1.5.1 3 .1 4.5 0 2.3 0 4.6-.1 6.8 0 1.3.8 2.1 2.1 2.1h.8c.2 0 .3.1.3.2v.1c0 .9 0 .9-.8 1.1-1.1.4-2.1.6-3.3.3-1.2-.3-2-1-2.3-2.2 0-.1-.1-.2-.1-.4.1 0 0-.1-.1-.1zm.2-7.9c-.4.1-.7.2-1 .3-1.4.5-2.8.9-4 1.7-1.5 1-2.2 2.3-2.1 4.1.1.8.3 1.6 1 2.1.9.6 1.8.7 2.8.5 1.3-.2 2.2-1 3-2 .1-.1.1-.3.1-.4 0-.9 0-1.7.1-2.6v-3.1c.1-.2.1-.4.1-.6zm-52.5 8c-.1.1-.2.2-.3.2-1 1.1-2.2 1.9-3.6 2.3-1.5.4-3.1.5-4.5-.3-1.5-.8-2.3-2.1-2.3-3.8-.1-1.4.2-2.6 1.1-3.7.8-.9 1.8-1.4 2.9-1.8l5.1-1.8c.5-.2.9-.4 1.3-.6l.3-.3c0-1 .1-2.1-.2-3.1-.4-1.2-1.1-2.2-2.5-2.5-1.1-.2-2.2 0-3.2.6-.2.1-.4.3-.3.6.1.6.2 1.2.3 1.9.2 1.2-1 1.9-1.8 2h-.9c-.7-.1-1.2-.9-1.2-1.7-.1-1.1.4-1.9 1.1-2.7 1.2-1.1 2.6-1.7 4.2-1.9 1.5-.2 3-.2 4.4.3 2 .6 3.1 2 3.4 4 .3 1.7.1 3.5.1 5.2v1.5c0 1.4-.1 2.8-.1 4.3 0 .3 0 .6.1.9.2.8.9 1.4 1.8 1.4h1c.2 0 .3.1.3.3 0 .9 0 .9-.8 1.1-1.1.4-2.1.6-3.3.3-1.2-.3-2-1-2.3-2.2 0-.2 0-.3-.1-.5.1 0 0 0 0 0zm0-8h-.2c-1.6.5-3.1.9-4.5 1.8-1.7 1-2.6 2.4-2.3 4.4.1.8.4 1.6 1.2 2 .8.5 1.7.6 2.6.4 1.2-.2 2.2-1 3-1.9.1-.1.2-.4.2-.6 0-1.5.1-3 .1-4.5-.1-.4-.1-1-.1-1.6zm87.4-4.4V24c0 .7.1 1.4.8 1.7.5.2 1 .4 1.6.5.2.1.4.1.4.4 0 .8 0 .8-.8.8h-7.8c-.3 0-.4-.1-.4-.4 0-.7 0-.7.7-.8.3 0 .5-.1.8-.1.8-.2 1.2-.7 1.3-1.5V5.1c0-.4-.2-.9-.3-1.3-.4-.9-1.2-1.1-2.1-1.3-.3-.1-.6-.1-1-.2-.2 0-.3-.1-.3-.4 0-.7 0-.8.7-.8.9-.1 1.9-.1 2.8-.2 1.1-.1 2.1-.1 3.2-.2.3 0 .5.1.5.4v.3c-.1 3.7-.1 7.5-.1 11.3zm-73.1 0v11.2c0 1.3.4 1.8 1.6 2.2.3.1.6.1.9.2.2 0 .3.1.3.3 0 .9 0 .9-.9.9h-7.7c-.3 0-.4-.1-.4-.4 0-.7 0-.7.7-.8.3 0 .6-.1.8-.1.8-.2 1.2-.7 1.2-1.5V5.3c0-.6-.2-1.2-.6-1.7-.4-.5-.9-.7-1.5-.8-.4-.1-.8-.2-1.3-.2-.2 0-.3-.1-.3-.4 0-.8 0-.8.7-.8 1-.4 1.9-.5 2.8-.5C65 .8 66 .7 67.1.7c.3 0 .5.1.5.5v11.5zm-35 10.1c.3-.8.6-1.4.9-2.1l3.3-8.1c.1-.3.2-.6.2-.9.1-.4-.1-.7-.4-.8-.6-.3-1.1-.5-1.7-.7-.3-.1-.5-.2-.5-.6 0-.8-.1-.7.7-.7H41c.3 0 .5.1.5.4 0 .6 0 .6-.6.8-1.2.3-1.9 1.1-2.4 2.2l-5.1 12c-.4 1-.7 2-1.1 3-.1.2-.2.3-.4.3-.4 0-.8.1-1-.1-.2-.2-.3-.6-.4-.9-2-4.8-4-9.6-5.9-14.4-.5-1.2-1.4-1.7-2.6-2-.3-.1-.4-.2-.4-.5 0-.8 0-.8.8-.8h7.3c.4 0 .4 0 .5.5 0 .7 0 .7-.7.9l-1.2.3c-.4.2-.5.4-.3.7 1.5 3.7 3 7.5 4.5 11.2 0 0 0 .1.1.3z"/><path d="M22.2 27.4h-9v-1c0-.1.2-.2.3-.2.4-.1.9-.1 1.3-.2.8-.2 1.2-.7 1.2-1.5V14.1c0-.8-.2-1.6-.8-2.3-1-1.3-2.4-1.6-4.2-1-.6.2-1.1.5-1.7.8v-1.2c0-.1.1-.2.2-.3C11.1 8.7 13 8.2 15 8.3c1.1.1 2.1.4 2.9 1.2.9.9 1.4 2 1.5 3.2.1.6.1 1.3.1 1.9v9.3c0 1.2.3 1.6 1.4 2 .3.1.6.1.9.2.2 0 .3.1.3.3.1.4.1.7.1 1z" fill="#ee3041"/><path class="st0" d="M6.7 16.7v7c0 1.9.7 2.1 2 2.4.8.2.8.2.8 1 0 .2-.1.3-.3.3H.9c-.2 0-.3-.1-.3-.3 0-.8 0-.8.8-.9.2 0 .3 0 .5-.1 1-.2 1.4-.7 1.4-1.7V12.8c0-1.1-.6-1.9-1.7-2.3-.5-.1-.9-.2-1.4-.3 0 0-.1-.2-.2-.2 0-.3-.1-.6 0-.8.2-.2.6-.2.8-.2.9-.1 1.7-.1 2.6-.2.9-.1 1.9-.1 2.8-.2.4 0 .5.1.5.5v7.6zm.4-14.2c0 .5-.2 1.1-.6 1.6-1.1 1.4-3 1.2-3.8-.3C2 2.6 2.5 1 3.7.3c.8-.4 1.5-.4 2.3 0 .7.4 1.1 1.2 1.1 2.2z"/></svg>