<svg width="88" height="60" fill="none" xmlns="http://www.w3.org/2000/svg"><rect x=".5" y=".5" width="87" height="59" rx="3.5" fill="#fff" stroke="#F3F3F3"/><path d="M52.057 43.464H36.352V15.768h15.705v27.696z" fill="#FF5F00"/><path d="M37.358 29.614c0-5.618 2.68-10.623 6.855-13.848A18.089 18.089 0 0033.12 12c-9.912 0-17.948 7.886-17.948 17.614 0 9.729 8.036 17.614 17.948 17.614 4.188 0 8.04-1.407 11.093-3.766-4.174-3.225-6.855-8.23-6.855-13.848" fill="#EB001B"/><path d="M73.238 29.614c0 9.729-8.035 17.614-17.948 17.614-4.187 0-8.04-1.407-11.094-3.766 4.176-3.225 6.857-8.23 6.857-13.848s-2.681-10.623-6.857-13.848A18.094 18.094 0 0155.29 12c9.913 0 17.948 7.886 17.948 17.614" fill="#F79E1B"/></svg>