<svg width="88" height="61" fill="none" xmlns="http://www.w3.org/2000/svg"><rect x=".5" y=".5" width="87" height="60" rx="3.5" fill="#fff" stroke="#F3F3F3"/><path fill-rule="evenodd" clip-rule="evenodd" d="M40.114 30.891l.383-2.453-.853-.02h-4.076l2.833-18.1a.24.24 0 01.078-.143.23.23 0 01.151-.056h6.872c2.281 0 3.856.479 4.678 1.423.385.443.63.906.75 1.416.124.534.126 1.173.004 1.952l-.008.057v.5l.385.22c.324.173.582.371.78.599.33.378.543.86.633 1.43.093.588.062 1.286-.09 2.077-.176.91-.46 1.702-.844 2.35a4.818 4.818 0 01-1.337 1.477 5.403 5.403 0 01-1.8.82c-.664.174-1.421.262-2.251.262h-.535a1.614 1.614 0 00-1.59 1.368l-.04.22-.678 4.324-.03.159c-.009.05-.023.075-.043.092a.113.113 0 01-.07.026h-3.302" fill="#28356A"/><path fill-rule="evenodd" clip-rule="evenodd" d="M51.676 15.023c-.02.133-.044.268-.07.407-.907 4.69-4.007 6.31-7.966 6.31h-2.016a.981.981 0 00-.968.835l-1.325 8.47a.519.519 0 00.51.6h3.575c.424 0 .783-.31.85-.73l.035-.184.673-4.306.044-.236a.862.862 0 01.85-.733h.534c3.464 0 6.177-1.418 6.97-5.52.33-1.714.159-3.145-.717-4.152a3.419 3.419 0 00-.98-.76" fill="#298FC2"/><path fill-rule="evenodd" clip-rule="evenodd" d="M50.728 14.642a7.03 7.03 0 00-.881-.197c-.544-.089-1.14-.13-1.778-.13h-5.386a.865.865 0 00-.85.732l-1.144 7.315-.033.213a.981.981 0 01.968-.836h2.016c3.96 0 7.06-1.62 7.966-6.31a9.91 9.91 0 00.07-.406 4.797 4.797 0 00-.948-.38" fill="#22284F"/><path fill-rule="evenodd" clip-rule="evenodd" d="M41.834 15.048a.862.862 0 01.85-.731h5.385c.638 0 1.234.042 1.777.13a7.026 7.026 0 011.085.26c.268.09.516.196.745.318.27-1.733-.002-2.913-.931-3.982-1.025-1.176-2.875-1.68-5.242-1.68h-6.872a.984.984 0 00-.97.837l-2.862 18.287a.594.594 0 00.582.688h4.242l2.211-14.127M19.868 35.87h-5.01a.698.698 0 00-.689.592l-2.026 12.95a.42.42 0 00.413.485h2.392c.343 0 .635-.25.688-.593l.547-3.493a.697.697 0 01.687-.593h1.586c3.3 0 5.205-1.61 5.702-4.8.224-1.395.01-2.491-.639-3.26-.712-.843-1.975-1.289-3.651-1.289zm.577 4.729c-.273 1.812-1.647 1.812-2.975 1.812h-.756l.53-3.384a.418.418 0 01.413-.355h.346c.905 0 1.758 0 2.2.52.262.31.343.77.242 1.407zm14.527-.157h-2.4a.419.419 0 00-.412.355l-.106.677-.168-.245c-.52-.76-1.678-1.014-2.834-1.014-2.65 0-4.915 2.024-5.356 4.863-.23 1.416.096 2.77.894 3.715.73.869 1.777 1.23 3.021 1.23 2.137 0 3.321-1.384 3.321-1.384l-.107.672a.42.42 0 00.412.487h2.161a.698.698 0 00.688-.593l1.297-8.277a.418.418 0 00-.411-.486zm-3.345 4.707c-.231 1.382-1.319 2.31-2.706 2.31-.697 0-1.254-.226-1.611-.653-.355-.424-.49-1.027-.377-1.699.216-1.37 1.322-2.328 2.689-2.328.681 0 1.235.229 1.6.659.365.435.51 1.042.405 1.711zm15.938-4.499h-2.411a.697.697 0 00-.577.308l-3.325 4.937-1.41-4.744a.699.699 0 00-.667-.5h-2.37a.42.42 0 00-.396.556l2.656 7.855-2.497 3.553a.42.42 0 00.34.665h2.409a.694.694 0 00.572-.301l8.019-11.668a.42.42 0 00-.343-.66" fill="#28356A"/><path fill-rule="evenodd" clip-rule="evenodd" d="M55.602 35.87h-5.01a.698.698 0 00-.688.592l-2.026 12.95a.42.42 0 00.412.485h2.571a.488.488 0 00.48-.415l.576-3.67a.697.697 0 01.687-.594h1.585c3.301 0 5.205-1.61 5.703-4.8.225-1.395.01-2.491-.64-3.26-.71-.843-1.973-1.289-3.65-1.289zm.579 4.729c-.274 1.812-1.647 1.812-2.976 1.812h-.755l.53-3.384a.417.417 0 01.412-.355h.347c.904 0 1.758 0 2.199.52.263.31.343.77.242 1.407zm14.522-.157h-2.397a.416.416 0 00-.412.355l-.106.677-.169-.245c-.52-.76-1.677-1.014-2.833-1.014-2.651 0-4.915 2.024-5.355 4.863-.23 1.416.095 2.77.892 3.715.733.869 1.777 1.23 3.022 1.23 2.136 0 3.321-1.384 3.321-1.384l-.107.672a.42.42 0 00.413.487h2.16a.698.698 0 00.688-.593l1.297-8.277a.42.42 0 00-.414-.486zM67.36 45.15c-.23 1.382-1.32 2.31-2.707 2.31-.695 0-1.253-.226-1.611-.653-.354-.424-.488-1.027-.377-1.699.218-1.37 1.323-2.328 2.69-2.328.68 0 1.234.229 1.6.659.366.435.511 1.042.405 1.711zm5.972-8.925l-2.056 13.187a.419.419 0 00.411.486h2.067a.696.696 0 00.688-.593l2.028-12.95a.42.42 0 00-.412-.486h-2.314a.42.42 0 00-.412.356" fill="#298FC2"/></svg>