<svg width="88" height="62" fill="none" xmlns="http://www.w3.org/2000/svg"><rect x=".5" y=".5" width="87" height="61" rx="3.5" fill="#fff" stroke="#F3F3F3"/><path d="M39.072 42.521h-5.86l3.665-21.7h5.859l-3.664 21.7zM60.31 21.352c-1.156-.44-2.989-.924-5.255-.924-5.786 0-9.86 2.955-9.885 7.18-.048 3.116 2.917 4.847 5.135 5.887 2.266 1.062 3.037 1.755 3.037 2.701-.023 1.454-1.832 2.124-3.518 2.124-2.34 0-3.593-.345-5.498-1.154l-.771-.347-.82 4.872c1.374.6 3.906 1.131 6.534 1.155 6.148 0 10.15-2.91 10.197-7.411.024-2.47-1.542-4.364-4.918-5.91-2.049-.994-3.304-1.663-3.304-2.679.025-.924 1.062-1.87 3.375-1.87 1.905-.046 3.304.393 4.364.831l.53.23.797-4.685z" fill="#15195A"/><path fill-rule="evenodd" clip-rule="evenodd" d="M70.797 20.82h4.532l4.727 21.701H74.63s-.53-2.493-.699-3.255H66.41l-1.23 3.255h-6.147l8.702-19.9c.603-1.409 1.665-1.8 3.062-1.8zm-.36 7.942s-1.857 4.825-2.34 6.072h4.87c-.24-1.086-1.35-6.28-1.35-6.28l-.41-1.87a98.7 98.7 0 01-.59 1.59c-.114.303-.19.506-.18.488zM7.827 20.82h9.427c1.277.046 2.314.439 2.651 1.825l2.049 9.97v.002l.628 3.001 5.737-14.798h6.196l-9.21 21.678H19.11l-5.222-18.856c-1.802-1.009-3.858-1.82-6.157-2.383l.096-.439z" fill="#15195A"/></svg>