<svg width="18" height="18" viewBox="0 0 18 18" fill="none" xmlns="http://www.w3.org/2000/svg">
<rect width="18" height="18" rx="2" fill="white"/>
<rect width="18" height="18" rx="2" fill="#C19D58"/>
<path d="M9 5.31325C10.1928 5.31325 10.3554 5.31325 10.8434 5.31325C11.2771 5.31325 11.494 5.42169 11.6566 5.4759C11.8735 5.58434 12.0361 5.63855 12.1988 5.80121C12.3614 5.96386 12.4699 6.12651 12.5241 6.34337C12.5783 6.50602 12.6325 6.72289 12.6867 7.15663C12.6867 7.64458 12.6867 7.75301 12.6867 9C12.6867 10.247 12.6867 10.3554 12.6867 10.8434C12.6867 11.2771 12.5783 11.494 12.5241 11.6566C12.4157 11.8735 12.3614 12.0361 12.1988 12.1988C12.0361 12.3614 11.8735 12.4699 11.6566 12.5241C11.494 12.5783 11.2771 12.6325 10.8434 12.6867C10.3554 12.6867 10.247 12.6867 9 12.6867C7.75301 12.6867 7.64458 12.6867 7.15663 12.6867C6.72289 12.6867 6.50602 12.5783 6.34337 12.5241C6.12651 12.4157 5.96386 12.3614 5.80121 12.1988C5.63855 12.0361 5.53012 11.8735 5.4759 11.6566C5.42169 11.494 5.36747 11.2771 5.31325 10.8434C5.31325 10.3554 5.31325 10.247 5.31325 9C5.31325 7.75301 5.31325 7.64458 5.31325 7.15663C5.31325 6.72289 5.42169 6.50602 5.4759 6.34337C5.58434 6.12651 5.63855 5.96386 5.80121 5.80121C5.96386 5.63855 6.12651 5.53012 6.34337 5.4759C6.50602 5.42169 6.72289 5.36747 7.15663 5.31325C7.64458 5.31325 7.80723 5.31325 9 5.31325ZM9 4.5C7.75301 4.5 7.64458 4.5 7.15663 4.5C6.66868 4.5 6.34337 4.60843 6.07229 4.71687C5.80121 4.8253 5.53012 4.98795 5.25904 5.25904C4.98795 5.53012 4.87952 5.74699 4.71687 6.07229C4.60843 6.34337 4.55422 6.66868 4.5 7.15663C4.5 7.64458 4.5 7.80723 4.5 9C4.5 10.247 4.5 10.3554 4.5 10.8434C4.5 11.3313 4.60843 11.6566 4.71687 11.9277C4.8253 12.1988 4.98795 12.4699 5.25904 12.741C5.53012 13.012 5.74699 13.1205 6.07229 13.2831C6.34337 13.3916 6.66868 13.4458 7.15663 13.5C7.64458 13.5 7.80723 13.5 9 13.5C10.1928 13.5 10.3554 13.5 10.8434 13.5C11.3313 13.5 11.6566 13.3916 11.9277 13.2831C12.1988 13.1747 12.4699 13.012 12.741 12.741C13.012 12.4699 13.1205 12.253 13.2831 11.9277C13.3916 11.6566 13.4458 11.3313 13.5 10.8434C13.5 10.3554 13.5 10.1928 13.5 9C13.5 7.80723 13.5 7.64458 13.5 7.15663C13.5 6.66868 13.3916 6.34337 13.2831 6.07229C13.1747 5.80121 13.012 5.53012 12.741 5.25904C12.4699 4.98795 12.253 4.87952 11.9277 4.71687C11.6566 4.60843 11.3313 4.55422 10.8434 4.5C10.3554 4.5 10.247 4.5 9 4.5Z" fill="white"/>
<path d="M9 6.66867C7.6988 6.66867 6.66867 7.6988 6.66867 9C6.66867 10.3012 7.6988 11.3313 9 11.3313C10.3012 11.3313 11.3313 10.3012 11.3313 9C11.3313 7.6988 10.3012 6.66867 9 6.66867ZM9 10.5181C8.18675 10.5181 7.48193 9.86747 7.48193 9C7.48193 8.18675 8.13253 7.48193 9 7.48193C9.81325 7.48193 10.5181 8.13253 10.5181 9C10.5181 9.81325 9.81325 10.5181 9 10.5181Z" fill="white"/>
<path d="M11.3855 7.15663C11.685 7.15663 11.9277 6.91389 11.9277 6.61446C11.9277 6.31503 11.685 6.07229 11.3855 6.07229C11.0861 6.07229 10.8434 6.31503 10.8434 6.61446C10.8434 6.91389 11.0861 7.15663 11.3855 7.15663Z" fill="white"/>
</svg>
