<svg width="44" height="44" viewBox="0 0 44 44" fill="none" xmlns="http://www.w3.org/2000/svg">
<g clip-path="url(#clip0_210_5181)">
<circle cx="22" cy="22" r="22" fill="#075358"/>
<path d="M29.1373 15.3447C29.0428 15.298 28.9719 15.3213 28.9011 15.4147C28.8066 15.6016 28.6412 15.8585 28.4521 16.1388C28.2631 16.4424 28.0505 16.7227 27.7906 17.003C27.5543 17.2832 27.2944 17.5168 27.0581 17.7037C26.7982 17.8905 26.562 17.9606 26.3493 17.9139C26.1131 17.8671 25.9477 17.7037 25.9004 17.4234C25.8532 17.2365 25.8532 17.0263 25.8768 16.7928C25.9004 16.5592 25.9713 16.3256 26.0658 16.0687H26.0894H26.1131C26.1131 16.0687 26.1839 16.0687 26.3021 16.0687C26.4202 16.0687 26.5383 16.0454 26.7037 15.9986C26.8691 15.9519 27.0345 15.8819 27.1999 15.7884C27.3653 15.695 27.5307 15.5549 27.6724 15.368C27.8142 15.1578 27.9323 14.9476 27.9796 14.7141C28.0269 14.4805 28.0032 14.2936 27.8615 14.1535C27.7906 14.0834 27.6488 14.0601 27.4834 14.0601C27.318 14.0601 27.0818 14.1769 26.7746 14.4338C26.562 14.5973 26.373 14.8075 26.2076 15.0644C26.1131 15.2045 26.0422 15.3213 25.9713 15.4614C25.6405 15.8585 25.357 16.1855 25.0971 16.4658C24.8136 16.746 24.6009 16.9329 24.4591 17.003C24.4355 17.003 24.3883 17.0263 24.3883 17.0263C24.3883 17.003 24.3646 16.9796 24.341 16.9563C24.3174 16.9329 24.3174 16.8862 24.2938 16.8161C24.2938 16.7694 24.2701 16.6993 24.2701 16.6059C24.2465 16.4658 24.2465 16.3023 24.2465 16.1388C24.2465 15.9753 24.2701 15.8118 24.2938 15.6483C24.3174 15.2746 24.3174 14.9943 24.3174 14.8075C24.3174 14.5973 24.2229 14.5038 24.0811 14.4805H24.0575C23.8448 14.4805 23.6086 14.5739 23.3487 14.7841C23.0888 14.9943 22.8052 15.2746 22.5217 15.6249C22.2146 15.9753 21.9074 16.3957 21.6003 16.8628C21.2695 17.33 20.9623 17.8204 20.6315 18.3343C20.7497 17.8905 20.8914 17.4 21.0805 16.8395C21.2695 16.2789 21.4821 15.7184 21.7184 15.1111C21.9547 14.5038 22.1909 13.8966 22.4508 13.2893C22.7107 12.6821 22.9706 12.0748 23.2305 11.4909C23.4432 11.0004 23.6558 10.5333 23.8448 10.1129C24.6009 10.0895 25.3097 10.0895 26.0422 10.0895C26.0894 10.0895 26.1367 10.0895 26.1603 10.0428C26.1839 10.0194 26.2076 9.97272 26.2076 9.92601C26.2076 9.83259 26.1603 9.76251 26.0422 9.73916C25.3806 9.7158 24.719 9.73916 24.0102 9.73916C24.2229 9.29539 24.4119 8.92169 24.5773 8.5947C24.6009 8.57134 24.6482 8.57134 24.6482 8.54798C24.6718 8.52463 24.7427 8.45456 24.8136 8.36114C24.8844 8.26771 24.9553 8.19764 25.0262 8.08086C25.0971 7.98743 25.168 7.87065 25.2152 7.77723C25.2625 7.6838 25.2861 7.59038 25.2861 7.49695C25.2625 7.40353 25.2388 7.33346 25.168 7.28675C25.0971 7.24003 25.0498 7.24003 24.9789 7.26339C24.9553 7.26339 24.9317 7.28675 24.9081 7.3101C24.8844 7.33346 24.8136 7.40353 24.7663 7.49695C24.6954 7.59038 24.6009 7.75387 24.5064 7.96408C24.3883 8.17428 24.2465 8.45456 24.0575 8.82826C23.9157 9.10854 23.774 9.41217 23.6322 9.73916C22.947 9.76251 22.2382 9.80923 21.553 9.85594C21.6475 9.59902 21.6948 9.48224 21.7184 9.45889C21.742 9.41217 21.742 9.36546 21.7184 9.3421C21.6948 9.29539 21.6711 9.27203 21.6239 9.24867C21.5294 9.20196 21.4349 9.22532 21.4112 9.3421C21.3876 9.36546 21.364 9.41217 21.3404 9.50559C21.3167 9.59902 21.2458 9.7158 21.1986 9.8793C20.4189 9.92601 19.6628 9.99607 18.954 10.0661C18.2452 10.1362 17.5836 10.2296 16.993 10.2997C16.4023 10.3698 15.9061 10.4399 15.4808 10.5099C15.0555 10.58 14.7484 10.6267 14.583 10.6734C14.2522 10.7668 14.0159 10.8369 13.8742 10.9303C13.7324 11.0238 13.6615 11.1172 13.6851 11.2106C13.6851 11.2573 13.7088 11.304 13.7324 11.3507C13.756 11.3975 13.8269 11.4208 13.9214 11.4675C14.0159 11.4909 14.1104 11.5376 14.2758 11.561C14.4176 11.5843 14.6066 11.6077 14.8429 11.6077C16.3314 11.6544 17.371 12.1449 17.9617 13.0791C18.1271 13.336 18.2452 13.6397 18.3397 13.9666C18.4342 14.2936 18.4815 14.6206 18.5051 14.971C18.5287 15.3213 18.5287 15.6717 18.5051 16.022C18.4815 16.3723 18.4342 16.746 18.3633 17.0964C18.1979 17.5635 18.0325 18.0073 17.8672 18.4277C17.7254 18.8481 17.5836 19.2452 17.4655 19.5955C17.3474 19.9459 17.2528 20.2495 17.182 20.5064C17.1111 20.7633 17.0638 20.9735 17.0638 21.1137C17.0638 21.2071 17.1111 21.2772 17.2056 21.3005H17.2528C17.3237 21.3005 17.371 21.2772 17.4182 21.2071C17.4419 21.1837 17.4891 21.0436 17.6073 20.81C17.7018 20.5765 17.8199 20.2728 17.9617 19.8991C18.1034 19.5254 18.2452 19.105 18.387 18.6379C18.5287 18.1708 18.6469 17.6569 18.7414 17.1431C18.9776 16.5125 19.2375 15.8352 19.4974 15.1812C19.7573 14.5038 20.0172 13.8499 20.2771 13.2426C20.537 12.612 20.7497 12.0514 20.9623 11.5142C21.175 10.977 21.364 10.5566 21.5057 10.2063C22.1909 10.1596 22.8761 10.1362 23.5613 10.0895C23.5141 10.1829 23.4668 10.2997 23.4195 10.3931C23.1597 10.977 22.8761 11.5609 22.6162 12.1916C22.5217 12.4485 22.38 12.7521 22.2382 13.1025C22.0964 13.4528 21.931 13.8499 21.7656 14.2703C21.6003 14.6907 21.4349 15.1345 21.2695 15.5782C21.1041 16.022 20.9387 16.4658 20.7969 16.8862C20.6552 17.3066 20.537 17.727 20.4189 18.1241C20.3008 18.5211 20.2535 18.8481 20.2063 19.1517V19.1751C20.2063 19.2685 20.2535 19.3152 20.348 19.3386C20.348 19.3386 20.3716 19.362 20.3953 19.362C20.4425 19.362 20.4898 19.3386 20.5134 19.3152C20.537 19.2685 20.5843 19.2218 20.6315 19.1517C20.6552 19.105 20.7024 19.0583 20.7497 18.9883C20.7969 18.9182 20.8442 18.8481 20.8914 18.778C21.0805 18.4744 21.3167 18.1007 21.6003 17.6336C21.8838 17.1898 22.2146 16.746 22.5453 16.3256C22.758 16.0454 22.947 15.8118 23.1124 15.6249C23.2778 15.4381 23.4195 15.298 23.5377 15.1812C23.6558 15.0644 23.774 14.9943 23.8448 14.9476C23.9393 14.9009 24.0102 14.8775 24.0575 14.8542C24.0811 14.9243 24.0811 15.041 24.0811 15.2045C24.0811 15.368 24.0575 15.5082 24.0575 15.6483C24.0339 16.1154 24.0339 16.4891 24.0339 16.7694C24.0575 17.0497 24.1284 17.2599 24.2938 17.3533C24.341 17.3767 24.3883 17.4 24.4591 17.4234C24.53 17.4234 24.6009 17.4234 24.6954 17.3767C24.8136 17.3066 24.9553 17.2132 25.1207 17.073C25.2625 16.9329 25.4279 16.7928 25.5933 16.6293C25.6405 16.5592 25.7114 16.5125 25.7586 16.4424C25.735 16.5592 25.7114 16.676 25.6878 16.7928C25.6405 17.073 25.6405 17.33 25.7114 17.5635C25.8059 17.9839 26.0658 18.2175 26.4438 18.3109C26.4675 18.3109 26.5383 18.3343 26.6329 18.3343C26.8455 18.3343 27.0345 18.2642 27.2472 18.1474C27.4598 18.0306 27.6724 17.8671 27.8615 17.7037C28.0505 17.5168 28.2395 17.33 28.4049 17.0964C28.5703 16.8862 28.7357 16.676 28.8538 16.4658C28.9956 16.2556 29.0901 16.0921 29.1846 15.9286C29.2791 15.7884 29.3264 15.6717 29.35 15.6249C29.2555 15.4848 29.2318 15.3914 29.1373 15.3447ZM20.5607 11.3274C20.3953 11.7478 20.2062 12.1916 20.0172 12.6821C19.8282 13.1725 19.6156 13.6864 19.4029 14.2002C19.1903 14.714 18.9776 15.2746 18.765 15.8118C18.7886 15.298 18.7414 14.7841 18.6705 14.2936C18.576 13.8032 18.4106 13.3594 18.1743 12.939C17.5364 11.9113 16.4023 11.3507 14.7956 11.304C14.583 11.304 14.4412 11.2807 14.3231 11.2807C14.2049 11.2573 14.1341 11.2573 14.0632 11.234C14.1104 11.2106 14.1813 11.1872 14.2522 11.1639C14.3467 11.1405 14.4648 11.0938 14.6066 11.0471C14.772 11.0004 15.0791 10.9537 15.4808 10.8836C15.8825 10.8135 16.3786 10.7435 16.9221 10.6734C17.4891 10.6033 18.1271 10.5333 18.8122 10.4632C19.4974 10.3931 20.2299 10.3231 20.9859 10.2764C20.8678 10.5566 20.726 10.9303 20.5607 11.3274ZM26.9636 14.7608C27.129 14.644 27.2472 14.5506 27.3417 14.5038C27.4362 14.4571 27.5071 14.4338 27.5543 14.4338H27.5779C27.5779 14.4338 27.5779 14.4338 27.6016 14.4338H27.6252C27.6724 14.4805 27.6724 14.5739 27.6488 14.7141C27.6252 14.8542 27.5307 15.0177 27.4125 15.2045C27.318 15.3213 27.1999 15.4147 27.1054 15.4848C26.9873 15.5549 26.8691 15.6249 26.7746 15.6483C26.6565 15.695 26.562 15.7184 26.4675 15.7184C26.3729 15.7417 26.3021 15.7417 26.2548 15.7417C26.2784 15.695 26.3021 15.6483 26.3257 15.6016L26.3493 15.5782L26.373 15.5549C26.3966 15.5082 26.4202 15.4848 26.4202 15.4381C26.4911 15.3447 26.5383 15.2279 26.6092 15.1345C26.6801 15.0177 26.8219 14.8775 26.9636 14.7608Z" fill="#C5A15D"/>
<path d="M10.6355 25.185L10.6768 26.0629C10.5942 26.1854 10.4909 26.308 10.367 26.41C10.2431 26.5121 10.0778 26.5938 9.89194 26.6551C9.70605 26.7163 9.47885 26.7572 9.23099 26.7572C8.8179 26.7572 8.44612 26.6755 8.1363 26.5326C7.82648 26.3896 7.57862 26.1855 7.41338 25.8996C7.24815 25.6342 7.16553 25.2871 7.16553 24.8991C7.16553 24.5112 7.24815 24.1845 7.41338 23.9191C7.57862 23.6536 7.82648 23.429 8.1363 23.2861C8.44612 23.1432 8.8179 23.0615 9.25165 23.0615C9.52016 23.0615 9.76802 23.0819 9.99522 23.1432C10.2224 23.2044 10.3877 23.2657 10.5322 23.3474V24.2049H10.4909C10.4083 23.8782 10.2431 23.6332 10.0365 23.4903C9.82998 23.3474 9.58213 23.2657 9.31362 23.2657C9.0451 23.2657 8.79725 23.327 8.61135 23.4699C8.42546 23.5924 8.26023 23.7966 8.15695 24.0212C8.05368 24.2662 7.99171 24.552 7.99171 24.8787C7.99171 25.2054 8.03302 25.5117 8.1363 25.7363C8.23957 25.9813 8.38415 26.165 8.57005 26.308C8.75594 26.4509 8.98314 26.5121 9.23099 26.5121C9.49951 26.5121 9.70605 26.4713 9.89194 26.3896C10.0778 26.308 10.2224 26.165 10.3257 25.9609C10.429 25.7567 10.5116 25.5117 10.5735 25.1646H10.6355V25.185Z" fill="white"/>
<path d="M11.5026 23.102V23.4082H11.482C11.482 23.3266 11.4613 23.2653 11.3994 23.2245C11.3374 23.1836 11.2754 23.1632 11.2135 23.1632H11.1309V23.1224H11.5026V23.102ZM12.2462 23.102V25.3275C12.2462 25.5725 12.2875 25.7767 12.3701 25.9605C12.4528 26.1442 12.556 26.2667 12.7213 26.3688C12.8659 26.4709 13.0517 26.5117 13.2583 26.5117C13.4648 26.5117 13.6507 26.4709 13.7953 26.3688C13.9399 26.2871 14.0638 26.1442 14.1464 25.9809C14.2291 25.8175 14.2704 25.6134 14.2704 25.3888V23.102H14.6422V25.3683C14.6422 25.6542 14.5802 25.8788 14.4563 26.083C14.3323 26.2871 14.1671 26.4505 13.9399 26.5526C13.7127 26.6547 13.4442 26.7159 13.1344 26.7159C12.7626 26.7159 12.4734 26.6547 12.2256 26.5526C11.9777 26.4505 11.7918 26.2871 11.6679 26.083C11.544 25.8788 11.482 25.6338 11.482 25.3683V23.102H12.2462ZM12.5973 23.102V23.1428H12.5147C12.4321 23.1428 12.3701 23.1632 12.3288 23.204C12.2669 23.2449 12.2462 23.3061 12.2462 23.3878V23.0815H12.5973V23.102ZM14.2704 23.102V23.4082H14.2497C14.2497 23.3266 14.2291 23.2653 14.1671 23.2245C14.1051 23.1836 14.0432 23.1632 13.9812 23.1632H13.8986V23.1224H14.2704V23.102ZM14.9726 23.102V23.1428H14.89C14.8074 23.1428 14.7454 23.1632 14.7041 23.204C14.6422 23.2449 14.6215 23.3061 14.6215 23.3878V23.0815H14.9726V23.102Z" fill="white"/>
<path d="M15.6953 23.49C15.6747 23.4083 15.6334 23.3267 15.5714 23.2654C15.5094 23.2041 15.4268 23.1633 15.3442 23.1633H15.2822V23.1225H15.6953V23.49ZM15.6953 26.2872V26.6548H15.2822V26.6139H15.3442C15.4268 26.6139 15.5094 26.5731 15.5714 26.5118C15.6334 26.4506 15.6747 26.3689 15.6953 26.2872ZM16.4389 23.1021V26.6548H15.6747V23.1021H16.4389ZM16.4389 23.49V23.1225H16.852V23.1633C16.852 23.1633 16.8313 23.1633 16.79 23.1633C16.7074 23.1633 16.6248 23.2041 16.5628 23.2654C16.4802 23.3267 16.4389 23.3879 16.4389 23.49ZM17.8021 26.4302L17.926 26.6548H16.4389V26.4302H17.8021ZM18.1739 25.6134L17.9467 26.6548H16.9346L17.1205 26.4302C17.2857 26.4302 17.451 26.3893 17.5749 26.3281C17.6988 26.2668 17.8228 26.1647 17.9054 26.0422C17.988 25.9197 18.0706 25.7768 18.1326 25.6134H18.1739Z" fill="white"/>
<path d="M17.8439 23.0205C17.8852 23.0409 17.9265 23.0409 18.0091 23.0613C18.0918 23.0818 18.1537 23.0818 18.2363 23.1022C18.319 23.1022 18.4016 23.1226 18.4635 23.1226L17.8439 23.1839V23.0205ZM21.1073 23.1022V23.3064H17.8232V23.1022H21.1073ZM18.4016 23.3064C18.2363 23.3268 18.1124 23.3676 18.0298 23.4697C17.9265 23.5718 17.8852 23.6943 17.8852 23.8372V23.8985H17.8439V23.3064H18.4016ZM19.1038 26.2874V26.6549H18.6907V26.614H18.7527C18.8353 26.614 18.9179 26.5732 18.9799 26.512C19.0625 26.4507 19.0832 26.369 19.1038 26.2874ZM19.8681 23.1226V26.6549H19.1038V23.1226H19.8681ZM19.8474 26.2874C19.8681 26.369 19.9094 26.4507 19.9713 26.512C20.0333 26.5732 20.1159 26.614 20.1985 26.614H20.2605V26.6549H19.8474V26.2874ZM21.1073 23.0205V23.1634L20.4877 23.1022C20.5703 23.1022 20.6323 23.1022 20.7355 23.0818C20.8182 23.0818 20.9008 23.0613 20.9628 23.0409C21.0247 23.0409 21.0867 23.0205 21.1073 23.0205ZM21.1073 23.3064V23.8985H21.066V23.8372C21.066 23.6739 21.0247 23.5514 20.9214 23.4697C20.8182 23.3676 20.6942 23.3268 20.5497 23.3268V23.3064H21.1073Z" fill="white"/>
<path d="M21.7478 23.1024V23.4087H21.7271C21.7271 23.327 21.7065 23.2658 21.6445 23.225C21.5825 23.1841 21.5206 23.1637 21.4586 23.1637H21.376V23.1229H21.7478V23.1024ZM22.4913 23.1024V25.328C22.4913 25.573 22.5326 25.7772 22.6153 25.9609C22.6979 26.1447 22.8011 26.2672 22.9664 26.3693C23.111 26.4714 23.2969 26.5122 23.5034 26.5122C23.71 26.5122 23.8958 26.4714 24.0404 26.3693C24.185 26.2876 24.3089 26.1447 24.3916 25.9814C24.4742 25.818 24.5155 25.6138 24.5155 25.3892V23.1024H24.8873V25.3688C24.8873 25.6547 24.8253 25.8793 24.7014 26.0835C24.5775 26.2876 24.4122 26.451 24.185 26.5531C23.9578 26.6552 23.6893 26.7164 23.3795 26.7164C23.0077 26.7164 22.7185 26.6552 22.4707 26.5531C22.2228 26.451 22.0369 26.2876 21.913 26.0835C21.7891 25.8793 21.7271 25.6343 21.7271 25.3688V23.1024H22.4913ZM22.8425 23.1024V23.1433H22.7598C22.6772 23.1433 22.6153 23.1637 22.5739 23.2045C22.512 23.2454 22.4913 23.3066 22.4913 23.3883V23.082H22.8425V23.1024ZM24.5155 23.1024V23.4087H24.4948C24.4948 23.327 24.4742 23.2658 24.4122 23.225C24.3503 23.1841 24.2883 23.1637 24.2263 23.1637H24.1437V23.1229H24.5155V23.1024ZM25.2384 23.1024V23.1433H25.1558C25.0732 23.1433 25.0112 23.1637 24.9699 23.2045C24.9079 23.2454 24.8873 23.3066 24.8873 23.3883V23.082H25.2384V23.1024Z" fill="white"/>
<path d="M25.9611 23.49C25.9404 23.4083 25.8991 23.3267 25.8372 23.2654C25.7752 23.2041 25.6926 23.1633 25.61 23.1633C25.61 23.1633 25.5893 23.1633 25.5686 23.1633C25.548 23.1633 25.548 23.1633 25.5273 23.1633V23.1225H25.9404V23.49H25.9611ZM25.9611 26.2872V26.6548H25.548V26.6139C25.548 26.6139 25.5687 26.6139 25.5893 26.6139C25.61 26.6139 25.61 26.6139 25.6306 26.6139C25.7132 26.6139 25.7959 26.5731 25.8578 26.5118C25.8991 26.4506 25.9404 26.3689 25.9611 26.2872ZM26.7047 23.1021V26.6548H25.9404V23.1021H26.7047ZM27.3036 23.1021C27.4482 23.1021 27.6135 23.1225 27.758 23.1429C27.9026 23.1837 28.0266 23.2246 28.1505 23.3062C28.2744 23.3879 28.357 23.4696 28.419 23.5921C28.481 23.7146 28.5223 23.8575 28.5223 24.0413C28.5223 24.1842 28.5016 24.3271 28.4397 24.47C28.3777 24.613 28.2951 24.7355 28.1711 24.8376C28.0472 24.9397 27.882 25.0009 27.6961 25.0213C27.7994 25.0622 27.9026 25.1234 28.0059 25.2051C28.0885 25.2868 28.1711 25.3889 28.2331 25.4705C28.2331 25.4705 28.2538 25.5114 28.2951 25.5522C28.3364 25.6134 28.3777 25.6747 28.419 25.7564C28.481 25.838 28.5223 25.9197 28.5842 26.0014C28.6462 26.0831 28.6875 26.1443 28.7495 26.2056C28.8321 26.2872 28.8941 26.3689 28.956 26.4302C29.018 26.4914 29.0799 26.5323 29.1419 26.5527C29.2039 26.5731 29.2865 26.5935 29.3691 26.5935V26.6343H28.8734C28.6875 26.6343 28.5223 26.6139 28.3777 26.5935C28.2331 26.5527 28.0885 26.5118 27.9852 26.4302C27.8613 26.3485 27.7787 26.2464 27.6754 26.1239C27.6548 26.0831 27.6135 26.0218 27.5928 25.9605C27.5515 25.8993 27.5308 25.838 27.4895 25.7564C27.4482 25.6747 27.4276 25.6134 27.3863 25.5522C27.345 25.4909 27.3243 25.4297 27.3036 25.3684C27.283 25.3072 27.2623 25.2663 27.2623 25.2459C27.221 25.1438 27.1591 25.0622 27.0971 25.0009C27.0351 24.9397 26.9732 24.9192 26.9112 24.8988V24.8784C26.9112 24.8784 26.9319 24.8784 26.9732 24.8784C26.9938 24.8784 27.0351 24.8784 27.0764 24.8784C27.1591 24.8784 27.2623 24.858 27.345 24.8172C27.4276 24.7763 27.5102 24.7151 27.5722 24.6334C27.6341 24.5517 27.6961 24.4292 27.7167 24.2863C27.7167 24.2659 27.7374 24.225 27.7374 24.1842C27.7374 24.1434 27.7374 24.1025 27.7374 24.0413C27.7374 23.7963 27.6754 23.6125 27.5515 23.5104C27.4482 23.3879 27.3036 23.3471 27.1384 23.3266C27.0971 23.3266 27.0351 23.3266 26.9732 23.3266C26.9112 23.3266 26.8699 23.3266 26.8286 23.3266C26.7873 23.3266 26.746 23.3266 26.7253 23.3266C26.7253 23.3266 26.7253 23.3062 26.7047 23.2654C26.7047 23.2246 26.684 23.1837 26.6634 23.1021H27.3036ZM26.684 26.2872C26.7047 26.3689 26.7253 26.4506 26.7873 26.5118C26.8492 26.5731 26.9319 26.6139 27.0145 26.6139C27.0145 26.6139 27.0351 26.6139 27.0764 26.6139V26.6548H26.6634V26.2872H26.684Z" fill="white"/>
<path d="M29.8026 26.2873C29.7819 26.3485 29.7612 26.4098 29.7819 26.4506C29.8026 26.4915 29.8232 26.5323 29.8645 26.5527C29.9058 26.5731 29.9471 26.5935 29.9884 26.5935H30.0298V26.6344H28.9351V26.5935H28.9764C29.059 26.5935 29.1416 26.5731 29.2242 26.5119C29.3068 26.471 29.3688 26.3894 29.4308 26.2669H29.8026V26.2873ZM30.8973 23L30.9179 23.6125L29.6373 26.6344H29.2655L30.5874 23.6738C30.5874 23.6534 30.6081 23.6125 30.6494 23.5513C30.67 23.49 30.7114 23.4288 30.732 23.3675C30.7527 23.3063 30.794 23.2246 30.8146 23.1633C30.8353 23.1021 30.8559 23.0408 30.8559 23H30.8973ZM31.4343 25.4501V25.6543H29.9265V25.4501H31.4343ZM30.8973 23L32.5703 26.614H31.6408L30.5668 23.9801L30.8973 23ZM31.5169 26.2873H32.405C32.467 26.4098 32.529 26.4915 32.6116 26.5323C32.6942 26.5731 32.7768 26.614 32.8594 26.614H32.9008V26.6548H31.269V26.614H31.3103C31.3723 26.614 31.4343 26.5935 31.4962 26.5323C31.5375 26.471 31.5582 26.3894 31.5169 26.2873Z" fill="white"/>
<path d="M33.376 23.49C33.3553 23.4083 33.314 23.3267 33.2521 23.2654C33.1901 23.2041 33.1075 23.1633 33.0249 23.1633H32.9629V23.1225H33.376V23.49ZM33.376 26.2872V26.6548H32.9629V26.6139H33.0249C33.1075 26.6139 33.1901 26.5731 33.2521 26.5118C33.3347 26.4506 33.3553 26.3689 33.376 26.2872ZM34.1402 23.1021V26.6548H33.376V23.1021H34.1402ZM34.1196 23.49V23.1225H34.5326V23.1633C34.5326 23.1633 34.512 23.1633 34.4707 23.1633C34.3881 23.1633 34.3054 23.2041 34.2435 23.2654C34.1815 23.3267 34.1402 23.3879 34.1196 23.49ZM35.4828 26.4302L35.6067 26.6548H34.1196V26.4302H35.4828ZM35.8545 25.6134L35.6273 26.6548H34.6153L34.8012 26.4302C34.9664 26.4302 35.1316 26.3893 35.2556 26.3281C35.3795 26.2668 35.5034 26.1647 35.586 26.0422C35.6686 25.9197 35.7513 25.7768 35.8132 25.6134H35.8545Z" fill="white"/>
<path d="M7 27.7368C7.04131 27.7572 7.08262 27.7572 7.16524 27.7777C7.2272 27.7981 7.30982 27.7981 7.39244 27.8185C7.47506 27.8185 7.55768 27.8389 7.61964 27.8389L7 27.9002V27.7368ZM10.2841 27.8185V28.0227H7V27.8185H10.2841ZM7.57833 28.0227C7.41309 28.0431 7.28917 28.0839 7.20655 28.186C7.10327 28.2881 7.06196 28.4106 7.06196 28.5535V28.6148H7.02066V28.0227H7.57833ZM8.28059 31.0037V31.3712H7.8675V31.3304H7.92946C8.01208 31.3304 8.0947 31.2895 8.15666 31.2283C8.21863 31.167 8.25994 31.1058 8.28059 31.0037ZM9.02416 27.8389V31.3712H8.25994V27.8389H9.02416ZM9.02416 31.0037C9.04481 31.0853 9.08612 31.167 9.14809 31.2283C9.21005 31.2895 9.29267 31.3304 9.37529 31.3304H9.43725V31.3712H9.02416V31.0037ZM10.2841 27.7368V27.8797L9.66445 27.8185C9.74707 27.8185 9.80904 27.8185 9.91231 27.7981C9.99493 27.7981 10.0775 27.7777 10.1395 27.7572C10.2015 27.7572 10.2634 27.7572 10.2841 27.7368ZM10.2841 28.0227V28.6148H10.2428V28.5535C10.2428 28.3902 10.2015 28.2677 10.0982 28.186C9.99493 28.0839 9.871 28.0431 9.72642 28.0431V28.0227H10.2841Z" fill="white"/>
<path d="M10.9865 28.2063C10.9658 28.1246 10.9245 28.043 10.8626 27.9817C10.8006 27.9205 10.718 27.8796 10.6354 27.8796C10.6354 27.8796 10.6147 27.8796 10.594 27.8796C10.5734 27.8796 10.5734 27.8796 10.5527 27.8796V27.8388H10.9658V28.2063H10.9865ZM10.9865 31.0035V31.3711H10.5734V31.3302C10.5734 31.3302 10.594 31.3302 10.6147 31.3302C10.6354 31.3302 10.6354 31.3302 10.656 31.3302C10.7386 31.3302 10.8212 31.2894 10.8832 31.2281C10.9452 31.1669 10.9658 31.1056 10.9865 31.0035ZM11.7507 27.8388V31.3915H10.9865V27.8388H11.7507ZM12.3497 27.8388C12.4943 27.8388 12.6595 27.8592 12.8041 27.8796C12.9487 27.9205 13.0726 27.9613 13.1965 28.043C13.3205 28.1246 13.4031 28.2063 13.465 28.3288C13.527 28.4513 13.5683 28.5942 13.5683 28.778C13.5683 28.9209 13.5477 29.0639 13.4857 29.2068C13.4237 29.3497 13.3411 29.4722 13.2172 29.5743C13.0933 29.6764 12.928 29.7376 12.7421 29.7581C12.8454 29.7989 12.9487 29.8601 13.0519 29.9418C13.1346 30.0235 13.2172 30.1256 13.2792 30.2072C13.2792 30.2072 13.2998 30.2481 13.3411 30.2889C13.3824 30.3502 13.4237 30.4114 13.465 30.4931C13.527 30.5748 13.5683 30.6564 13.6303 30.7381C13.6922 30.8198 13.7336 30.881 13.7955 30.9423C13.8781 31.024 13.9401 31.1056 14.0021 31.1669C14.064 31.2281 14.126 31.269 14.188 31.2894C14.2499 31.3098 14.3325 31.3302 14.4152 31.3302V31.3711H13.9194C13.7336 31.3711 13.5683 31.3506 13.4237 31.3302C13.2791 31.2894 13.1346 31.2486 13.0313 31.1669C12.9074 31.0852 12.8247 30.9831 12.7215 30.8606C12.7008 30.8198 12.6595 30.7585 12.6389 30.6973C12.5975 30.636 12.5769 30.5748 12.5356 30.4931C12.4943 30.4318 12.4736 30.3502 12.4323 30.2889C12.391 30.2277 12.3703 30.1664 12.3497 30.1052C12.329 30.0439 12.3084 30.0031 12.3084 29.9827C12.2671 29.8806 12.2051 29.7989 12.1431 29.7376C12.0812 29.6764 12.0192 29.656 11.9572 29.6355V29.5947C11.9572 29.5947 11.9779 29.5947 12.0192 29.5947C12.0399 29.5947 12.0812 29.5947 12.1225 29.5947C12.2051 29.5947 12.3084 29.5743 12.391 29.5335C12.4736 29.4926 12.5562 29.4314 12.6182 29.3497C12.6802 29.268 12.7421 29.1455 12.7628 29.0026C12.7628 28.9822 12.7834 28.9413 12.7834 28.9005C12.7834 28.8597 12.7834 28.8188 12.7834 28.7576C12.7834 28.5126 12.7215 28.3288 12.5975 28.2267C12.4943 28.1042 12.3497 28.0634 12.1845 28.043C12.1431 28.043 12.0812 28.043 12.0192 28.043C11.9572 28.043 11.9159 28.043 11.8746 28.043C11.8333 28.043 11.792 28.043 11.7714 28.043C11.7714 28.043 11.7714 28.0225 11.7507 27.9817C11.7507 27.9409 11.73 27.9 11.7094 27.8184H12.3497V27.8388ZM11.73 31.0035C11.7507 31.0852 11.7714 31.1669 11.8333 31.2281C11.8953 31.2894 11.9779 31.3302 12.0605 31.3302C12.0605 31.3302 12.0812 31.3302 12.1225 31.3302V31.3711H11.7094V31.0035H11.73Z" fill="white"/>
<path d="M14.8279 31.0037C14.8073 31.0649 14.7866 31.1262 14.8073 31.167C14.8279 31.2078 14.8486 31.2487 14.8899 31.2691C14.9312 31.2895 14.9725 31.3099 15.0138 31.3099H15.0551V31.3508H13.9604V31.3099H14.0018C14.0844 31.3099 14.167 31.2895 14.2496 31.2283C14.3322 31.1874 14.3942 31.1058 14.4562 30.9833H14.8279V31.0037ZM15.9226 27.7368L15.9433 28.3494L14.6627 31.3712H14.2909L15.6128 28.4106C15.6128 28.3902 15.6335 28.3494 15.6748 28.2881C15.6954 28.2268 15.7368 28.1656 15.7574 28.1043C15.7781 28.0431 15.8194 27.9614 15.84 27.9002C15.8607 27.8389 15.8813 27.7777 15.8813 27.7368H15.9226ZM16.4803 30.1665V30.3707H14.9725V30.1665H16.4803ZM15.9226 27.7368L17.5957 31.3508H16.6662L15.5922 28.7169L15.9226 27.7368ZM16.5423 31.0037H17.4304C17.4924 31.1262 17.5544 31.2079 17.637 31.2487C17.7196 31.2895 17.8022 31.3304 17.8848 31.3304H17.9261V31.3712H16.3151V31.3304H16.3564C16.4184 31.3304 16.4803 31.3099 16.5423 31.2487C16.5836 31.1874 16.5836 31.1058 16.5423 31.0037Z" fill="white"/>
<path d="M18.4219 28.2064C18.4012 28.1247 18.3806 28.043 18.3186 27.9818C18.2566 27.9205 18.174 27.8797 18.0914 27.8797H18.0294V27.8389H18.4425V28.2064H18.4219ZM18.4219 31.0036V31.3712H18.0088V31.3303H18.0708C18.1534 31.3303 18.236 31.2895 18.298 31.2282C18.3599 31.167 18.4012 31.1057 18.4219 31.0036ZM19.1655 27.8389V31.3916H18.4012V27.8389H19.1655ZM19.8677 27.8389C20.2808 27.8389 20.6113 27.9205 20.9211 28.0635C21.2103 28.2064 21.4375 28.4106 21.6027 28.676C21.7679 28.9414 21.8506 29.2477 21.8506 29.6152C21.8506 29.9827 21.7679 30.289 21.6027 30.5544C21.4375 30.8199 21.2103 31.024 20.9211 31.167C20.6319 31.3099 20.2808 31.3916 19.8677 31.3916H18.6491V31.1874C18.7524 31.1874 18.8556 31.1874 18.9589 31.1874C19.0622 31.1874 19.1655 31.1874 19.2687 31.1874C19.372 31.1874 19.4546 31.1874 19.5372 31.1874C19.6199 31.1874 19.7025 31.1874 19.8057 31.1874C20.0536 31.1874 20.2601 31.1261 20.446 31.0036C20.6319 30.8811 20.7559 30.6974 20.8591 30.4728C20.9624 30.2482 21.0037 29.9623 21.0037 29.6356C21.0037 29.3089 20.9624 29.0435 20.8591 28.7985C20.7559 28.5739 20.6319 28.3902 20.446 28.2676C20.2601 28.1451 20.0536 28.0839 19.8057 28.0839C19.7025 28.0839 19.6199 28.0839 19.5372 28.0839C19.4546 28.0839 19.3513 28.0839 19.2481 28.0839C19.1448 28.0839 19.0415 28.0839 18.9176 28.0839C18.8143 28.0839 18.6904 28.0839 18.5871 28.0839V27.8797H19.8677V27.8389Z" fill="white"/>
<path d="M22.5532 28.2064C22.5326 28.1247 22.4913 28.043 22.4293 27.9818C22.3673 27.9205 22.2847 27.8797 22.2021 27.8797H22.1401V27.8389H22.5532V28.2064ZM22.5532 31.0036V31.3712H22.1401V31.3303H22.2021C22.2847 31.3303 22.3673 31.2895 22.4293 31.2282C22.5119 31.167 22.5326 31.1057 22.5532 31.0036ZM23.3175 27.8389V31.3916H22.5532V27.8389H23.3175ZM23.2968 28.2064V27.8389H23.7099V27.8797C23.7099 27.8797 23.6892 27.8797 23.6479 27.8797C23.5653 27.8797 23.4827 27.9205 23.4207 27.9818C23.3588 28.043 23.3175 28.1247 23.2968 28.2064ZM23.2968 31.0036C23.3175 31.0853 23.3588 31.167 23.4207 31.2282C23.4827 31.2895 23.5653 31.3303 23.6479 31.3303C23.6892 31.3303 23.7099 31.3303 23.7099 31.3303V31.3712H23.2968V31.0036Z" fill="white"/>
<path d="M23.978 27.7368C24.0193 27.7572 24.0606 27.7572 24.1433 27.7777C24.2052 27.7981 24.2878 27.7981 24.3705 27.8185C24.4531 27.8185 24.5357 27.8389 24.5977 27.8389L23.978 27.9002V27.7368ZM27.2621 27.8185V28.0227H23.978V27.8185H27.2621ZM24.5564 28.0227C24.3911 28.0431 24.2672 28.0839 24.1846 28.186C24.0813 28.2881 24.04 28.4106 24.04 28.5535V28.6148H23.9987V28.0227H24.5564ZM25.2586 31.0037V31.3712H24.8455V31.3304H24.9075C24.9901 31.3304 25.0727 31.2895 25.1347 31.2283C25.1967 31.167 25.238 31.1058 25.2586 31.0037ZM26.0022 27.8389V31.3712H25.238V27.8389H26.0022ZM26.0022 31.0037C26.0228 31.0853 26.0641 31.167 26.1261 31.2283C26.1881 31.2895 26.2707 31.3304 26.3533 31.3304H26.4153V31.3712H26.0022V31.0037ZM27.2621 27.7368V27.8797L26.6425 27.8185C26.7251 27.8185 26.7871 27.8185 26.8903 27.7981C26.973 27.7981 27.0556 27.7777 27.1175 27.7572C27.1795 27.7572 27.2415 27.7572 27.2621 27.7368ZM27.2621 28.0227V28.6148H27.2208V28.5535C27.2208 28.3902 27.1795 28.2677 27.0762 28.186C26.973 28.0839 26.849 28.0431 26.7044 28.0431V28.0227H27.2621Z" fill="white"/>
<path d="M27.9644 28.2064C27.9437 28.1247 27.9024 28.043 27.8404 27.9818C27.7785 27.9205 27.6959 27.8797 27.6132 27.8797H27.5513V27.8389H27.9644V28.2064ZM27.9644 31.0036V31.3712H27.5513V31.3303H27.6132C27.6959 31.3303 27.7785 31.2895 27.8404 31.2282C27.9024 31.167 27.9437 31.1057 27.9644 31.0036ZM28.7079 27.8389V31.3916H27.9437V27.8389H28.7079ZM28.6873 28.2064V27.8389H29.1004V27.8797C29.1004 27.8797 29.0797 27.8797 29.0384 27.8797C28.9558 27.8797 28.8732 27.9205 28.8112 27.9818C28.7492 28.043 28.7079 28.1247 28.6873 28.2064ZM28.6873 31.0036C28.7079 31.0853 28.7492 31.167 28.8112 31.2282C28.8732 31.2895 28.9558 31.3303 29.0384 31.3303C29.0797 31.3303 29.1004 31.3303 29.1004 31.3303V31.3712H28.6873V31.0036Z" fill="white"/>
<path d="M31.4758 27.7573C31.8889 27.7573 32.24 27.839 32.5499 27.9819C32.8597 28.1248 33.0869 28.3494 33.2521 28.6149C33.4174 28.8803 33.5 29.207 33.5 29.5949C33.5 29.9829 33.4174 30.3096 33.2521 30.575C33.0869 30.8404 32.8597 31.065 32.5499 31.2079C32.24 31.3509 31.8889 31.4325 31.4758 31.4325C31.0627 31.4325 30.7116 31.3509 30.4018 31.2079C30.092 31.065 29.8647 30.8404 29.6995 30.575C29.5343 30.3096 29.4517 29.9829 29.4517 29.5949C29.4517 29.207 29.5343 28.8803 29.6995 28.6149C29.8647 28.3494 30.092 28.1248 30.4018 27.9819C30.7116 27.839 31.0627 27.7573 31.4758 27.7573ZM31.4758 31.2284C31.7237 31.2284 31.9302 31.1671 32.0955 31.0242C32.2607 30.8813 32.4053 30.6975 32.5085 30.4525C32.6118 30.2075 32.6531 29.9216 32.6531 29.5949C32.6531 29.2682 32.6118 28.962 32.5085 28.7374C32.4053 28.4924 32.2813 28.3086 32.0955 28.1657C31.9302 28.0228 31.703 27.9615 31.4758 27.9615C31.228 27.9615 31.0214 28.0228 30.8562 28.1657C30.6703 28.3086 30.5464 28.4924 30.4431 28.7374C30.3398 28.9824 30.2985 29.2682 30.2985 29.5949C30.2985 29.9216 30.3398 30.2279 30.4431 30.4525C30.5464 30.6975 30.6703 30.8813 30.8562 31.0242C31.0421 31.1671 31.2486 31.2284 31.4758 31.2284Z" fill="white"/>
<path d="M34.2023 31.0242V31.3917H33.7686V31.3509C33.8305 31.3509 33.8718 31.3509 33.8718 31.3509C33.9544 31.3509 34.0371 31.3304 34.099 31.2692C34.161 31.2079 34.1816 31.1059 34.2023 31.0242ZM34.161 27.7573L34.9046 28.5332V31.3713H34.1816V28.3903C34.1816 28.2065 34.161 27.9819 34.1197 27.7573H34.161ZM34.161 27.7573L37.4244 30.8404L37.4864 31.453L34.223 28.3699L34.161 27.7573ZM34.9046 31.0242C34.9046 31.1059 34.9252 31.1875 34.9872 31.2488C35.0491 31.31 35.1318 31.3304 35.2144 31.3304C35.2144 31.3304 35.2557 31.3304 35.3177 31.3304V31.3713H34.9046V31.0242ZM36.3504 27.839H36.7841V28.2065C36.7841 28.1248 36.7428 28.0432 36.6809 27.9819C36.6189 27.9207 36.5569 27.9002 36.4537 27.9002C36.3917 27.9002 36.3504 27.9002 36.3504 27.9002V27.839ZM37.4864 27.839V30.7996C37.4864 30.9221 37.4864 31.0446 37.5071 31.1263C37.5071 31.2284 37.5277 31.3304 37.5484 31.4325H37.5071L36.7635 30.6158V27.8186H37.4864V27.839ZM37.8995 27.839V27.8798H37.7962C37.7136 27.8798 37.631 27.9002 37.569 27.9615C37.507 28.0228 37.4657 28.084 37.4657 28.1861H37.4451V27.8186H37.8995V27.839Z" fill="white"/>
<path d="M10.6355 25.185L10.6768 26.0629C10.5942 26.1854 10.4909 26.308 10.367 26.41C10.2431 26.5121 10.0778 26.5938 9.89194 26.6551C9.70605 26.7163 9.47885 26.7572 9.23099 26.7572C8.8179 26.7572 8.44612 26.6755 8.1363 26.5326C7.82648 26.3896 7.57862 26.1855 7.41338 25.8996C7.24815 25.6342 7.16553 25.2871 7.16553 24.8991C7.16553 24.5112 7.24815 24.1845 7.41338 23.9191C7.57862 23.6536 7.82648 23.429 8.1363 23.2861C8.44612 23.1432 8.8179 23.0615 9.25165 23.0615C9.52016 23.0615 9.76802 23.0819 9.99522 23.1432C10.2224 23.2044 10.3877 23.2657 10.5322 23.3474V24.2049H10.4909C10.4083 23.8782 10.2431 23.6332 10.0365 23.4903C9.82998 23.3474 9.58213 23.2657 9.31362 23.2657C9.0451 23.2657 8.79725 23.327 8.61135 23.4699C8.42546 23.5924 8.26023 23.7966 8.15695 24.0212C8.05368 24.2662 7.99171 24.552 7.99171 24.8787C7.99171 25.2054 8.03302 25.5117 8.1363 25.7363C8.23957 25.9813 8.38415 26.165 8.57005 26.308C8.75594 26.4509 8.98314 26.5121 9.23099 26.5121C9.49951 26.5121 9.70605 26.4713 9.89194 26.3896C10.0778 26.308 10.2224 26.165 10.3257 25.9609C10.429 25.7567 10.5116 25.5117 10.5735 25.1646H10.6355V25.185Z" fill="white"/>
<path d="M11.5026 23.102V23.4082H11.482C11.482 23.3266 11.4613 23.2653 11.3994 23.2245C11.3374 23.1836 11.2754 23.1632 11.2135 23.1632H11.1309V23.1224H11.5026V23.102ZM12.2462 23.102V25.3275C12.2462 25.5725 12.2875 25.7767 12.3701 25.9605C12.4528 26.1442 12.556 26.2667 12.7213 26.3688C12.8659 26.4709 13.0517 26.5117 13.2583 26.5117C13.4648 26.5117 13.6507 26.4709 13.7953 26.3688C13.9399 26.2871 14.0638 26.1442 14.1464 25.9809C14.2291 25.8175 14.2704 25.6134 14.2704 25.3888V23.102H14.6422V25.3683C14.6422 25.6542 14.5802 25.8788 14.4563 26.083C14.3323 26.2871 14.1671 26.4505 13.9399 26.5526C13.7127 26.6547 13.4442 26.7159 13.1344 26.7159C12.7626 26.7159 12.4734 26.6547 12.2256 26.5526C11.9777 26.4505 11.7918 26.2871 11.6679 26.083C11.544 25.8788 11.482 25.6338 11.482 25.3683V23.102H12.2462ZM12.5973 23.102V23.1428H12.5147C12.4321 23.1428 12.3701 23.1632 12.3288 23.204C12.2669 23.2449 12.2462 23.3061 12.2462 23.3878V23.0815H12.5973V23.102ZM14.2704 23.102V23.4082H14.2497C14.2497 23.3266 14.2291 23.2653 14.1671 23.2245C14.1051 23.1836 14.0432 23.1632 13.9812 23.1632H13.8986V23.1224H14.2704V23.102ZM14.9726 23.102V23.1428H14.89C14.8074 23.1428 14.7454 23.1632 14.7041 23.204C14.6422 23.2449 14.6215 23.3061 14.6215 23.3878V23.0815H14.9726V23.102Z" fill="white"/>
<path d="M15.6953 23.49C15.6747 23.4083 15.6334 23.3267 15.5714 23.2654C15.5094 23.2041 15.4268 23.1633 15.3442 23.1633H15.2822V23.1225H15.6953V23.49ZM15.6953 26.2872V26.6548H15.2822V26.6139H15.3442C15.4268 26.6139 15.5094 26.5731 15.5714 26.5118C15.6334 26.4506 15.6747 26.3689 15.6953 26.2872ZM16.4389 23.1021V26.6548H15.6747V23.1021H16.4389ZM16.4389 23.49V23.1225H16.852V23.1633C16.852 23.1633 16.8313 23.1633 16.79 23.1633C16.7074 23.1633 16.6248 23.2041 16.5628 23.2654C16.4802 23.3267 16.4389 23.3879 16.4389 23.49ZM17.8021 26.4302L17.926 26.6548H16.4389V26.4302H17.8021ZM18.1739 25.6134L17.9467 26.6548H16.9346L17.1205 26.4302C17.2857 26.4302 17.451 26.3893 17.5749 26.3281C17.6988 26.2668 17.8228 26.1647 17.9054 26.0422C17.988 25.9197 18.0706 25.7768 18.1326 25.6134H18.1739Z" fill="white"/>
<path d="M17.8439 23.0205C17.8852 23.0409 17.9265 23.0409 18.0091 23.0613C18.0918 23.0818 18.1537 23.0818 18.2363 23.1022C18.319 23.1022 18.4016 23.1226 18.4635 23.1226L17.8439 23.1839V23.0205ZM21.1073 23.1022V23.3064H17.8232V23.1022H21.1073ZM18.4016 23.3064C18.2363 23.3268 18.1124 23.3676 18.0298 23.4697C17.9265 23.5718 17.8852 23.6943 17.8852 23.8372V23.8985H17.8439V23.3064H18.4016ZM19.1038 26.2874V26.6549H18.6907V26.614H18.7527C18.8353 26.614 18.9179 26.5732 18.9799 26.512C19.0625 26.4507 19.0832 26.369 19.1038 26.2874ZM19.8681 23.1226V26.6549H19.1038V23.1226H19.8681ZM19.8474 26.2874C19.8681 26.369 19.9094 26.4507 19.9713 26.512C20.0333 26.5732 20.1159 26.614 20.1985 26.614H20.2605V26.6549H19.8474V26.2874ZM21.1073 23.0205V23.1634L20.4877 23.1022C20.5703 23.1022 20.6323 23.1022 20.7355 23.0818C20.8182 23.0818 20.9008 23.0613 20.9628 23.0409C21.0247 23.0409 21.0867 23.0205 21.1073 23.0205ZM21.1073 23.3064V23.8985H21.066V23.8372C21.066 23.6739 21.0247 23.5514 20.9214 23.4697C20.8182 23.3676 20.6942 23.3268 20.5497 23.3268V23.3064H21.1073Z" fill="white"/>
<path d="M21.7478 23.1024V23.4087H21.7271C21.7271 23.327 21.7065 23.2658 21.6445 23.225C21.5825 23.1841 21.5206 23.1637 21.4586 23.1637H21.376V23.1229H21.7478V23.1024ZM22.4913 23.1024V25.328C22.4913 25.573 22.5326 25.7772 22.6153 25.9609C22.6979 26.1447 22.8011 26.2672 22.9664 26.3693C23.111 26.4714 23.2969 26.5122 23.5034 26.5122C23.71 26.5122 23.8958 26.4714 24.0404 26.3693C24.185 26.2876 24.3089 26.1447 24.3916 25.9814C24.4742 25.818 24.5155 25.6138 24.5155 25.3892V23.1024H24.8873V25.3688C24.8873 25.6547 24.8253 25.8793 24.7014 26.0835C24.5775 26.2876 24.4122 26.451 24.185 26.5531C23.9578 26.6552 23.6893 26.7164 23.3795 26.7164C23.0077 26.7164 22.7185 26.6552 22.4707 26.5531C22.2228 26.451 22.0369 26.2876 21.913 26.0835C21.7891 25.8793 21.7271 25.6343 21.7271 25.3688V23.1024H22.4913ZM22.8425 23.1024V23.1433H22.7598C22.6772 23.1433 22.6153 23.1637 22.5739 23.2045C22.512 23.2454 22.4913 23.3066 22.4913 23.3883V23.082H22.8425V23.1024ZM24.5155 23.1024V23.4087H24.4948C24.4948 23.327 24.4742 23.2658 24.4122 23.225C24.3503 23.1841 24.2883 23.1637 24.2263 23.1637H24.1437V23.1229H24.5155V23.1024ZM25.2384 23.1024V23.1433H25.1558C25.0732 23.1433 25.0112 23.1637 24.9699 23.2045C24.9079 23.2454 24.8873 23.3066 24.8873 23.3883V23.082H25.2384V23.1024Z" fill="white"/>
<path d="M25.9611 23.49C25.9404 23.4083 25.8991 23.3267 25.8372 23.2654C25.7752 23.2041 25.6926 23.1633 25.61 23.1633C25.61 23.1633 25.5893 23.1633 25.5686 23.1633C25.548 23.1633 25.548 23.1633 25.5273 23.1633V23.1225H25.9404V23.49H25.9611ZM25.9611 26.2872V26.6548H25.548V26.6139C25.548 26.6139 25.5687 26.6139 25.5893 26.6139C25.61 26.6139 25.61 26.6139 25.6306 26.6139C25.7132 26.6139 25.7959 26.5731 25.8578 26.5118C25.8991 26.4506 25.9404 26.3689 25.9611 26.2872ZM26.7047 23.1021V26.6548H25.9404V23.1021H26.7047ZM27.3036 23.1021C27.4482 23.1021 27.6135 23.1225 27.758 23.1429C27.9026 23.1837 28.0266 23.2246 28.1505 23.3062C28.2744 23.3879 28.357 23.4696 28.419 23.5921C28.481 23.7146 28.5223 23.8575 28.5223 24.0413C28.5223 24.1842 28.5016 24.3271 28.4397 24.47C28.3777 24.613 28.2951 24.7355 28.1711 24.8376C28.0472 24.9397 27.882 25.0009 27.6961 25.0213C27.7994 25.0622 27.9026 25.1234 28.0059 25.2051C28.0885 25.2868 28.1711 25.3889 28.2331 25.4705C28.2331 25.4705 28.2538 25.5114 28.2951 25.5522C28.3364 25.6134 28.3777 25.6747 28.419 25.7564C28.481 25.838 28.5223 25.9197 28.5842 26.0014C28.6462 26.0831 28.6875 26.1443 28.7495 26.2056C28.8321 26.2872 28.8941 26.3689 28.956 26.4302C29.018 26.4914 29.0799 26.5323 29.1419 26.5527C29.2039 26.5731 29.2865 26.5935 29.3691 26.5935V26.6343H28.8734C28.6875 26.6343 28.5223 26.6139 28.3777 26.5935C28.2331 26.5527 28.0885 26.5118 27.9852 26.4302C27.8613 26.3485 27.7787 26.2464 27.6754 26.1239C27.6548 26.0831 27.6135 26.0218 27.5928 25.9605C27.5515 25.8993 27.5308 25.838 27.4895 25.7564C27.4482 25.6747 27.4276 25.6134 27.3863 25.5522C27.345 25.4909 27.3243 25.4297 27.3036 25.3684C27.283 25.3072 27.2623 25.2663 27.2623 25.2459C27.221 25.1438 27.1591 25.0622 27.0971 25.0009C27.0351 24.9397 26.9732 24.9192 26.9112 24.8988V24.8784C26.9112 24.8784 26.9319 24.8784 26.9732 24.8784C26.9938 24.8784 27.0351 24.8784 27.0764 24.8784C27.1591 24.8784 27.2623 24.858 27.345 24.8172C27.4276 24.7763 27.5102 24.7151 27.5722 24.6334C27.6341 24.5517 27.6961 24.4292 27.7167 24.2863C27.7167 24.2659 27.7374 24.225 27.7374 24.1842C27.7374 24.1434 27.7374 24.1025 27.7374 24.0413C27.7374 23.7963 27.6754 23.6125 27.5515 23.5104C27.4482 23.3879 27.3036 23.3471 27.1384 23.3266C27.0971 23.3266 27.0351 23.3266 26.9732 23.3266C26.9112 23.3266 26.8699 23.3266 26.8286 23.3266C26.7873 23.3266 26.746 23.3266 26.7253 23.3266C26.7253 23.3266 26.7253 23.3062 26.7047 23.2654C26.7047 23.2246 26.684 23.1837 26.6634 23.1021H27.3036ZM26.684 26.2872C26.7047 26.3689 26.7253 26.4506 26.7873 26.5118C26.8492 26.5731 26.9319 26.6139 27.0145 26.6139C27.0145 26.6139 27.0351 26.6139 27.0764 26.6139V26.6548H26.6634V26.2872H26.684Z" fill="white"/>
<path d="M29.8026 26.2873C29.7819 26.3485 29.7612 26.4098 29.7819 26.4506C29.8026 26.4915 29.8232 26.5323 29.8645 26.5527C29.9058 26.5731 29.9471 26.5935 29.9884 26.5935H30.0298V26.6344H28.9351V26.5935H28.9764C29.059 26.5935 29.1416 26.5731 29.2242 26.5119C29.3068 26.471 29.3688 26.3894 29.4308 26.2669H29.8026V26.2873ZM30.8973 23L30.9179 23.6125L29.6373 26.6344H29.2655L30.5874 23.6738C30.5874 23.6534 30.6081 23.6125 30.6494 23.5513C30.67 23.49 30.7114 23.4288 30.732 23.3675C30.7527 23.3063 30.794 23.2246 30.8146 23.1633C30.8353 23.1021 30.8559 23.0408 30.8559 23H30.8973ZM31.4343 25.4501V25.6543H29.9265V25.4501H31.4343ZM30.8973 23L32.5703 26.614H31.6408L30.5668 23.9801L30.8973 23ZM31.5169 26.2873H32.405C32.467 26.4098 32.529 26.4915 32.6116 26.5323C32.6942 26.5731 32.7768 26.614 32.8594 26.614H32.9008V26.6548H31.269V26.614H31.3103C31.3723 26.614 31.4343 26.5935 31.4962 26.5323C31.5375 26.471 31.5582 26.3894 31.5169 26.2873Z" fill="white"/>
<path d="M33.376 23.49C33.3553 23.4083 33.314 23.3267 33.2521 23.2654C33.1901 23.2041 33.1075 23.1633 33.0249 23.1633H32.9629V23.1225H33.376V23.49ZM33.376 26.2872V26.6548H32.9629V26.6139H33.0249C33.1075 26.6139 33.1901 26.5731 33.2521 26.5118C33.3347 26.4506 33.3553 26.3689 33.376 26.2872ZM34.1402 23.1021V26.6548H33.376V23.1021H34.1402ZM34.1196 23.49V23.1225H34.5326V23.1633C34.5326 23.1633 34.512 23.1633 34.4707 23.1633C34.3881 23.1633 34.3054 23.2041 34.2435 23.2654C34.1815 23.3267 34.1402 23.3879 34.1196 23.49ZM35.4828 26.4302L35.6067 26.6548H34.1196V26.4302H35.4828ZM35.8545 25.6134L35.6273 26.6548H34.6153L34.8012 26.4302C34.9664 26.4302 35.1316 26.3893 35.2556 26.3281C35.3795 26.2668 35.5034 26.1647 35.586 26.0422C35.6686 25.9197 35.7513 25.7768 35.8132 25.6134H35.8545Z" fill="white"/>
<path d="M7 27.7368C7.04131 27.7572 7.08262 27.7572 7.16524 27.7777C7.2272 27.7981 7.30982 27.7981 7.39244 27.8185C7.47506 27.8185 7.55768 27.8389 7.61964 27.8389L7 27.9002V27.7368ZM10.2841 27.8185V28.0227H7V27.8185H10.2841ZM7.57833 28.0227C7.41309 28.0431 7.28917 28.0839 7.20655 28.186C7.10327 28.2881 7.06196 28.4106 7.06196 28.5535V28.6148H7.02066V28.0227H7.57833ZM8.28059 31.0037V31.3712H7.8675V31.3304H7.92946C8.01208 31.3304 8.0947 31.2895 8.15666 31.2283C8.21863 31.167 8.25994 31.1058 8.28059 31.0037ZM9.02416 27.8389V31.3712H8.25994V27.8389H9.02416ZM9.02416 31.0037C9.04481 31.0853 9.08612 31.167 9.14809 31.2283C9.21005 31.2895 9.29267 31.3304 9.37529 31.3304H9.43725V31.3712H9.02416V31.0037ZM10.2841 27.7368V27.8797L9.66445 27.8185C9.74707 27.8185 9.80904 27.8185 9.91231 27.7981C9.99493 27.7981 10.0775 27.7777 10.1395 27.7572C10.2015 27.7572 10.2634 27.7572 10.2841 27.7368ZM10.2841 28.0227V28.6148H10.2428V28.5535C10.2428 28.3902 10.2015 28.2677 10.0982 28.186C9.99493 28.0839 9.871 28.0431 9.72642 28.0431V28.0227H10.2841Z" fill="white"/>
<path d="M10.9865 28.2063C10.9658 28.1246 10.9245 28.043 10.8626 27.9817C10.8006 27.9205 10.718 27.8796 10.6354 27.8796C10.6354 27.8796 10.6147 27.8796 10.594 27.8796C10.5734 27.8796 10.5734 27.8796 10.5527 27.8796V27.8388H10.9658V28.2063H10.9865ZM10.9865 31.0035V31.3711H10.5734V31.3302C10.5734 31.3302 10.594 31.3302 10.6147 31.3302C10.6354 31.3302 10.6354 31.3302 10.656 31.3302C10.7386 31.3302 10.8212 31.2894 10.8832 31.2281C10.9452 31.1669 10.9658 31.1056 10.9865 31.0035ZM11.7507 27.8388V31.3915H10.9865V27.8388H11.7507ZM12.3497 27.8388C12.4943 27.8388 12.6595 27.8592 12.8041 27.8796C12.9487 27.9205 13.0726 27.9613 13.1965 28.043C13.3205 28.1246 13.4031 28.2063 13.465 28.3288C13.527 28.4513 13.5683 28.5942 13.5683 28.778C13.5683 28.9209 13.5477 29.0639 13.4857 29.2068C13.4237 29.3497 13.3411 29.4722 13.2172 29.5743C13.0933 29.6764 12.928 29.7376 12.7421 29.7581C12.8454 29.7989 12.9487 29.8601 13.0519 29.9418C13.1346 30.0235 13.2172 30.1256 13.2792 30.2072C13.2792 30.2072 13.2998 30.2481 13.3411 30.2889C13.3824 30.3502 13.4237 30.4114 13.465 30.4931C13.527 30.5748 13.5683 30.6564 13.6303 30.7381C13.6922 30.8198 13.7336 30.881 13.7955 30.9423C13.8781 31.024 13.9401 31.1056 14.0021 31.1669C14.064 31.2281 14.126 31.269 14.188 31.2894C14.2499 31.3098 14.3325 31.3302 14.4152 31.3302V31.3711H13.9194C13.7336 31.3711 13.5683 31.3506 13.4237 31.3302C13.2791 31.2894 13.1346 31.2486 13.0313 31.1669C12.9074 31.0852 12.8247 30.9831 12.7215 30.8606C12.7008 30.8198 12.6595 30.7585 12.6389 30.6973C12.5975 30.636 12.5769 30.5748 12.5356 30.4931C12.4943 30.4318 12.4736 30.3502 12.4323 30.2889C12.391 30.2277 12.3703 30.1664 12.3497 30.1052C12.329 30.0439 12.3084 30.0031 12.3084 29.9827C12.2671 29.8806 12.2051 29.7989 12.1431 29.7376C12.0812 29.6764 12.0192 29.656 11.9572 29.6355V29.5947C11.9572 29.5947 11.9779 29.5947 12.0192 29.5947C12.0399 29.5947 12.0812 29.5947 12.1225 29.5947C12.2051 29.5947 12.3084 29.5743 12.391 29.5335C12.4736 29.4926 12.5562 29.4314 12.6182 29.3497C12.6802 29.268 12.7421 29.1455 12.7628 29.0026C12.7628 28.9822 12.7834 28.9413 12.7834 28.9005C12.7834 28.8597 12.7834 28.8188 12.7834 28.7576C12.7834 28.5126 12.7215 28.3288 12.5975 28.2267C12.4943 28.1042 12.3497 28.0634 12.1845 28.043C12.1431 28.043 12.0812 28.043 12.0192 28.043C11.9572 28.043 11.9159 28.043 11.8746 28.043C11.8333 28.043 11.792 28.043 11.7714 28.043C11.7714 28.043 11.7714 28.0225 11.7507 27.9817C11.7507 27.9409 11.73 27.9 11.7094 27.8184H12.3497V27.8388ZM11.73 31.0035C11.7507 31.0852 11.7714 31.1669 11.8333 31.2281C11.8953 31.2894 11.9779 31.3302 12.0605 31.3302C12.0605 31.3302 12.0812 31.3302 12.1225 31.3302V31.3711H11.7094V31.0035H11.73Z" fill="white"/>
<path d="M14.8279 31.0037C14.8073 31.0649 14.7866 31.1262 14.8073 31.167C14.8279 31.2078 14.8486 31.2487 14.8899 31.2691C14.9312 31.2895 14.9725 31.3099 15.0138 31.3099H15.0551V31.3508H13.9604V31.3099H14.0018C14.0844 31.3099 14.167 31.2895 14.2496 31.2283C14.3322 31.1874 14.3942 31.1058 14.4562 30.9833H14.8279V31.0037ZM15.9226 27.7368L15.9433 28.3494L14.6627 31.3712H14.2909L15.6128 28.4106C15.6128 28.3902 15.6335 28.3494 15.6748 28.2881C15.6954 28.2268 15.7368 28.1656 15.7574 28.1043C15.7781 28.0431 15.8194 27.9614 15.84 27.9002C15.8607 27.8389 15.8813 27.7777 15.8813 27.7368H15.9226ZM16.4803 30.1665V30.3707H14.9725V30.1665H16.4803ZM15.9226 27.7368L17.5957 31.3508H16.6662L15.5922 28.7169L15.9226 27.7368ZM16.5423 31.0037H17.4304C17.4924 31.1262 17.5544 31.2079 17.637 31.2487C17.7196 31.2895 17.8022 31.3304 17.8848 31.3304H17.9261V31.3712H16.3151V31.3304H16.3564C16.4184 31.3304 16.4803 31.3099 16.5423 31.2487C16.5836 31.1874 16.5836 31.1058 16.5423 31.0037Z" fill="white"/>
<path d="M18.4219 28.2064C18.4012 28.1247 18.3806 28.043 18.3186 27.9818C18.2566 27.9205 18.174 27.8797 18.0914 27.8797H18.0294V27.8389H18.4425V28.2064H18.4219ZM18.4219 31.0036V31.3712H18.0088V31.3303H18.0708C18.1534 31.3303 18.236 31.2895 18.298 31.2282C18.3599 31.167 18.4012 31.1057 18.4219 31.0036ZM19.1655 27.8389V31.3916H18.4012V27.8389H19.1655ZM19.8677 27.8389C20.2808 27.8389 20.6113 27.9205 20.9211 28.0635C21.2103 28.2064 21.4375 28.4106 21.6027 28.676C21.7679 28.9414 21.8506 29.2477 21.8506 29.6152C21.8506 29.9827 21.7679 30.289 21.6027 30.5544C21.4375 30.8199 21.2103 31.024 20.9211 31.167C20.6319 31.3099 20.2808 31.3916 19.8677 31.3916H18.6491V31.1874C18.7524 31.1874 18.8556 31.1874 18.9589 31.1874C19.0622 31.1874 19.1655 31.1874 19.2687 31.1874C19.372 31.1874 19.4546 31.1874 19.5372 31.1874C19.6199 31.1874 19.7025 31.1874 19.8057 31.1874C20.0536 31.1874 20.2601 31.1261 20.446 31.0036C20.6319 30.8811 20.7559 30.6974 20.8591 30.4728C20.9624 30.2482 21.0037 29.9623 21.0037 29.6356C21.0037 29.3089 20.9624 29.0435 20.8591 28.7985C20.7559 28.5739 20.6319 28.3902 20.446 28.2676C20.2601 28.1451 20.0536 28.0839 19.8057 28.0839C19.7025 28.0839 19.6199 28.0839 19.5372 28.0839C19.4546 28.0839 19.3513 28.0839 19.2481 28.0839C19.1448 28.0839 19.0415 28.0839 18.9176 28.0839C18.8143 28.0839 18.6904 28.0839 18.5871 28.0839V27.8797H19.8677V27.8389Z" fill="white"/>
<path d="M22.5532 28.2064C22.5326 28.1247 22.4913 28.043 22.4293 27.9818C22.3673 27.9205 22.2847 27.8797 22.2021 27.8797H22.1401V27.8389H22.5532V28.2064ZM22.5532 31.0036V31.3712H22.1401V31.3303H22.2021C22.2847 31.3303 22.3673 31.2895 22.4293 31.2282C22.5119 31.167 22.5326 31.1057 22.5532 31.0036ZM23.3175 27.8389V31.3916H22.5532V27.8389H23.3175ZM23.2968 28.2064V27.8389H23.7099V27.8797C23.7099 27.8797 23.6892 27.8797 23.6479 27.8797C23.5653 27.8797 23.4827 27.9205 23.4207 27.9818C23.3588 28.043 23.3175 28.1247 23.2968 28.2064ZM23.2968 31.0036C23.3175 31.0853 23.3588 31.167 23.4207 31.2282C23.4827 31.2895 23.5653 31.3303 23.6479 31.3303C23.6892 31.3303 23.7099 31.3303 23.7099 31.3303V31.3712H23.2968V31.0036Z" fill="white"/>
<path d="M23.978 27.7368C24.0193 27.7572 24.0606 27.7572 24.1433 27.7777C24.2052 27.7981 24.2878 27.7981 24.3705 27.8185C24.4531 27.8185 24.5357 27.8389 24.5977 27.8389L23.978 27.9002V27.7368ZM27.2621 27.8185V28.0227H23.978V27.8185H27.2621ZM24.5564 28.0227C24.3911 28.0431 24.2672 28.0839 24.1846 28.186C24.0813 28.2881 24.04 28.4106 24.04 28.5535V28.6148H23.9987V28.0227H24.5564ZM25.2586 31.0037V31.3712H24.8455V31.3304H24.9075C24.9901 31.3304 25.0727 31.2895 25.1347 31.2283C25.1967 31.167 25.238 31.1058 25.2586 31.0037ZM26.0022 27.8389V31.3712H25.238V27.8389H26.0022ZM26.0022 31.0037C26.0228 31.0853 26.0641 31.167 26.1261 31.2283C26.1881 31.2895 26.2707 31.3304 26.3533 31.3304H26.4153V31.3712H26.0022V31.0037ZM27.2621 27.7368V27.8797L26.6425 27.8185C26.7251 27.8185 26.7871 27.8185 26.8903 27.7981C26.973 27.7981 27.0556 27.7777 27.1175 27.7572C27.1795 27.7572 27.2415 27.7572 27.2621 27.7368ZM27.2621 28.0227V28.6148H27.2208V28.5535C27.2208 28.3902 27.1795 28.2677 27.0762 28.186C26.973 28.0839 26.849 28.0431 26.7044 28.0431V28.0227H27.2621Z" fill="white"/>
<path d="M27.9644 28.2064C27.9437 28.1247 27.9024 28.043 27.8404 27.9818C27.7785 27.9205 27.6959 27.8797 27.6132 27.8797H27.5513V27.8389H27.9644V28.2064ZM27.9644 31.0036V31.3712H27.5513V31.3303H27.6132C27.6959 31.3303 27.7785 31.2895 27.8404 31.2282C27.9024 31.167 27.9437 31.1057 27.9644 31.0036ZM28.7079 27.8389V31.3916H27.9437V27.8389H28.7079ZM28.6873 28.2064V27.8389H29.1004V27.8797C29.1004 27.8797 29.0797 27.8797 29.0384 27.8797C28.9558 27.8797 28.8732 27.9205 28.8112 27.9818C28.7492 28.043 28.7079 28.1247 28.6873 28.2064ZM28.6873 31.0036C28.7079 31.0853 28.7492 31.167 28.8112 31.2282C28.8732 31.2895 28.9558 31.3303 29.0384 31.3303C29.0797 31.3303 29.1004 31.3303 29.1004 31.3303V31.3712H28.6873V31.0036Z" fill="white"/>
<path d="M31.4758 27.7573C31.8889 27.7573 32.24 27.839 32.5499 27.9819C32.8597 28.1248 33.0869 28.3494 33.2521 28.6149C33.4174 28.8803 33.5 29.207 33.5 29.5949C33.5 29.9829 33.4174 30.3096 33.2521 30.575C33.0869 30.8404 32.8597 31.065 32.5499 31.2079C32.24 31.3509 31.8889 31.4325 31.4758 31.4325C31.0627 31.4325 30.7116 31.3509 30.4018 31.2079C30.092 31.065 29.8647 30.8404 29.6995 30.575C29.5343 30.3096 29.4517 29.9829 29.4517 29.5949C29.4517 29.207 29.5343 28.8803 29.6995 28.6149C29.8647 28.3494 30.092 28.1248 30.4018 27.9819C30.7116 27.839 31.0627 27.7573 31.4758 27.7573ZM31.4758 31.2284C31.7237 31.2284 31.9302 31.1671 32.0955 31.0242C32.2607 30.8813 32.4053 30.6975 32.5085 30.4525C32.6118 30.2075 32.6531 29.9216 32.6531 29.5949C32.6531 29.2682 32.6118 28.962 32.5085 28.7374C32.4053 28.4924 32.2813 28.3086 32.0955 28.1657C31.9302 28.0228 31.703 27.9615 31.4758 27.9615C31.228 27.9615 31.0214 28.0228 30.8562 28.1657C30.6703 28.3086 30.5464 28.4924 30.4431 28.7374C30.3398 28.9824 30.2985 29.2682 30.2985 29.5949C30.2985 29.9216 30.3398 30.2279 30.4431 30.4525C30.5464 30.6975 30.6703 30.8813 30.8562 31.0242C31.0421 31.1671 31.2486 31.2284 31.4758 31.2284Z" fill="white"/>
<path d="M34.2023 31.0242V31.3917H33.7686V31.3509C33.8305 31.3509 33.8718 31.3509 33.8718 31.3509C33.9544 31.3509 34.0371 31.3304 34.099 31.2692C34.161 31.2079 34.1816 31.1059 34.2023 31.0242ZM34.161 27.7573L34.9046 28.5332V31.3713H34.1816V28.3903C34.1816 28.2065 34.161 27.9819 34.1197 27.7573H34.161ZM34.161 27.7573L37.4244 30.8404L37.4864 31.453L34.223 28.3699L34.161 27.7573ZM34.9046 31.0242C34.9046 31.1059 34.9252 31.1875 34.9872 31.2488C35.0491 31.31 35.1318 31.3304 35.2144 31.3304C35.2144 31.3304 35.2557 31.3304 35.3177 31.3304V31.3713H34.9046V31.0242ZM36.3504 27.839H36.7841V28.2065C36.7841 28.1248 36.7428 28.0432 36.6809 27.9819C36.6189 27.9207 36.5569 27.9002 36.4537 27.9002C36.3917 27.9002 36.3504 27.9002 36.3504 27.9002V27.839ZM37.4864 27.839V30.7996C37.4864 30.9221 37.4864 31.0446 37.5071 31.1263C37.5071 31.2284 37.5277 31.3304 37.5484 31.4325H37.5071L36.7635 30.6158V27.8186H37.4864V27.839ZM37.8995 27.839V27.8798H37.7962C37.7136 27.8798 37.631 27.9002 37.569 27.9615C37.507 28.0228 37.4657 28.084 37.4657 28.1861H37.4451V27.8186H37.8995V27.839Z" fill="white"/>
</g>
<defs>
<clipPath id="clip0_210_5181">
<rect width="44" height="44" fill="white"/>
</clipPath>
</defs>
</svg>
