<svg width="142" height="41" viewBox="0 0 142 41" fill="none" xmlns="http://www.w3.org/2000/svg">
<path d="M41.8033 23.169C41.5477 23.0419 41.356 23.1055 41.1643 23.3597C40.9087 23.8681 40.4614 24.5671 39.9501 25.3297C39.4389 26.1559 38.8638 26.9185 38.1609 27.6811C37.5219 28.4437 36.819 29.0792 36.18 29.5877C35.4771 30.0961 34.8381 30.2867 34.263 30.1596C33.624 30.0325 33.1767 29.5876 33.0489 28.825C32.9211 28.3166 32.921 27.7447 32.9849 27.1092C33.0488 26.4737 33.2406 25.8382 33.4962 25.1391H33.5601H33.624C33.624 25.1391 33.8157 25.1391 34.1352 25.1391C34.4547 25.1391 34.7742 25.0755 35.2215 24.9484C35.6688 24.8213 36.1161 24.6307 36.5634 24.3765C37.0107 24.1223 37.458 23.741 37.8414 23.2326C38.2248 22.6606 38.5443 22.0887 38.6721 21.4531C38.7999 20.8176 38.736 20.3092 38.3526 19.9279C38.1609 19.7373 37.7775 19.6737 37.3302 19.6737C36.8829 19.6737 36.2439 19.9915 35.4132 20.6905C34.8381 21.1354 34.3269 21.7074 33.8796 22.4064C33.624 22.7877 33.4323 23.1055 33.2406 23.4868C32.3459 24.5671 31.5791 25.4569 30.8762 26.2195C30.1094 26.9821 29.5343 27.4905 29.1509 27.6811C29.087 27.6811 28.9592 27.7447 28.9592 27.7447C28.9592 27.6811 28.8953 27.6176 28.8314 27.554C28.7675 27.4905 28.7675 27.3634 28.7036 27.1727C28.7036 27.0456 28.6397 26.855 28.6397 26.6008C28.5758 26.2194 28.5758 25.7746 28.5758 25.3297C28.5758 24.8849 28.6397 24.44 28.7036 23.9952C28.7675 22.9784 28.7675 22.2158 28.7675 21.7073C28.7675 21.1354 28.5119 20.8812 28.1285 20.8176H28.0646C27.4895 20.8176 26.8505 21.0718 26.1476 21.6438C25.4446 22.2158 24.6778 22.9784 23.911 23.9316C23.0803 24.8849 22.2496 26.0288 21.4189 27.2998C20.5243 28.5708 19.6936 29.9054 18.799 31.3035C19.1185 30.0961 19.5019 28.7615 20.0131 27.2363C20.5243 25.711 21.0994 24.1858 21.7384 22.5335C22.3774 20.8812 23.0164 19.2289 23.7193 17.5765C24.4222 15.9242 25.1251 14.2719 25.8281 12.6831C26.4032 11.3486 26.9783 10.0775 27.4895 8.93363C29.5343 8.87007 31.4513 8.87007 33.4323 8.87007C33.5601 8.87007 33.6879 8.87008 33.7518 8.74298C33.8157 8.67943 33.8796 8.55233 33.8796 8.42523C33.8796 8.17102 33.7518 7.98036 33.4323 7.91681C31.643 7.85326 29.8538 7.91681 27.9368 7.91681C28.5119 6.70934 29.0231 5.69253 29.4704 4.80282C29.5343 4.73927 29.6621 4.73926 29.6621 4.67571C29.726 4.61216 29.9177 4.42152 30.1094 4.16731C30.3011 3.91311 30.4928 3.72245 30.6845 3.40469C30.8762 3.15049 31.0679 2.83274 31.1957 2.57854C31.3235 2.32434 31.3874 2.07013 31.3874 1.81592C31.3235 1.56172 31.2596 1.37107 31.0679 1.24397C30.8762 1.11687 30.7484 1.11686 30.5567 1.18041C30.4928 1.18041 30.4289 1.24397 30.365 1.30752C30.3011 1.37107 30.1094 1.56172 29.9816 1.81592C29.7899 2.07013 29.5343 2.51498 29.2787 3.08694C28.9592 3.6589 28.5758 4.42152 28.0646 5.43833C27.6812 6.20094 27.2978 7.0271 26.9144 7.91681C25.0612 7.98036 23.1442 8.10746 21.2911 8.23456C21.5467 7.5355 21.6745 7.21776 21.7384 7.15421C21.8023 7.02711 21.8023 6.90001 21.7384 6.83646C21.6745 6.70935 21.6106 6.64579 21.4828 6.58224C21.2272 6.45513 20.9716 6.5187 20.9077 6.83646C20.8438 6.90001 20.7799 7.0271 20.716 7.2813C20.6521 7.5355 20.4604 7.85326 20.3326 8.29812C18.2239 8.42522 16.179 8.61586 14.262 8.80652C12.345 8.99717 10.5558 9.25137 8.95823 9.44202C7.36071 9.63268 6.01879 9.82335 4.86857 10.014C3.71836 10.2046 2.88765 10.3317 2.44034 10.4588C1.54573 10.713 0.906718 10.9037 0.523313 11.1579C0.139908 11.4121 -0.0517915 11.6663 0.0121094 11.9205C0.0121094 12.0476 0.0760083 12.1747 0.139909 12.3018C0.20381 12.4289 0.395514 12.4925 0.651118 12.6196C0.906721 12.6831 1.16232 12.8102 1.60963 12.8738C1.99304 12.9373 2.50424 13.0009 3.14325 13.0009C7.169 13.128 9.98064 14.4626 11.5782 17.0046C12.0255 17.7036 12.345 18.5298 12.6006 19.4195C12.8562 20.3092 12.984 21.1989 13.0479 22.1522C13.1118 23.1055 13.1118 24.0587 13.0479 25.012C12.984 25.9652 12.8562 26.9821 12.6645 27.9353C12.2172 29.2063 11.7699 30.4138 11.3226 31.5577C10.9392 32.7016 10.5558 33.782 10.2362 34.7353C9.91674 35.6885 9.66114 36.5147 9.46943 37.2138C9.27773 37.9128 9.14993 38.4848 9.14993 38.8661C9.14993 39.1203 9.27773 39.3109 9.53333 39.3745H9.66114C9.85284 39.3745 9.98064 39.3109 10.1084 39.1203C10.1723 39.0567 10.3001 38.6754 10.6197 38.0399C10.8753 37.4044 11.1948 36.5782 11.5782 35.5614C11.9616 34.5446 12.345 33.4007 12.7284 32.1297C13.1118 30.8587 13.4313 29.4606 13.6869 28.0624C14.3259 26.3466 15.0288 24.5036 15.7317 22.7242C16.4346 20.8812 17.1375 19.1018 17.8404 17.4494C18.5434 15.7336 19.1185 14.2083 19.6936 12.7467C20.2687 11.285 20.7799 10.1411 21.1633 9.18783C23.0164 9.06072 24.8695 8.99717 26.7227 8.87007C26.5949 9.12427 26.4671 9.44204 26.3393 9.69624C25.6364 11.285 24.8695 12.8738 24.1666 14.5896C23.911 15.2887 23.5276 16.1149 23.1442 17.0681C22.7608 18.0214 22.3135 19.1018 21.8662 20.2457C21.4189 21.3896 20.9716 22.5971 20.5243 23.8045C20.077 25.012 19.6297 26.2195 19.2463 27.3634C18.8629 28.5073 18.5434 29.6512 18.2239 30.7316C17.9043 31.8119 17.7765 32.7016 17.6487 33.5278V33.5913C17.6487 33.8456 17.7765 33.9727 18.0321 34.0362C18.0321 34.0362 18.096 34.0998 18.1599 34.0998C18.2878 34.0998 18.4156 34.0362 18.4795 33.9727C18.5434 33.8456 18.6712 33.7185 18.799 33.5278C18.8629 33.4007 18.9907 33.2736 19.1185 33.0829C19.2463 32.8923 19.3741 32.7016 19.5019 32.511C20.0131 31.6848 20.6521 30.668 21.4189 29.397C22.1857 28.1895 23.0803 26.9821 23.9749 25.8382C24.55 25.0755 25.0612 24.44 25.5085 23.9316C25.9559 23.4232 26.3393 23.0419 26.6588 22.7242C26.9783 22.4064 27.2978 22.2158 27.4895 22.0887C27.7451 21.9616 27.9368 21.898 28.0646 21.8344C28.1285 22.0251 28.1285 22.3428 28.1285 22.7877C28.1285 23.2326 28.0646 23.6139 28.0646 23.9952C28.0007 25.2662 28.0007 26.283 28.0007 27.0456C28.0646 27.8082 28.2563 28.3802 28.7036 28.6344C28.8314 28.6979 28.9592 28.7615 29.1509 28.825C29.3426 28.825 29.5343 28.825 29.7899 28.6979C30.1094 28.5073 30.4928 28.2531 30.9401 27.8718C31.3235 27.4905 31.7708 27.1092 32.2181 26.6643C32.3459 26.4737 32.5376 26.3466 32.6654 26.1559C32.6015 26.4737 32.5376 26.7914 32.4737 27.1092C32.3459 27.8718 32.3459 28.5708 32.5376 29.2063C32.7932 30.3503 33.4962 30.9858 34.5186 31.24C34.5825 31.24 34.7742 31.3035 35.0298 31.3035C35.6049 31.3035 36.1161 31.1129 36.6912 30.7951C37.2663 30.4774 37.8414 30.0325 38.3526 29.5877C38.8638 29.0792 39.375 28.5708 39.8223 27.9353C40.2697 27.3634 40.717 26.7914 41.0365 26.2195C41.4199 25.6475 41.6755 25.2026 41.9311 24.7578C42.1867 24.3765 42.3145 24.0587 42.3784 23.9316C42.1228 23.5503 42.0589 23.2961 41.8033 23.169ZM18.6073 12.2383C18.1599 13.3822 17.6487 14.5897 17.1375 15.9242C16.6263 17.2588 16.0512 18.6569 15.4761 20.055C14.901 21.4531 14.3259 22.9784 13.7508 24.44C13.8147 23.0419 13.6869 21.6438 13.4952 20.3092C13.2396 18.9747 12.7923 17.7672 12.1533 16.6233C10.4279 13.827 7.36071 12.3018 3.01545 12.1747C2.44034 12.1747 2.05693 12.1112 1.73743 12.1112C1.41793 12.0476 1.22622 12.0476 1.03452 11.9841C1.16232 11.9205 1.35402 11.857 1.54573 11.7934C1.80133 11.7299 2.12083 11.6028 2.50424 11.4757C2.95155 11.3486 3.78226 11.2214 4.86857 11.0308C5.95489 10.8401 7.29681 10.6495 8.76653 10.4588C10.3001 10.2682 12.0255 10.0775 13.8786 9.88689C15.7317 9.69624 17.7126 9.50559 19.7575 9.37849C19.438 10.1411 19.0546 11.1579 18.6073 12.2383ZM35.9244 21.5802C36.3717 21.2625 36.6912 21.0083 36.9468 20.8812C37.2024 20.7541 37.3941 20.6905 37.5219 20.6905H37.5858C37.5858 20.6905 37.5858 20.6905 37.6497 20.6905H37.7136C37.8414 20.8176 37.8414 21.0718 37.7775 21.4531C37.7136 21.8345 37.458 22.2793 37.1385 22.7877C36.8829 23.1055 36.5634 23.3597 36.3078 23.5503C35.9883 23.741 35.6688 23.9316 35.4132 23.9952C35.0937 24.1223 34.8381 24.1858 34.5825 24.1858C34.3269 24.2494 34.1352 24.2494 34.0074 24.2494C34.0713 24.1223 34.1352 23.9952 34.1991 23.8681L34.263 23.8045L34.3269 23.741C34.3908 23.6139 34.4547 23.5503 34.4547 23.4232C34.6464 23.169 34.7742 22.8513 34.9659 22.5971C35.1576 22.2793 35.541 21.898 35.9244 21.5802Z" fill="#C19D58"/>
<path d="M57.6514 12.1112L57.7792 14.8439C57.5236 15.2252 57.2041 15.6065 56.8206 15.9243C56.4372 16.242 55.926 16.4963 55.3509 16.6869C54.7758 16.8776 54.0729 17.0047 53.3061 17.0047C52.0281 17.0047 50.8779 16.7505 49.9194 16.3056C48.9608 15.8607 48.194 15.2252 47.6828 14.3355C47.1716 13.5094 46.916 12.429 46.916 11.2215C46.916 10.0141 47.1716 8.99724 47.6828 8.17108C48.194 7.34492 48.9608 6.64587 49.9194 6.20102C50.8779 5.75616 52.0281 5.50195 53.37 5.50195C54.2007 5.50195 54.9675 5.5655 55.6704 5.75615C56.3733 5.94681 56.8846 6.13746 57.3319 6.39166V9.0608H57.2041C56.9485 8.04399 56.4373 7.28138 55.7982 6.83652C55.1592 6.39167 54.3924 6.13746 53.5617 6.13746C52.731 6.13746 51.9642 6.32811 51.3891 6.77297C50.814 7.15428 50.3028 7.78977 49.9833 8.48883C49.6638 9.25144 49.4721 10.1412 49.4721 11.158C49.4721 12.1748 49.5998 13.1281 49.9194 13.8271C50.2389 14.5897 50.6862 15.1617 51.2613 15.6065C51.8364 16.0514 52.5393 16.242 53.3061 16.242C54.1368 16.242 54.7758 16.1149 55.3509 15.8607C55.926 15.6065 56.3733 15.1617 56.6929 14.5262C57.0124 13.8907 57.268 13.128 57.4597 12.0477H57.6514V12.1112Z" fill="white"/>
<path d="M60.3348 5.62945V6.58272H60.2709C60.2709 6.32851 60.207 6.13786 60.0153 6.01076C59.8236 5.88366 59.6319 5.82012 59.4402 5.82012H59.1846V5.69301H60.3348V5.62945ZM62.6352 5.62945V12.5565C62.6352 13.3191 62.763 13.9546 63.0186 14.5266C63.2742 15.0985 63.5937 15.4798 64.1049 15.7976C64.5522 16.1153 65.1274 16.2425 65.7664 16.2425C66.4054 16.2425 66.9805 16.1153 67.4278 15.7976C67.8751 15.5434 68.2585 15.0985 68.5141 14.5901C68.7697 14.0817 68.8975 13.4462 68.8975 12.7472V5.62945H70.0477V12.6836C70.0477 13.5733 69.856 14.2724 69.4726 14.9079C69.0892 15.5434 68.578 16.0518 67.8751 16.3696C67.1722 16.6873 66.3415 16.878 65.383 16.878C64.2327 16.878 63.3381 16.6873 62.5713 16.3696C61.8045 16.0518 61.2294 15.5434 60.846 14.9079C60.4626 14.2724 60.2709 13.5098 60.2709 12.6836V5.62945H62.6352ZM63.7215 5.62945V5.75656H63.4659C63.2103 5.75656 63.0186 5.82011 62.8908 5.94721C62.6991 6.07431 62.6352 6.26498 62.6352 6.51918V5.56592H63.7215V5.62945ZM68.8975 5.62945V6.58272H68.8336C68.8336 6.32851 68.7697 6.13786 68.578 6.01076C68.3863 5.88366 68.1946 5.82012 68.0029 5.82012H67.7473V5.69301H68.8975V5.62945ZM71.0701 5.62945V5.75656H70.8145C70.5589 5.75656 70.3672 5.82011 70.2394 5.94721C70.0477 6.07431 69.9838 6.26498 69.9838 6.51918V5.56592H71.0701V5.62945Z" fill="white"/>
<path d="M73.3063 6.83688C73.2424 6.58267 73.1146 6.32847 72.9229 6.13781C72.7312 5.94716 72.4756 5.82006 72.22 5.82006H72.0283V5.69295H73.3063V6.83688ZM73.3063 15.5433V16.6873H72.0283V16.5601H72.22C72.4756 16.5601 72.7312 16.433 72.9229 16.2424C73.1146 16.0517 73.2424 15.7975 73.3063 15.5433ZM75.6068 5.62939V16.6873H73.2424V5.62939H75.6068ZM75.6068 6.83688V5.69295H76.8848V5.82006C76.8848 5.82006 76.8209 5.82006 76.6931 5.82006C76.4375 5.82006 76.1819 5.94716 75.9902 6.13781C75.7346 6.32847 75.6068 6.51912 75.6068 6.83688ZM79.8242 15.9882L80.2076 16.6873H75.6068V15.9882H79.8242ZM80.9744 13.4462L80.2715 16.6873H77.1404L77.7155 15.9882C78.2267 15.9882 78.7379 15.8611 79.1213 15.6704C79.5047 15.4798 79.8881 15.162 80.1437 14.7807C80.3993 14.3994 80.6549 13.9546 80.8466 13.4462H80.9744Z" fill="white"/>
<path d="M79.9526 5.375C80.0804 5.43855 80.2082 5.43856 80.4638 5.50211C80.7194 5.56566 80.9111 5.56565 81.1667 5.6292C81.4223 5.6292 81.6779 5.69275 81.8696 5.69275L79.9526 5.88342V5.375ZM90.0489 5.6292V6.26471H79.8887V5.6292H90.0489ZM81.6779 6.26471C81.1667 6.32826 80.7833 6.45537 80.5277 6.77313C80.2082 7.09088 80.0804 7.47218 80.0804 7.91703V8.1077H79.9526V6.26471H81.6779ZM83.8505 15.5431V16.6871H82.5725V16.56H82.7642C83.0198 16.56 83.2754 16.4329 83.4671 16.2422C83.7227 16.0515 83.7866 15.7973 83.8505 15.5431ZM86.2149 5.69275V16.6871H83.8505V5.69275H86.2149ZM86.151 15.5431C86.2149 15.7973 86.3427 16.0515 86.5344 16.2422C86.7261 16.4329 86.9817 16.56 87.2373 16.56H87.429V16.6871H86.151V15.5431ZM90.0489 5.375V5.81986L88.1319 5.6292C88.3875 5.6292 88.5792 5.62922 88.8987 5.56566C89.1543 5.56566 89.4099 5.50211 89.6016 5.43855C89.7933 5.43855 89.985 5.375 90.0489 5.375ZM90.0489 6.26471V8.1077H89.9211V7.91703C89.9211 7.40863 89.7933 7.02733 89.4738 6.77313C89.1543 6.45537 88.7709 6.32826 88.3236 6.32826V6.26471H90.0489Z" fill="white"/>
<path d="M92.0301 5.62945V6.58272H91.9662C91.9662 6.32851 91.9023 6.13786 91.7106 6.01076C91.5189 5.88366 91.3272 5.82012 91.1355 5.82012H90.8799V5.69301H92.0301V5.62945ZM94.3305 5.62945V12.5565C94.3305 13.3191 94.4583 13.9546 94.7139 14.5266C94.9695 15.0985 95.289 15.4798 95.8002 15.7976C96.2476 16.1153 96.8227 16.2425 97.4617 16.2425C98.1007 16.2425 98.6758 16.1153 99.1231 15.7976C99.5704 15.5434 99.9538 15.0985 100.209 14.5901C100.465 14.0817 100.593 13.4462 100.593 12.7472V5.62945H101.743V12.6836C101.743 13.5733 101.551 14.2724 101.168 14.9079C100.785 15.5434 100.273 16.0518 99.5704 16.3696C98.8675 16.6873 98.0368 16.878 97.0783 16.878C95.928 16.878 95.0334 16.6873 94.2666 16.3696C93.4998 16.0518 92.9247 15.5434 92.5413 14.9079C92.1579 14.2724 91.9662 13.5098 91.9662 12.6836V5.62945H94.3305ZM95.4168 5.62945V5.75656H95.1612C94.9056 5.75656 94.7139 5.82011 94.5861 5.94721C94.3944 6.07431 94.3305 6.26498 94.3305 6.51918V5.56592H95.4168V5.62945ZM100.593 5.62945V6.58272H100.529C100.529 6.32851 100.465 6.13786 100.273 6.01076C100.082 5.88366 99.8899 5.82012 99.6982 5.82012H99.4426V5.69301H100.593V5.62945ZM102.829 5.62945V5.75656H102.574C102.318 5.75656 102.126 5.82011 101.999 5.94721C101.807 6.07431 101.743 6.26498 101.743 6.51918V5.56592H102.829V5.62945Z" fill="white"/>
<path d="M105.066 6.83688C105.002 6.58267 104.874 6.32847 104.682 6.13781C104.49 5.94716 104.235 5.82006 103.979 5.82006C103.979 5.82006 103.915 5.82006 103.851 5.82006C103.788 5.82006 103.788 5.82006 103.724 5.82006V5.69295H105.002V6.83688H105.066ZM105.066 15.5433V16.6873H103.788V16.5601C103.788 16.5601 103.851 16.5601 103.915 16.5601C103.979 16.5601 103.979 16.5601 104.043 16.5601C104.299 16.5601 104.554 16.433 104.746 16.2424C104.874 16.0517 105.002 15.7975 105.066 15.5433ZM107.366 5.62939V16.6873H105.002V5.62939H107.366ZM109.219 5.62939C109.666 5.62939 110.178 5.69295 110.625 5.7565C111.072 5.88361 111.456 6.0107 111.839 6.2649C112.222 6.51911 112.478 6.77333 112.67 7.15463C112.861 7.53594 112.989 7.98078 112.989 8.55274C112.989 8.99759 112.925 9.44245 112.734 9.88731C112.542 10.3322 112.286 10.7135 111.903 11.0312C111.52 11.349 111.008 11.5396 110.433 11.6032C110.753 11.7303 111.072 11.9209 111.392 12.1751C111.647 12.4293 111.903 12.7471 112.095 13.0013C112.095 13.0013 112.159 13.1284 112.286 13.2555C112.414 13.4461 112.542 13.6368 112.67 13.891C112.861 14.1452 112.989 14.3994 113.181 14.6536C113.373 14.9078 113.5 15.0985 113.692 15.2891C113.948 15.5433 114.139 15.7975 114.331 15.9882C114.523 16.1788 114.715 16.306 114.906 16.3695C115.098 16.4331 115.354 16.4966 115.609 16.4966V16.6237H114.076C113.5 16.6237 112.989 16.5601 112.542 16.4966C112.095 16.3695 111.647 16.2424 111.328 15.9882C110.944 15.734 110.689 15.4162 110.369 15.0349C110.305 14.9078 110.178 14.7172 110.114 14.5265C109.986 14.3359 109.922 14.1452 109.794 13.891C109.666 13.6368 109.603 13.4461 109.475 13.2555C109.347 13.0648 109.283 12.8742 109.219 12.6835C109.155 12.4929 109.091 12.3658 109.091 12.3022C108.963 11.9845 108.772 11.7303 108.58 11.5396C108.388 11.349 108.197 11.2854 108.005 11.2219V11.1583C108.005 11.1583 108.069 11.1583 108.197 11.1583C108.261 11.1583 108.388 11.1583 108.516 11.1583C108.772 11.1583 109.091 11.0948 109.347 10.9677C109.603 10.8406 109.858 10.6499 110.05 10.3957C110.242 10.1415 110.433 9.76021 110.497 9.31536C110.497 9.2518 110.561 9.1247 110.561 8.9976C110.561 8.8705 110.561 8.74339 110.561 8.55274C110.561 7.79013 110.369 7.21817 109.986 6.90041C109.666 6.51911 109.219 6.39201 108.708 6.32846C108.58 6.32846 108.388 6.32846 108.197 6.32846C108.005 6.32846 107.877 6.32846 107.749 6.32846C107.622 6.32846 107.494 6.32846 107.43 6.32846C107.43 6.32846 107.43 6.26491 107.366 6.13781C107.366 6.01071 107.302 5.8836 107.238 5.62939H109.219ZM107.302 15.5433C107.366 15.7975 107.43 16.0517 107.622 16.2424C107.813 16.433 108.069 16.5601 108.324 16.5601C108.324 16.5601 108.388 16.5601 108.516 16.5601V16.6873H107.238V15.5433H107.302Z" fill="white"/>
<path d="M116.95 15.5432C116.887 15.7339 116.823 15.9245 116.887 16.0516C116.95 16.1787 117.014 16.3058 117.142 16.3694C117.27 16.4329 117.398 16.4965 117.526 16.4965H117.653V16.6236H114.267V16.4965H114.394C114.65 16.4965 114.906 16.4329 115.161 16.2423C115.417 16.1152 115.609 15.861 115.8 15.4797H116.95V15.5432ZM120.337 5.31152L120.401 7.21805L116.439 16.6236H115.289L119.379 7.40871C119.379 7.34516 119.443 7.21806 119.57 7.0274C119.634 6.83675 119.762 6.6461 119.826 6.45545C119.89 6.2648 120.018 6.01059 120.082 5.81994C120.145 5.62929 120.209 5.43863 120.209 5.31152H120.337ZM121.999 12.9376V13.5731H117.334V12.9376H121.999ZM120.337 5.31152L125.513 16.56H122.638L119.315 8.36198L120.337 5.31152ZM122.254 15.5432H125.002C125.194 15.9245 125.385 16.1787 125.641 16.3058C125.897 16.4329 126.152 16.56 126.408 16.56H126.536V16.6871H121.487V16.56H121.615C121.807 16.56 121.999 16.4965 122.19 16.3058C122.318 16.1152 122.382 15.861 122.254 15.5432Z" fill="white"/>
<path d="M128.006 6.83688C127.942 6.58267 127.814 6.32847 127.622 6.13781C127.43 5.94716 127.175 5.82006 126.919 5.82006H126.728V5.69295H128.006V6.83688ZM128.006 15.5433V16.6873H126.728V16.5601H126.919C127.175 16.5601 127.43 16.433 127.622 16.2424C127.878 16.0517 127.942 15.7975 128.006 15.5433ZM130.37 5.62939V16.6873H128.006V5.62939H130.37ZM130.306 6.83688V5.69295H131.584V5.82006C131.584 5.82006 131.52 5.82006 131.392 5.82006C131.137 5.82006 130.881 5.94716 130.689 6.13781C130.498 6.32847 130.37 6.51912 130.306 6.83688ZM134.523 15.9882L134.907 16.6873H130.306V15.9882H134.523ZM135.674 13.4462L134.971 16.6873H131.84L132.415 15.9882C132.926 15.9882 133.437 15.8611 133.821 15.6704C134.204 15.4798 134.587 15.162 134.843 14.7807C135.099 14.3994 135.354 13.9546 135.546 13.4462H135.674Z" fill="white"/>
<path d="M46.4043 20.0552C46.5321 20.1187 46.6599 20.1187 46.9155 20.1823C47.1072 20.2458 47.3628 20.2458 47.6184 20.3094C47.874 20.3094 48.1296 20.3729 48.3213 20.3729L46.4043 20.5636V20.0552ZM56.5645 20.3094V20.9449H46.4043V20.3094H56.5645ZM48.1935 20.9449C47.6823 21.0084 47.2989 21.1355 47.0433 21.4533C46.7238 21.7711 46.596 22.1524 46.596 22.5972V22.7879H46.4682V20.9449H48.1935ZM50.3662 30.2233V31.3672H49.0881V31.2401H49.2798C49.5354 31.2401 49.791 31.113 49.9827 30.9224C50.1745 30.7317 50.3023 30.5411 50.3662 30.2233ZM52.6666 20.3729V31.3672H50.3023V20.3729H52.6666ZM52.6666 30.2233C52.7305 30.4775 52.8583 30.7317 53.05 30.9224C53.2417 31.113 53.4973 31.2401 53.7529 31.2401H53.9446V31.3672H52.6666V30.2233ZM56.5645 20.0552V20.5L54.6475 20.3094C54.9031 20.3094 55.0948 20.3094 55.4143 20.2458C55.6699 20.2458 55.9255 20.1823 56.1172 20.1187C56.3089 20.1187 56.5006 20.1187 56.5645 20.0552ZM56.5645 20.9449V22.7879H56.4367V22.5972C56.4367 22.0888 56.3089 21.7075 55.9894 21.4533C55.6699 21.1355 55.2865 21.0084 54.8392 21.0084V20.9449H56.5645Z" fill="white"/>
<path d="M58.7374 21.517C58.6735 21.2628 58.5457 21.0086 58.354 20.818C58.1623 20.6273 57.9067 20.5002 57.6511 20.5002C57.6511 20.5002 57.5872 20.5002 57.5233 20.5002C57.4594 20.5002 57.4594 20.5002 57.3955 20.5002V20.3731H58.6735V21.517H58.7374ZM58.7374 30.2235V31.3674H57.4594V31.2403C57.4594 31.2403 57.5233 31.2403 57.5872 31.2403C57.6511 31.2403 57.6511 31.2403 57.715 31.2403C57.9706 31.2403 58.2262 31.1132 58.4179 30.9226C58.6096 30.7319 58.6735 30.5413 58.7374 30.2235ZM61.1017 20.3731V31.431H58.7374V20.3731H61.1017ZM62.9549 20.3731C63.4022 20.3731 63.9134 20.4367 64.3607 20.5002C64.808 20.6273 65.1914 20.7544 65.5748 21.0086C65.9582 21.2628 66.2138 21.517 66.4055 21.8983C66.5972 22.2796 66.725 22.7245 66.725 23.2965C66.725 23.7413 66.6611 24.1862 66.4694 24.631C66.2777 25.0759 66.0221 25.4572 65.6387 25.7749C65.2553 26.0927 64.7441 26.2834 64.169 26.3469C64.4885 26.474 64.808 26.6647 65.1275 26.9189C65.3831 27.1731 65.6387 27.4908 65.8304 27.745C65.8304 27.745 65.8943 27.8721 66.0221 27.9992C66.1499 28.1899 66.2777 28.3805 66.4055 28.6347C66.5972 28.8889 66.725 29.1432 66.9167 29.3974C67.1084 29.6516 67.2362 29.8422 67.4279 30.0329C67.6835 30.2871 67.8752 30.5413 68.0669 30.7319C68.2587 30.9226 68.4504 31.0497 68.6421 31.1132C68.8338 31.1768 69.0894 31.2403 69.345 31.2403V31.3674H67.8113C67.2362 31.3674 66.725 31.3039 66.2777 31.2403C65.8304 31.1132 65.3831 30.9861 65.0636 30.7319C64.6802 30.4777 64.4246 30.1599 64.1051 29.7786C64.0412 29.6515 63.9134 29.4609 63.8495 29.2702C63.7217 29.0796 63.6578 28.8889 63.53 28.6347C63.4022 28.4441 63.3383 28.1899 63.2105 27.9992C63.0827 27.8086 63.0188 27.6179 62.9549 27.4273C62.891 27.2366 62.8271 27.1095 62.8271 27.046C62.6993 26.7282 62.5076 26.474 62.3159 26.2833C62.1242 26.0927 61.9325 26.0291 61.7408 25.9656V25.8385C61.7408 25.8385 61.8047 25.8385 61.9325 25.8385C61.9964 25.8385 62.1242 25.8385 62.252 25.8385C62.5076 25.8385 62.8271 25.7749 63.0827 25.6478C63.3383 25.5207 63.5939 25.3301 63.7856 25.0759C63.9773 24.8217 64.169 24.4404 64.2329 23.9955C64.2329 23.932 64.2968 23.8049 64.2968 23.6778C64.2968 23.5507 64.2968 23.4236 64.2968 23.2329C64.2968 22.4703 64.1051 21.8983 63.7217 21.5806C63.4022 21.1993 62.9549 21.0722 62.4437 21.0086C62.3159 21.0086 62.1242 21.0086 61.9325 21.0086C61.7408 21.0086 61.613 21.0086 61.4852 21.0086C61.3574 21.0086 61.2296 21.0086 61.1657 21.0086C61.1657 21.0086 61.1657 20.9451 61.1017 20.818C61.1017 20.6909 61.0379 20.5638 60.9739 20.3096H62.9549V20.3731ZM61.0379 30.2235C61.1018 30.4777 61.1657 30.7319 61.3574 30.9226C61.5491 31.1132 61.8047 31.2403 62.0603 31.2403C62.0603 31.2403 62.1242 31.2403 62.252 31.2403V31.3674H60.9739V30.2235H61.0379Z" fill="white"/>
<path d="M70.6223 30.2233C70.5584 30.414 70.4945 30.6046 70.5584 30.7317C70.6223 30.8588 70.6862 30.9859 70.814 31.0495C70.9418 31.113 71.0696 31.1766 71.1974 31.1766H71.3252V31.3037H67.9385V31.1766H68.0663C68.3219 31.1766 68.5775 31.113 68.8331 30.9224C69.0887 30.7953 69.2804 30.5411 69.4721 30.1598H70.6223V30.2233ZM74.0091 20.0552L74.073 21.9617L70.1111 31.3672H68.9609L73.0505 22.1523C73.0505 22.0888 73.1144 21.9617 73.2422 21.7711C73.3061 21.5804 73.4339 21.3897 73.4978 21.1991C73.5617 21.0084 73.6895 20.7542 73.7534 20.5636C73.8173 20.3729 73.8812 20.1823 73.8812 20.0552H74.0091ZM75.7344 27.6177V28.2532H71.0696V27.6177H75.7344ZM74.0091 20.0552L79.185 31.3037H76.3095L72.9866 23.1056L74.0091 20.0552ZM75.9261 30.2233H78.6738C78.8655 30.6046 79.0572 30.8588 79.3128 30.9859C79.5684 31.113 79.824 31.2401 80.0796 31.2401H80.2074V31.3672H75.2232V31.2401H75.351C75.5427 31.2401 75.7344 31.1766 75.9261 30.9859C76.0539 30.7953 76.0539 30.5411 75.9261 30.2233Z" fill="white"/>
<path d="M81.7419 21.517C81.678 21.2628 81.6141 21.0086 81.4224 20.8179C81.2307 20.6273 80.9751 20.5002 80.7195 20.5002H80.5278V20.373H81.8058V21.517H81.7419ZM81.7419 30.2234V31.3673H80.4639V31.2402H80.6556C80.9112 31.2402 81.1668 31.1131 81.3585 30.9225C81.5502 30.7318 81.678 30.5412 81.7419 30.2234ZM84.0423 20.373V31.4309H81.678V20.373H84.0423ZM86.2149 20.373C87.493 20.373 88.5154 20.6273 89.4739 21.0721C90.3685 21.517 91.0714 22.1525 91.5826 22.9786C92.0938 23.8048 92.3494 24.7581 92.3494 25.902C92.3494 27.0459 92.0938 27.9991 91.5826 28.8253C91.0714 29.6515 90.3685 30.287 89.4739 30.7318C88.5793 31.1767 87.493 31.4309 86.2149 31.4309H82.4448V30.7954C82.7643 30.7954 83.0838 30.7954 83.4033 30.7954C83.7228 30.7954 84.0423 30.7954 84.3618 30.7954C84.6813 30.7954 84.9369 30.7954 85.1925 30.7954C85.4481 30.7954 85.7037 30.7954 86.0232 30.7954C86.79 30.7954 87.4291 30.6047 88.0042 30.2234C88.5793 29.8421 88.9627 29.2702 89.2822 28.5711C89.6017 27.872 89.7295 26.9823 89.7295 25.9655C89.7295 24.9487 89.6017 24.1226 89.2822 23.3599C88.9627 22.6609 88.5793 22.0889 88.0042 21.7076C87.4291 21.3263 86.79 21.1357 86.0232 21.1357C85.7037 21.1357 85.4481 21.1357 85.1925 21.1357C84.9369 21.1357 84.6174 21.1357 84.2979 21.1357C83.9784 21.1357 83.6589 21.1357 83.2755 21.1357C82.956 21.1357 82.5726 21.1357 82.2531 21.1357V20.5002H86.2149V20.373Z" fill="white"/>
<path d="M94.5222 21.517C94.4583 21.2628 94.3305 21.0086 94.1388 20.8179C93.9471 20.6273 93.6914 20.5002 93.4358 20.5002H93.2441V20.373H94.5222V21.517ZM94.5222 30.2234V31.3673H93.2441V31.2402H93.4358C93.6914 31.2402 93.9471 31.1131 94.1388 30.9225C94.3944 30.7318 94.4583 30.5412 94.5222 30.2234ZM96.8865 20.373V31.4309H94.5222V20.373H96.8865ZM96.8226 21.517V20.373H98.1006V20.5002C98.1006 20.5002 98.0367 20.5002 97.9089 20.5002C97.6533 20.5002 97.3977 20.6273 97.206 20.8179C97.0143 21.0086 96.8865 21.2628 96.8226 21.517ZM96.8226 30.2234C96.8865 30.4776 97.0143 30.7318 97.206 30.9225C97.3977 31.1131 97.6533 31.2402 97.9089 31.2402C98.0367 31.2402 98.1006 31.2402 98.1006 31.2402V31.3673H96.8226V30.2234Z" fill="white"/>
<path d="M98.9307 20.0552C99.0585 20.1187 99.1863 20.1187 99.4419 20.1823C99.6336 20.2458 99.8892 20.2458 100.145 20.3094C100.4 20.3094 100.656 20.3729 100.848 20.3729L98.9307 20.5636V20.0552ZM109.091 20.3094V20.9449H98.9307V20.3094H109.091ZM100.72 20.9449C100.209 21.0084 99.8253 21.1355 99.5697 21.4533C99.2502 21.7711 99.1224 22.1524 99.1224 22.5972V22.7879H98.9946V20.9449H100.72ZM102.893 30.2233V31.3672H101.614V31.2401H101.806C102.062 31.2401 102.317 31.113 102.509 30.9224C102.701 30.7317 102.829 30.5411 102.893 30.2233ZM105.193 20.3729V31.3672H102.829V20.3729H105.193ZM105.193 30.2233C105.257 30.4775 105.385 30.7317 105.576 30.9224C105.768 31.113 106.024 31.2401 106.279 31.2401H106.471V31.3672H105.193V30.2233ZM109.091 20.0552V20.5L107.174 20.3094C107.429 20.3094 107.621 20.3094 107.941 20.2458C108.196 20.2458 108.452 20.1823 108.644 20.1187C108.835 20.1187 109.027 20.1187 109.091 20.0552ZM109.091 20.9449V22.7879H108.963V22.5972C108.963 22.0888 108.835 21.7075 108.516 21.4533C108.196 21.1355 107.813 21.0084 107.366 21.0084V20.9449H109.091Z" fill="white"/>
<path d="M111.263 21.517C111.199 21.2628 111.072 21.0086 110.88 20.8179C110.688 20.6273 110.433 20.5002 110.177 20.5002H109.985V20.373H111.263V21.517ZM111.263 30.2234V31.3673H109.985V31.2402H110.177C110.433 31.2402 110.688 31.1131 110.88 30.9225C111.072 30.7318 111.199 30.5412 111.263 30.2234ZM113.564 20.373V31.4309H111.199V20.373H113.564ZM113.5 21.517V20.373H114.778V20.5002C114.778 20.5002 114.714 20.5002 114.586 20.5002C114.331 20.5002 114.075 20.6273 113.883 20.8179C113.692 21.0086 113.564 21.2628 113.5 21.517ZM113.5 30.2234C113.564 30.4776 113.692 30.7318 113.883 30.9225C114.075 31.1131 114.331 31.2402 114.586 31.2402C114.714 31.2402 114.778 31.2402 114.778 31.2402V31.3673H113.5V30.2234Z" fill="white"/>
<path d="M122.127 20.1187C123.405 20.1187 124.491 20.3729 125.449 20.8177C126.408 21.2626 127.111 21.9616 127.622 22.7878C128.133 23.6139 128.389 24.6308 128.389 25.8382C128.389 27.0457 128.133 28.0625 127.622 28.8887C127.111 29.7148 126.408 30.4139 125.449 30.8587C124.491 31.3036 123.405 31.5578 122.127 31.5578C120.849 31.5578 119.762 31.3036 118.804 30.8587C117.845 30.4139 117.142 29.7148 116.631 28.8887C116.12 28.0625 115.864 27.0457 115.864 25.8382C115.864 24.6308 116.12 23.6139 116.631 22.7878C117.142 21.9616 117.845 21.2626 118.804 20.8177C119.762 20.3729 120.849 20.1187 122.127 20.1187ZM122.127 30.9223C122.893 30.9223 123.532 30.7316 124.044 30.2868C124.555 29.8419 125.002 29.27 125.322 28.5074C125.641 27.7447 125.769 26.855 125.769 25.8382C125.769 24.8214 125.641 23.8681 125.322 23.1691C125.002 22.4065 124.619 21.8345 124.044 21.3897C123.532 20.9448 122.829 20.7542 122.127 20.7542C121.36 20.7542 120.721 20.9448 120.21 21.3897C119.634 21.8345 119.251 22.4065 118.931 23.1691C118.612 23.9317 118.484 24.8214 118.484 25.8382C118.484 26.855 118.612 27.8083 118.931 28.5074C119.251 29.27 119.634 29.8419 120.21 30.2868C120.785 30.7316 121.424 30.9223 122.127 30.9223Z" fill="white"/>
<path d="M130.562 30.2868V31.4307H129.22V31.3036C129.411 31.3036 129.539 31.3036 129.539 31.3036C129.795 31.3036 130.05 31.24 130.242 31.0494C130.434 30.8587 130.498 30.541 130.562 30.2868ZM130.434 20.1187L132.734 22.5336V31.3671H130.498V22.0887C130.498 21.5168 130.434 20.8177 130.306 20.1187H130.434ZM130.434 20.1187L140.53 29.7148L140.722 31.6214L130.626 22.0252L130.434 20.1187ZM132.734 30.2868C132.734 30.541 132.798 30.7952 132.99 30.9859C133.182 31.1765 133.437 31.2401 133.693 31.2401C133.693 31.2401 133.821 31.2401 134.012 31.2401V31.3671H132.734V30.2868ZM137.207 20.3729H138.549V21.5168C138.549 21.2626 138.421 21.0084 138.23 20.8177C138.038 20.6271 137.846 20.5635 137.527 20.5635C137.335 20.5635 137.207 20.5635 137.207 20.5635V20.3729ZM140.722 20.3729V29.5877C140.722 29.969 140.722 30.3503 140.786 30.6045C140.786 30.9223 140.85 31.2401 140.914 31.5578H140.786L138.485 29.0158V20.3093H140.722V20.3729ZM142 20.3729V20.5H141.68C141.425 20.5 141.169 20.5635 140.977 20.7542C140.786 20.9448 140.658 21.1355 140.658 21.4532H140.594V20.3093H142V20.3729Z" fill="white"/>
<path d="M57.6514 12.1112L57.7792 14.8439C57.5236 15.2252 57.2041 15.6065 56.8206 15.9243C56.4372 16.242 55.926 16.4963 55.3509 16.6869C54.7758 16.8776 54.0729 17.0047 53.3061 17.0047C52.0281 17.0047 50.8779 16.7505 49.9194 16.3056C48.9608 15.8607 48.194 15.2252 47.6828 14.3355C47.1716 13.5094 46.916 12.429 46.916 11.2215C46.916 10.0141 47.1716 8.99724 47.6828 8.17108C48.194 7.34492 48.9608 6.64587 49.9194 6.20102C50.8779 5.75616 52.0281 5.50195 53.37 5.50195C54.2007 5.50195 54.9675 5.5655 55.6704 5.75615C56.3733 5.94681 56.8846 6.13746 57.3319 6.39166V9.0608H57.2041C56.9485 8.04399 56.4373 7.28138 55.7982 6.83652C55.1592 6.39167 54.3924 6.13746 53.5617 6.13746C52.731 6.13746 51.9642 6.32811 51.3891 6.77297C50.814 7.15428 50.3028 7.78977 49.9833 8.48883C49.6638 9.25144 49.4721 10.1412 49.4721 11.158C49.4721 12.1748 49.5998 13.1281 49.9194 13.8271C50.2389 14.5897 50.6862 15.1617 51.2613 15.6065C51.8364 16.0514 52.5393 16.242 53.3061 16.242C54.1368 16.242 54.7758 16.1149 55.3509 15.8607C55.926 15.6065 56.3733 15.1617 56.6929 14.5262C57.0124 13.8907 57.268 13.128 57.4597 12.0477H57.6514V12.1112Z" fill="#035055"/>
<path d="M60.3348 5.62945V6.58272H60.2709C60.2709 6.32851 60.207 6.13786 60.0153 6.01076C59.8236 5.88366 59.6319 5.82012 59.4402 5.82012H59.1846V5.69301H60.3348V5.62945ZM62.6352 5.62945V12.5565C62.6352 13.3191 62.763 13.9546 63.0186 14.5266C63.2742 15.0985 63.5937 15.4798 64.1049 15.7976C64.5522 16.1153 65.1274 16.2425 65.7664 16.2425C66.4054 16.2425 66.9805 16.1153 67.4278 15.7976C67.8751 15.5434 68.2585 15.0985 68.5141 14.5901C68.7697 14.0817 68.8975 13.4462 68.8975 12.7472V5.62945H70.0477V12.6836C70.0477 13.5733 69.856 14.2724 69.4726 14.9079C69.0892 15.5434 68.578 16.0518 67.8751 16.3696C67.1722 16.6873 66.3415 16.878 65.383 16.878C64.2327 16.878 63.3381 16.6873 62.5713 16.3696C61.8045 16.0518 61.2294 15.5434 60.846 14.9079C60.4626 14.2724 60.2709 13.5098 60.2709 12.6836V5.62945H62.6352ZM63.7215 5.62945V5.75656H63.4659C63.2103 5.75656 63.0186 5.82011 62.8908 5.94721C62.6991 6.07431 62.6352 6.26498 62.6352 6.51918V5.56592H63.7215V5.62945ZM68.8975 5.62945V6.58272H68.8336C68.8336 6.32851 68.7697 6.13786 68.578 6.01076C68.3863 5.88366 68.1946 5.82012 68.0029 5.82012H67.7473V5.69301H68.8975V5.62945ZM71.0701 5.62945V5.75656H70.8145C70.5589 5.75656 70.3672 5.82011 70.2394 5.94721C70.0477 6.07431 69.9838 6.26498 69.9838 6.51918V5.56592H71.0701V5.62945Z" fill="#035055"/>
<path d="M73.3063 6.83688C73.2424 6.58267 73.1146 6.32847 72.9229 6.13781C72.7312 5.94716 72.4756 5.82006 72.22 5.82006H72.0283V5.69295H73.3063V6.83688ZM73.3063 15.5433V16.6873H72.0283V16.5601H72.22C72.4756 16.5601 72.7312 16.433 72.9229 16.2424C73.1146 16.0517 73.2424 15.7975 73.3063 15.5433ZM75.6068 5.62939V16.6873H73.2424V5.62939H75.6068ZM75.6068 6.83688V5.69295H76.8848V5.82006C76.8848 5.82006 76.8209 5.82006 76.6931 5.82006C76.4375 5.82006 76.1819 5.94716 75.9902 6.13781C75.7346 6.32847 75.6068 6.51912 75.6068 6.83688ZM79.8242 15.9882L80.2076 16.6873H75.6068V15.9882H79.8242ZM80.9744 13.4462L80.2715 16.6873H77.1404L77.7155 15.9882C78.2267 15.9882 78.7379 15.8611 79.1213 15.6704C79.5047 15.4798 79.8881 15.162 80.1437 14.7807C80.3993 14.3994 80.6549 13.9546 80.8466 13.4462H80.9744Z" fill="#035055"/>
<path d="M79.9526 5.375C80.0804 5.43855 80.2082 5.43856 80.4638 5.50211C80.7194 5.56566 80.9111 5.56565 81.1667 5.6292C81.4223 5.6292 81.6779 5.69275 81.8696 5.69275L79.9526 5.88342V5.375ZM90.0489 5.6292V6.26471H79.8887V5.6292H90.0489ZM81.6779 6.26471C81.1667 6.32826 80.7833 6.45537 80.5277 6.77313C80.2082 7.09088 80.0804 7.47218 80.0804 7.91703V8.1077H79.9526V6.26471H81.6779ZM83.8505 15.5431V16.6871H82.5725V16.56H82.7642C83.0198 16.56 83.2754 16.4329 83.4671 16.2422C83.7227 16.0515 83.7866 15.7973 83.8505 15.5431ZM86.2149 5.69275V16.6871H83.8505V5.69275H86.2149ZM86.151 15.5431C86.2149 15.7973 86.3427 16.0515 86.5344 16.2422C86.7261 16.4329 86.9817 16.56 87.2373 16.56H87.429V16.6871H86.151V15.5431ZM90.0489 5.375V5.81986L88.1319 5.6292C88.3875 5.6292 88.5792 5.62922 88.8987 5.56566C89.1543 5.56566 89.4099 5.50211 89.6016 5.43855C89.7933 5.43855 89.985 5.375 90.0489 5.375ZM90.0489 6.26471V8.1077H89.9211V7.91703C89.9211 7.40863 89.7933 7.02733 89.4738 6.77313C89.1543 6.45537 88.7709 6.32826 88.3236 6.32826V6.26471H90.0489Z" fill="#035055"/>
<path d="M92.0301 5.62945V6.58272H91.9662C91.9662 6.32851 91.9023 6.13786 91.7106 6.01076C91.5189 5.88366 91.3272 5.82012 91.1355 5.82012H90.8799V5.69301H92.0301V5.62945ZM94.3305 5.62945V12.5565C94.3305 13.3191 94.4583 13.9546 94.7139 14.5266C94.9695 15.0985 95.289 15.4798 95.8002 15.7976C96.2476 16.1153 96.8227 16.2425 97.4617 16.2425C98.1007 16.2425 98.6758 16.1153 99.1231 15.7976C99.5704 15.5434 99.9538 15.0985 100.209 14.5901C100.465 14.0817 100.593 13.4462 100.593 12.7472V5.62945H101.743V12.6836C101.743 13.5733 101.551 14.2724 101.168 14.9079C100.785 15.5434 100.273 16.0518 99.5704 16.3696C98.8675 16.6873 98.0368 16.878 97.0783 16.878C95.928 16.878 95.0334 16.6873 94.2666 16.3696C93.4998 16.0518 92.9247 15.5434 92.5413 14.9079C92.1579 14.2724 91.9662 13.5098 91.9662 12.6836V5.62945H94.3305ZM95.4168 5.62945V5.75656H95.1612C94.9056 5.75656 94.7139 5.82011 94.5861 5.94721C94.3944 6.07431 94.3305 6.26498 94.3305 6.51918V5.56592H95.4168V5.62945ZM100.593 5.62945V6.58272H100.529C100.529 6.32851 100.465 6.13786 100.273 6.01076C100.082 5.88366 99.8899 5.82012 99.6982 5.82012H99.4426V5.69301H100.593V5.62945ZM102.829 5.62945V5.75656H102.574C102.318 5.75656 102.126 5.82011 101.999 5.94721C101.807 6.07431 101.743 6.26498 101.743 6.51918V5.56592H102.829V5.62945Z" fill="#035055"/>
<path d="M105.066 6.83688C105.002 6.58267 104.874 6.32847 104.682 6.13781C104.49 5.94716 104.235 5.82006 103.979 5.82006C103.979 5.82006 103.915 5.82006 103.851 5.82006C103.788 5.82006 103.788 5.82006 103.724 5.82006V5.69295H105.002V6.83688H105.066ZM105.066 15.5433V16.6873H103.788V16.5601C103.788 16.5601 103.851 16.5601 103.915 16.5601C103.979 16.5601 103.979 16.5601 104.043 16.5601C104.299 16.5601 104.554 16.433 104.746 16.2424C104.874 16.0517 105.002 15.7975 105.066 15.5433ZM107.366 5.62939V16.6873H105.002V5.62939H107.366ZM109.219 5.62939C109.666 5.62939 110.178 5.69295 110.625 5.7565C111.072 5.88361 111.456 6.0107 111.839 6.2649C112.222 6.51911 112.478 6.77333 112.67 7.15463C112.861 7.53594 112.989 7.98078 112.989 8.55274C112.989 8.99759 112.925 9.44245 112.734 9.88731C112.542 10.3322 112.286 10.7135 111.903 11.0312C111.52 11.349 111.008 11.5396 110.433 11.6032C110.753 11.7303 111.072 11.9209 111.392 12.1751C111.647 12.4293 111.903 12.7471 112.095 13.0013C112.095 13.0013 112.159 13.1284 112.286 13.2555C112.414 13.4461 112.542 13.6368 112.67 13.891C112.861 14.1452 112.989 14.3994 113.181 14.6536C113.373 14.9078 113.5 15.0985 113.692 15.2891C113.948 15.5433 114.139 15.7975 114.331 15.9882C114.523 16.1788 114.715 16.306 114.906 16.3695C115.098 16.4331 115.354 16.4966 115.609 16.4966V16.6237H114.076C113.5 16.6237 112.989 16.5601 112.542 16.4966C112.095 16.3695 111.647 16.2424 111.328 15.9882C110.944 15.734 110.689 15.4162 110.369 15.0349C110.305 14.9078 110.178 14.7172 110.114 14.5265C109.986 14.3359 109.922 14.1452 109.794 13.891C109.666 13.6368 109.603 13.4461 109.475 13.2555C109.347 13.0648 109.283 12.8742 109.219 12.6835C109.155 12.4929 109.091 12.3658 109.091 12.3022C108.963 11.9845 108.772 11.7303 108.58 11.5396C108.388 11.349 108.197 11.2854 108.005 11.2219V11.1583C108.005 11.1583 108.069 11.1583 108.197 11.1583C108.261 11.1583 108.388 11.1583 108.516 11.1583C108.772 11.1583 109.091 11.0948 109.347 10.9677C109.603 10.8406 109.858 10.6499 110.05 10.3957C110.242 10.1415 110.433 9.76021 110.497 9.31536C110.497 9.2518 110.561 9.1247 110.561 8.9976C110.561 8.8705 110.561 8.74339 110.561 8.55274C110.561 7.79013 110.369 7.21817 109.986 6.90041C109.666 6.51911 109.219 6.39201 108.708 6.32846C108.58 6.32846 108.388 6.32846 108.197 6.32846C108.005 6.32846 107.877 6.32846 107.749 6.32846C107.622 6.32846 107.494 6.32846 107.43 6.32846C107.43 6.32846 107.43 6.26491 107.366 6.13781C107.366 6.01071 107.302 5.8836 107.238 5.62939H109.219ZM107.302 15.5433C107.366 15.7975 107.43 16.0517 107.622 16.2424C107.813 16.433 108.069 16.5601 108.324 16.5601C108.324 16.5601 108.388 16.5601 108.516 16.5601V16.6873H107.238V15.5433H107.302Z" fill="#035055"/>
<path d="M116.95 15.5432C116.887 15.7339 116.823 15.9245 116.887 16.0516C116.95 16.1787 117.014 16.3058 117.142 16.3694C117.27 16.4329 117.398 16.4965 117.526 16.4965H117.653V16.6236H114.267V16.4965H114.394C114.65 16.4965 114.906 16.4329 115.161 16.2423C115.417 16.1152 115.609 15.861 115.8 15.4797H116.95V15.5432ZM120.337 5.31152L120.401 7.21805L116.439 16.6236H115.289L119.379 7.40871C119.379 7.34516 119.443 7.21806 119.57 7.0274C119.634 6.83675 119.762 6.6461 119.826 6.45545C119.89 6.2648 120.018 6.01059 120.082 5.81994C120.145 5.62929 120.209 5.43863 120.209 5.31152H120.337ZM121.999 12.9376V13.5731H117.334V12.9376H121.999ZM120.337 5.31152L125.513 16.56H122.638L119.315 8.36198L120.337 5.31152ZM122.254 15.5432H125.002C125.194 15.9245 125.385 16.1787 125.641 16.3058C125.897 16.4329 126.152 16.56 126.408 16.56H126.536V16.6871H121.487V16.56H121.615C121.807 16.56 121.999 16.4965 122.19 16.3058C122.318 16.1152 122.382 15.861 122.254 15.5432Z" fill="#035055"/>
<path d="M128.006 6.83688C127.942 6.58267 127.814 6.32847 127.622 6.13781C127.43 5.94716 127.175 5.82006 126.919 5.82006H126.728V5.69295H128.006V6.83688ZM128.006 15.5433V16.6873H126.728V16.5601H126.919C127.175 16.5601 127.43 16.433 127.622 16.2424C127.878 16.0517 127.942 15.7975 128.006 15.5433ZM130.37 5.62939V16.6873H128.006V5.62939H130.37ZM130.306 6.83688V5.69295H131.584V5.82006C131.584 5.82006 131.52 5.82006 131.392 5.82006C131.137 5.82006 130.881 5.94716 130.689 6.13781C130.498 6.32847 130.37 6.51912 130.306 6.83688ZM134.523 15.9882L134.907 16.6873H130.306V15.9882H134.523ZM135.674 13.4462L134.971 16.6873H131.84L132.415 15.9882C132.926 15.9882 133.437 15.8611 133.821 15.6704C134.204 15.4798 134.587 15.162 134.843 14.7807C135.099 14.3994 135.354 13.9546 135.546 13.4462H135.674Z" fill="#035055"/>
<path d="M46.4043 20.0552C46.5321 20.1187 46.6599 20.1187 46.9155 20.1823C47.1072 20.2458 47.3628 20.2458 47.6184 20.3094C47.874 20.3094 48.1296 20.3729 48.3213 20.3729L46.4043 20.5636V20.0552ZM56.5645 20.3094V20.9449H46.4043V20.3094H56.5645ZM48.1935 20.9449C47.6823 21.0084 47.2989 21.1355 47.0433 21.4533C46.7238 21.7711 46.596 22.1524 46.596 22.5972V22.7879H46.4682V20.9449H48.1935ZM50.3662 30.2233V31.3672H49.0881V31.2401H49.2798C49.5354 31.2401 49.791 31.113 49.9827 30.9224C50.1745 30.7317 50.3023 30.5411 50.3662 30.2233ZM52.6666 20.3729V31.3672H50.3023V20.3729H52.6666ZM52.6666 30.2233C52.7305 30.4775 52.8583 30.7317 53.05 30.9224C53.2417 31.113 53.4973 31.2401 53.7529 31.2401H53.9446V31.3672H52.6666V30.2233ZM56.5645 20.0552V20.5L54.6475 20.3094C54.9031 20.3094 55.0948 20.3094 55.4143 20.2458C55.6699 20.2458 55.9255 20.1823 56.1172 20.1187C56.3089 20.1187 56.5006 20.1187 56.5645 20.0552ZM56.5645 20.9449V22.7879H56.4367V22.5972C56.4367 22.0888 56.3089 21.7075 55.9894 21.4533C55.6699 21.1355 55.2865 21.0084 54.8392 21.0084V20.9449H56.5645Z" fill="#035055"/>
<path d="M58.7374 21.517C58.6735 21.2628 58.5457 21.0086 58.354 20.818C58.1623 20.6273 57.9067 20.5002 57.6511 20.5002C57.6511 20.5002 57.5872 20.5002 57.5233 20.5002C57.4594 20.5002 57.4594 20.5002 57.3955 20.5002V20.3731H58.6735V21.517H58.7374ZM58.7374 30.2235V31.3674H57.4594V31.2403C57.4594 31.2403 57.5233 31.2403 57.5872 31.2403C57.6511 31.2403 57.6511 31.2403 57.715 31.2403C57.9706 31.2403 58.2262 31.1132 58.4179 30.9226C58.6096 30.7319 58.6735 30.5413 58.7374 30.2235ZM61.1017 20.3731V31.431H58.7374V20.3731H61.1017ZM62.9549 20.3731C63.4022 20.3731 63.9134 20.4367 64.3607 20.5002C64.808 20.6273 65.1914 20.7544 65.5748 21.0086C65.9582 21.2628 66.2138 21.517 66.4055 21.8983C66.5972 22.2796 66.725 22.7245 66.725 23.2965C66.725 23.7413 66.6611 24.1862 66.4694 24.631C66.2777 25.0759 66.0221 25.4572 65.6387 25.7749C65.2553 26.0927 64.7441 26.2834 64.169 26.3469C64.4885 26.474 64.808 26.6647 65.1275 26.9189C65.3831 27.1731 65.6387 27.4908 65.8304 27.745C65.8304 27.745 65.8943 27.8721 66.0221 27.9992C66.1499 28.1899 66.2777 28.3805 66.4055 28.6347C66.5972 28.8889 66.725 29.1432 66.9167 29.3974C67.1084 29.6516 67.2362 29.8422 67.4279 30.0329C67.6835 30.2871 67.8752 30.5413 68.0669 30.7319C68.2587 30.9226 68.4504 31.0497 68.6421 31.1132C68.8338 31.1768 69.0894 31.2403 69.345 31.2403V31.3674H67.8113C67.2362 31.3674 66.725 31.3039 66.2777 31.2403C65.8304 31.1132 65.3831 30.9861 65.0636 30.7319C64.6802 30.4777 64.4246 30.1599 64.1051 29.7786C64.0412 29.6515 63.9134 29.4609 63.8495 29.2702C63.7217 29.0796 63.6578 28.8889 63.53 28.6347C63.4022 28.4441 63.3383 28.1899 63.2105 27.9992C63.0827 27.8086 63.0188 27.6179 62.9549 27.4273C62.891 27.2366 62.8271 27.1095 62.8271 27.046C62.6993 26.7282 62.5076 26.474 62.3159 26.2833C62.1242 26.0927 61.9325 26.0291 61.7408 25.9656V25.8385C61.7408 25.8385 61.8047 25.8385 61.9325 25.8385C61.9964 25.8385 62.1242 25.8385 62.252 25.8385C62.5076 25.8385 62.8271 25.7749 63.0827 25.6478C63.3383 25.5207 63.5939 25.3301 63.7856 25.0759C63.9773 24.8217 64.169 24.4404 64.2329 23.9955C64.2329 23.932 64.2968 23.8049 64.2968 23.6778C64.2968 23.5507 64.2968 23.4236 64.2968 23.2329C64.2968 22.4703 64.1051 21.8983 63.7217 21.5806C63.4022 21.1993 62.9549 21.0722 62.4437 21.0086C62.3159 21.0086 62.1242 21.0086 61.9325 21.0086C61.7408 21.0086 61.613 21.0086 61.4852 21.0086C61.3574 21.0086 61.2296 21.0086 61.1657 21.0086C61.1657 21.0086 61.1657 20.9451 61.1017 20.818C61.1017 20.6909 61.0379 20.5638 60.9739 20.3096H62.9549V20.3731ZM61.0379 30.2235C61.1018 30.4777 61.1657 30.7319 61.3574 30.9226C61.5491 31.1132 61.8047 31.2403 62.0603 31.2403C62.0603 31.2403 62.1242 31.2403 62.252 31.2403V31.3674H60.9739V30.2235H61.0379Z" fill="#035055"/>
<path d="M70.6223 30.2233C70.5584 30.414 70.4945 30.6046 70.5584 30.7317C70.6223 30.8588 70.6862 30.9859 70.814 31.0495C70.9418 31.113 71.0696 31.1766 71.1974 31.1766H71.3252V31.3037H67.9385V31.1766H68.0663C68.3219 31.1766 68.5775 31.113 68.8331 30.9224C69.0887 30.7953 69.2804 30.5411 69.4721 30.1598H70.6223V30.2233ZM74.0091 20.0552L74.073 21.9617L70.1111 31.3672H68.9609L73.0505 22.1523C73.0505 22.0888 73.1144 21.9617 73.2422 21.7711C73.3061 21.5804 73.4339 21.3897 73.4978 21.1991C73.5617 21.0084 73.6895 20.7542 73.7534 20.5636C73.8173 20.3729 73.8812 20.1823 73.8812 20.0552H74.0091ZM75.7344 27.6177V28.2532H71.0696V27.6177H75.7344ZM74.0091 20.0552L79.185 31.3037H76.3095L72.9866 23.1056L74.0091 20.0552ZM75.9261 30.2233H78.6738C78.8655 30.6046 79.0572 30.8588 79.3128 30.9859C79.5684 31.113 79.824 31.2401 80.0796 31.2401H80.2074V31.3672H75.2232V31.2401H75.351C75.5427 31.2401 75.7344 31.1766 75.9261 30.9859C76.0539 30.7953 76.0539 30.5411 75.9261 30.2233Z" fill="#035055"/>
<path d="M81.7419 21.517C81.678 21.2628 81.6141 21.0086 81.4224 20.8179C81.2307 20.6273 80.9751 20.5002 80.7195 20.5002H80.5278V20.373H81.8058V21.517H81.7419ZM81.7419 30.2234V31.3673H80.4639V31.2402H80.6556C80.9112 31.2402 81.1668 31.1131 81.3585 30.9225C81.5502 30.7318 81.678 30.5412 81.7419 30.2234ZM84.0423 20.373V31.4309H81.678V20.373H84.0423ZM86.2149 20.373C87.493 20.373 88.5154 20.6273 89.4739 21.0721C90.3685 21.517 91.0714 22.1525 91.5826 22.9786C92.0938 23.8048 92.3494 24.7581 92.3494 25.902C92.3494 27.0459 92.0938 27.9991 91.5826 28.8253C91.0714 29.6515 90.3685 30.287 89.4739 30.7318C88.5793 31.1767 87.493 31.4309 86.2149 31.4309H82.4448V30.7954C82.7643 30.7954 83.0838 30.7954 83.4033 30.7954C83.7228 30.7954 84.0423 30.7954 84.3618 30.7954C84.6813 30.7954 84.9369 30.7954 85.1925 30.7954C85.4481 30.7954 85.7037 30.7954 86.0232 30.7954C86.79 30.7954 87.4291 30.6047 88.0042 30.2234C88.5793 29.8421 88.9627 29.2702 89.2822 28.5711C89.6017 27.872 89.7295 26.9823 89.7295 25.9655C89.7295 24.9487 89.6017 24.1226 89.2822 23.3599C88.9627 22.6609 88.5793 22.0889 88.0042 21.7076C87.4291 21.3263 86.79 21.1357 86.0232 21.1357C85.7037 21.1357 85.4481 21.1357 85.1925 21.1357C84.9369 21.1357 84.6174 21.1357 84.2979 21.1357C83.9784 21.1357 83.6589 21.1357 83.2755 21.1357C82.956 21.1357 82.5726 21.1357 82.2531 21.1357V20.5002H86.2149V20.373Z" fill="#035055"/>
<path d="M94.5222 21.517C94.4583 21.2628 94.3305 21.0086 94.1388 20.8179C93.9471 20.6273 93.6914 20.5002 93.4358 20.5002H93.2441V20.373H94.5222V21.517ZM94.5222 30.2234V31.3673H93.2441V31.2402H93.4358C93.6914 31.2402 93.9471 31.1131 94.1388 30.9225C94.3944 30.7318 94.4583 30.5412 94.5222 30.2234ZM96.8865 20.373V31.4309H94.5222V20.373H96.8865ZM96.8226 21.517V20.373H98.1006V20.5002C98.1006 20.5002 98.0367 20.5002 97.9089 20.5002C97.6533 20.5002 97.3977 20.6273 97.206 20.8179C97.0143 21.0086 96.8865 21.2628 96.8226 21.517ZM96.8226 30.2234C96.8865 30.4776 97.0143 30.7318 97.206 30.9225C97.3977 31.1131 97.6533 31.2402 97.9089 31.2402C98.0367 31.2402 98.1006 31.2402 98.1006 31.2402V31.3673H96.8226V30.2234Z" fill="#035055"/>
<path d="M98.9307 20.0552C99.0585 20.1187 99.1863 20.1187 99.4419 20.1823C99.6336 20.2458 99.8892 20.2458 100.145 20.3094C100.4 20.3094 100.656 20.3729 100.848 20.3729L98.9307 20.5636V20.0552ZM109.091 20.3094V20.9449H98.9307V20.3094H109.091ZM100.72 20.9449C100.209 21.0084 99.8253 21.1355 99.5697 21.4533C99.2502 21.7711 99.1224 22.1524 99.1224 22.5972V22.7879H98.9946V20.9449H100.72ZM102.893 30.2233V31.3672H101.614V31.2401H101.806C102.062 31.2401 102.317 31.113 102.509 30.9224C102.701 30.7317 102.829 30.5411 102.893 30.2233ZM105.193 20.3729V31.3672H102.829V20.3729H105.193ZM105.193 30.2233C105.257 30.4775 105.385 30.7317 105.576 30.9224C105.768 31.113 106.024 31.2401 106.279 31.2401H106.471V31.3672H105.193V30.2233ZM109.091 20.0552V20.5L107.174 20.3094C107.429 20.3094 107.621 20.3094 107.941 20.2458C108.196 20.2458 108.452 20.1823 108.644 20.1187C108.835 20.1187 109.027 20.1187 109.091 20.0552ZM109.091 20.9449V22.7879H108.963V22.5972C108.963 22.0888 108.835 21.7075 108.516 21.4533C108.196 21.1355 107.813 21.0084 107.366 21.0084V20.9449H109.091Z" fill="#035055"/>
<path d="M111.263 21.517C111.199 21.2628 111.072 21.0086 110.88 20.8179C110.688 20.6273 110.433 20.5002 110.177 20.5002H109.985V20.373H111.263V21.517ZM111.263 30.2234V31.3673H109.985V31.2402H110.177C110.433 31.2402 110.688 31.1131 110.88 30.9225C111.072 30.7318 111.199 30.5412 111.263 30.2234ZM113.564 20.373V31.4309H111.199V20.373H113.564ZM113.5 21.517V20.373H114.778V20.5002C114.778 20.5002 114.714 20.5002 114.586 20.5002C114.331 20.5002 114.075 20.6273 113.883 20.8179C113.692 21.0086 113.564 21.2628 113.5 21.517ZM113.5 30.2234C113.564 30.4776 113.692 30.7318 113.883 30.9225C114.075 31.1131 114.331 31.2402 114.586 31.2402C114.714 31.2402 114.778 31.2402 114.778 31.2402V31.3673H113.5V30.2234Z" fill="#035055"/>
<path d="M122.127 20.1187C123.405 20.1187 124.491 20.3729 125.449 20.8177C126.408 21.2626 127.111 21.9616 127.622 22.7878C128.133 23.6139 128.389 24.6308 128.389 25.8382C128.389 27.0457 128.133 28.0625 127.622 28.8887C127.111 29.7148 126.408 30.4139 125.449 30.8587C124.491 31.3036 123.405 31.5578 122.127 31.5578C120.849 31.5578 119.762 31.3036 118.804 30.8587C117.845 30.4139 117.142 29.7148 116.631 28.8887C116.12 28.0625 115.864 27.0457 115.864 25.8382C115.864 24.6308 116.12 23.6139 116.631 22.7878C117.142 21.9616 117.845 21.2626 118.804 20.8177C119.762 20.3729 120.849 20.1187 122.127 20.1187ZM122.127 30.9223C122.893 30.9223 123.532 30.7316 124.044 30.2868C124.555 29.8419 125.002 29.27 125.322 28.5074C125.641 27.7447 125.769 26.855 125.769 25.8382C125.769 24.8214 125.641 23.8681 125.322 23.1691C125.002 22.4065 124.619 21.8345 124.044 21.3897C123.532 20.9448 122.829 20.7542 122.127 20.7542C121.36 20.7542 120.721 20.9448 120.21 21.3897C119.634 21.8345 119.251 22.4065 118.931 23.1691C118.612 23.9317 118.484 24.8214 118.484 25.8382C118.484 26.855 118.612 27.8083 118.931 28.5074C119.251 29.27 119.634 29.8419 120.21 30.2868C120.785 30.7316 121.424 30.9223 122.127 30.9223Z" fill="#035055"/>
<path d="M130.562 30.2868V31.4307H129.22V31.3036C129.411 31.3036 129.539 31.3036 129.539 31.3036C129.795 31.3036 130.05 31.24 130.242 31.0494C130.434 30.8587 130.498 30.541 130.562 30.2868ZM130.434 20.1187L132.734 22.5336V31.3671H130.498V22.0887C130.498 21.5168 130.434 20.8177 130.306 20.1187H130.434ZM130.434 20.1187L140.53 29.7148L140.722 31.6214L130.626 22.0252L130.434 20.1187ZM132.734 30.2868C132.734 30.541 132.798 30.7952 132.99 30.9859C133.182 31.1765 133.437 31.2401 133.693 31.2401C133.693 31.2401 133.821 31.2401 134.012 31.2401V31.3671H132.734V30.2868ZM137.207 20.3729H138.549V21.5168C138.549 21.2626 138.421 21.0084 138.23 20.8177C138.038 20.6271 137.846 20.5635 137.527 20.5635C137.335 20.5635 137.207 20.5635 137.207 20.5635V20.3729ZM140.722 20.3729V29.5877C140.722 29.969 140.722 30.3503 140.786 30.6045C140.786 30.9223 140.85 31.2401 140.914 31.5578H140.786L138.485 29.0158V20.3093H140.722V20.3729ZM142 20.3729V20.5H141.68C141.425 20.5 141.169 20.5635 140.977 20.7542C140.786 20.9448 140.658 21.1355 140.658 21.4532H140.594V20.3093H142V20.3729Z" fill="#035055"/>
</svg>
