<svg width="18" height="18" viewBox="0 0 18 18" fill="none" xmlns="http://www.w3.org/2000/svg">
<rect width="18" height="18" rx="2" fill="white"/>
<rect width="18" height="18" rx="2" fill="#C19D58"/>
<path fill-rule="evenodd" clip-rule="evenodd" d="M5.06792 12.1756C4.89141 12.1233 4.73035 12.0304 4.59834 11.9047C4.46632 11.7789 4.36724 11.624 4.30943 11.4531C3.97912 10.5693 3.88125 6.87912 4.5174 6.15063C4.72913 5.91365 5.02806 5.76775 5.3493 5.74459C7.05591 5.56546 12.3287 5.58934 12.9342 5.8043C13.1046 5.85825 13.2602 5.94912 13.3894 6.0701C13.5187 6.19109 13.6182 6.33907 13.6805 6.50293C14.0414 7.41653 14.0536 10.7365 13.6316 11.6143C13.5196 11.8428 13.3322 12.0278 13.0994 12.1397C12.4632 12.4502 5.91206 12.4443 5.06792 12.1756ZM7.77771 10.4439L10.8361 8.89141L7.77771 7.32696V10.4439Z" fill="white"/>
</svg>
