<svg width="88" height="60" viewBox="0 0 88 60" fill="none" xmlns="http://www.w3.org/2000/svg">
<g id="Amex">
<rect id="Rectangle" x="0.5" y="0.5" width="87" height="59" rx="3.5" fill="#006FCF" stroke="#F3F3F3"/>
<path id="Amex_2" fill-rule="evenodd" clip-rule="evenodd" d="M19.4023 43.6647V32.123H32.6208L34.039 33.8323L35.5041 32.123H83.4837V42.8687C83.4837 42.8687 82.2289 43.6532 80.7777 43.6647H54.2104L52.6115 41.8453V43.6647H47.3718V40.559C47.3718 40.559 46.6561 40.9925 45.1087 40.9925H43.3252V43.6647H35.3919L33.9758 41.9188L32.5378 43.6647H19.4023ZM4 23.4247L6.97405 17H12.1173L13.8052 20.5988V17H20.1988L21.2035 19.6011L22.1776 17H50.8782V18.3077C50.8782 18.3077 52.387 17 54.8665 17L64.1788 17.0302L65.8375 20.5819V17H71.188L72.6606 19.0402V17H78.0602V28.5417H72.6606L71.2494 26.4949V28.5417H63.3883L62.5978 26.7223H60.4844L59.7068 28.5417H54.3757C52.2421 28.5417 50.8782 27.2607 50.8782 27.2607V28.5417H42.8402L41.2449 26.7223V28.5417H11.3554L10.5654 26.7223H8.45882L7.67441 28.5417H4V23.4247ZM4.01553 27.0658L8.02687 18.4238H11.068L15.0755 27.0658H12.4064L11.6701 25.3353H7.36726L6.62712 27.0658H4.01553ZM10.8221 23.4595L9.5106 20.4355L8.19522 23.4595H10.8221ZM15.3516 27.0637V18.4217L19.0629 18.4345L21.2214 24.0063L23.3283 18.4217H27.0098V27.0637H24.6782V20.6959L22.2066 27.0637H20.1618L17.6833 20.6959V27.0637H15.3516ZM28.6055 27.0639V18.4219H36.214V20.355H30.9617V21.8332H36.0913V23.6526H30.9617V25.1877H36.214V27.0639H28.6055ZM37.5645 27.0659V18.4238H42.7531C44.4724 18.4238 46.0128 19.4089 46.0128 21.2275C46.0128 22.7822 44.714 23.7835 43.4549 23.882L46.5229 27.0659H43.6735L40.8778 23.9957H39.8961V27.0659H37.5645ZM42.5618 20.3574H39.8965V22.1768H42.5963C43.0636 22.1768 43.6662 21.8412 43.6662 21.2671C43.6662 20.8208 43.2011 20.3574 42.5618 20.3574ZM49.3436 27.0637H46.9629V18.4217H49.3436V27.0637ZM54.9903 27.0639H54.4765C51.9901 27.0639 50.4805 25.2488 50.4805 22.7784C50.4805 20.247 51.9732 18.4219 55.1131 18.4219H57.6901V20.4687H55.0188C53.7442 20.4687 52.8428 21.3904 52.8428 22.7998C52.8428 24.4734 53.8735 25.1763 55.3585 25.1763H55.9721L54.9903 27.0639ZM56.0527 27.0659L60.0641 18.4238H63.1052L67.1127 27.0659H64.4436L63.7073 25.3353H59.4045L58.6643 27.0659H56.0527ZM62.8593 23.4596L61.5478 20.4355L60.2324 23.4596H62.8593ZM67.3828 27.0639V18.4219H70.3472L74.1323 23.8516V18.4219H76.4639V27.0639H73.5954L69.7145 21.4921V27.0639H67.3828ZM20.9961 42.187V33.5449H28.6046V35.478H23.3523V36.9563H28.4819V38.7756H23.3523V40.3107H28.6046V42.187H20.9961ZM58.2773 42.187V33.5449H65.8858V35.478H60.6335V36.9563H65.7386V38.7756H60.6335V40.3107H65.8858V42.187H58.2773ZM28.8987 42.187L32.6033 37.9192L28.8105 33.5449H31.7481L34.0069 36.2491L36.2733 33.5449H39.0958L35.3529 37.8659L39.0643 42.187H36.1272L33.934 39.5254L31.7941 42.187H28.8987ZM39.3438 42.187V33.5449H44.4941C46.6074 33.5449 47.842 34.807 47.842 36.4517C47.842 38.437 46.2678 39.4579 44.1911 39.4579H41.7367V42.187H39.3438ZM44.3211 35.5H41.7363V37.4899H44.3134C44.9944 37.4899 45.4716 37.0717 45.4716 36.495C45.4716 35.881 44.992 35.5 44.3211 35.5ZM48.8537 42.1871V33.545H54.0423C55.7616 33.545 57.302 34.5301 57.302 36.3487C57.302 37.9034 56.0032 38.9047 54.7441 39.0032L57.8121 42.1871H54.9627L52.1671 39.1169H51.1853V42.1871H48.8537ZM53.851 35.4786H51.1857V37.298H53.8855C54.3528 37.298 54.9555 36.9624 54.9555 36.3883C54.9555 35.942 54.4904 35.4786 53.851 35.4786ZM66.9679 42.187V40.3107H71.6343C72.3247 40.3107 72.6237 39.965 72.6237 39.5858C72.6237 39.2225 72.3257 38.8552 71.6343 38.8552H69.5256C67.6927 38.8552 66.6719 37.8205 66.6719 36.2669C66.6719 34.8812 67.6067 33.5449 70.3304 33.5449H74.871L73.8892 35.4894H69.9622C69.2116 35.4894 68.9805 35.8544 68.9805 36.2029C68.9805 36.5612 69.2661 36.9563 69.8395 36.9563H72.0485C74.0917 36.9563 74.9783 38.0302 74.9783 39.4366C74.9783 40.9486 73.9904 42.187 71.9372 42.187H66.9679ZM75.1808 42.187V40.3107H79.8472C80.5376 40.3107 80.8366 39.965 80.8366 39.5858C80.8366 39.2225 80.5386 38.8552 79.8472 38.8552H77.7385C75.9056 38.8552 74.8848 37.8205 74.8848 36.2669C74.8848 34.8812 75.8196 33.5449 78.5433 33.5449H83.0839L82.1021 35.4894H78.1751C77.4245 35.4894 77.1934 35.8544 77.1934 36.2029C77.1934 36.5612 77.479 36.9563 78.0524 36.9563H80.2613C82.3046 36.9563 83.1912 38.0302 83.1912 39.4366C83.1912 40.9486 82.2032 42.187 80.1501 42.187H75.1808Z" fill="white"/>
</g>
</svg>
