<svg width="88" height="61" viewBox="0 0 88 61" fill="none" xmlns="http://www.w3.org/2000/svg">
<g id="Bitcoin">
<rect id="Rectangle" x="0.5" y="0.5" width="87" height="60" rx="3.5" fill="white" stroke="#F3F3F3"/>
<g id="Group">
<path id="Vector" d="M64.3256 35.586C61.5261 46.8606 50.1479 53.7141 38.9335 50.9037C27.7027 48.0932 20.8758 36.6708 23.6753 25.4126C26.4748 14.1381 37.8366 7.28456 49.0674 10.095C60.2819 12.889 67.1251 24.3115 64.3256 35.586Z" fill="url(#paint0_linear_821_7212)"/>
<path id="Vector_2" d="M53.9761 27.8777C54.3853 25.0841 52.2737 23.5722 49.36 22.5698L50.3095 18.7737L48.0178 18.1985L47.1011 21.896C46.4955 21.7481 45.8734 21.6002 45.2514 21.4687L46.1681 17.7548L43.8764 17.1797L42.9434 20.9593C42.4359 20.8443 41.9449 20.7293 41.4702 20.6142V20.5978L38.2946 19.809L37.6889 22.274C37.6889 22.274 39.3913 22.6684 39.3586 22.6848C40.2916 22.9149 40.4553 23.5393 40.4225 24.0323L39.3422 28.3543C39.4077 28.3707 39.4895 28.3871 39.5877 28.4364C39.5059 28.42 39.424 28.4036 39.3422 28.3707L37.8362 34.4181C37.7217 34.6975 37.427 35.1247 36.7886 34.9604C36.805 34.9933 35.119 34.5496 35.119 34.5496L33.9731 37.1953L36.9687 37.9512C37.5252 38.0991 38.0654 38.2306 38.6056 38.3785L37.6562 42.2074L39.9478 42.7826L40.8973 38.9865C41.5193 39.1509 42.1413 39.3152 42.7306 39.4631L41.7975 43.2427L44.0892 43.8179L45.0386 39.989C48.9672 40.7284 51.9136 40.4326 53.1413 36.8666C54.1398 34.0073 53.0922 32.3475 51.0297 31.2629C52.552 30.9178 53.6815 29.9154 53.9761 27.8777ZM48.7217 35.2726C48.0178 38.132 43.2053 36.5873 41.6502 36.1929L42.9106 31.115C44.4657 31.5094 49.4746 32.2818 48.7217 35.2726ZM49.4419 27.8284C48.7871 30.4413 44.7931 29.1102 43.4999 28.7815L44.6458 24.1802C45.9389 24.5089 50.113 25.1169 49.4419 27.8284Z" fill="white"/>
</g>
</g>
<defs>
<linearGradient id="paint0_linear_821_7212" x1="43.9888" y1="9.45494" x2="43.9888" y2="51.5296" gradientUnits="userSpaceOnUse">
<stop stop-color="#F9AA4B"/>
<stop offset="1" stop-color="#F7931A"/>
</linearGradient>
</defs>
</svg>
