<?xml version="1.0" encoding="utf-8"?>
<!-- Generator: Adobe Illustrator 26.3.1, SVG Export Plug-In . SVG Version: 6.00 Build 0)  -->
<svg version="1.1" id="Слой_1" xmlns="http://www.w3.org/2000/svg" xmlns:xlink="http://www.w3.org/1999/xlink" x="0px" y="0px"
	 viewBox="0 0 213 28.3" style="enable-background:new 0 0 213 28.3;" xml:space="preserve">
<g>
	<path d="M51,20.4c-3.8,0-7.5,0-11.2,0c-0.3,1.7,0.7,3.5,2,4c1.6,0.6,3.2,0.1,4.2-1.4c0.3-0.4,0.5-0.5,1-0.4
		c1.3,0.2,2.5,0.4,3.9,0.6c-0.4,1.1-2.7,4.2-5.7,4.8c-2.8,0.6-6.5,0.4-8.9-2.5c-1.1-1.4-1.5-2.8-1.7-3.6c-0.6-3.2-0.2-6.3,2.3-8.7
		c1.5-1.5,3.5-2.1,5.6-2.1c3.2-0.1,6.1,1,7.6,4.2C50.9,16.9,51.1,18.6,51,20.4z M46.3,17.5c-0.2-2-1.6-3.3-3.5-3.2
		c-1.6,0.1-2.9,1.5-2.9,3.2C42,17.5,44.2,17.5,46.3,17.5z"/>
	<path d="M4.8,27.7c-1.6,0-3.2,0-4.8,0C0,18.5,0,9.3,0,0c1.6,0,3.2,0,4.8,0C4.8,9.2,4.8,18.4,4.8,27.7z"/>
	<path d="M15.6,11.6c1.8,0,3.4,0,5.1,0c0.2,0,0.5,0.3,0.6,0.5c1.1,2.5,2.3,5.1,3.4,7.6c0.1,0.2,0.2,0.5,0.4,0.9
		c0.5-1.3,1-2.5,1.5-3.8c0.6-1.6,1.2-3.2,1.9-4.7c0.1-0.2,0.4-0.5,0.6-0.5c1.6,0,3.3,0,5,0c-0.8,1.6-1.5,3.1-2.2,4.6
		c-1.8,3.7-3.6,7.5-5.4,11.2c-0.2,0.4-0.4,0.5-0.9,0.6c-1.5,0.2-2.2-0.4-2.8-1.8c-2.2-4.8-4.5-9.5-6.8-14.2
		C15.7,12,15.7,11.9,15.6,11.6z"/>
	<path d="M70.7,27.7c-0.5,0-1,0-1.6,0c0-0.9,0-1.7,0-2.7c-2.1,2.5-4.7,3.3-7.6,3c-2-0.2-3.8-1.1-5.1-2.6c-2.7-3.2-2.5-8.4,0.5-11.4
		c2.5-2.5,8.6-3.3,12.2,0.8c0-0.9,0-1.7,0-2.5c0.6,0,1.1,0,1.6,0C70.7,17.4,70.7,22.5,70.7,27.7z M62.6,26.6c3.9,0,6.6-2.8,6.5-6.9
		c0-3.7-2.8-6.4-6.6-6.4c-3.6,0-6.5,2.9-6.5,6.6C56.1,23.8,58.9,26.6,62.6,26.6z"/>
	<path d="M191.3,20.2c-4.8,0-9.6,0-14.3,0c-0.3,2.3,1.2,4.8,3.5,5.8c3.3,1.4,6,0.6,9-2.9c0.4,0.2,0.8,0.4,1.3,0.7
		c-0.9,1.6-2.1,2.8-3.8,3.5c-4.3,1.8-10.1,0.4-11.5-5.4c-0.9-3.6,0.7-7.4,3.8-9c3.3-1.8,7.5-1.2,9.9,1.3
		C190.6,15.9,191.3,17.8,191.3,20.2z M177,18.7c4.2,0,8.4,0,12.6,0c-0.2-3-3.3-5.5-6.7-5.3C179.8,13.5,176.8,16.2,177,18.7z"/>
	<path d="M172.5,20.1c-4.7,0-9.5,0-14.2,0c-0.5,2.1,1.1,4.8,3.4,5.8c3.3,1.5,6.3,0.6,9-2.8c0.4,0.2,0.9,0.5,1.3,0.7
		c-1.8,3.6-6.7,5.2-10.7,3.6c-3.8-1.5-5.7-6-4.4-10.1c1.3-4,5.3-6.2,9.6-5.2C171,13.1,172.8,17.2,172.5,20.1z M170.8,18.7
		c0-2.8-3.2-5.4-6.3-5.3c-3.2,0.1-6.3,2.7-6.2,5.3C162.4,18.7,166.6,18.7,170.8,18.7z"/>
	<path d="M8.8,11.6c1.6,0,3.2,0,4.9,0c0,5.3,0,10.7,0,16c-1.6,0-3.2,0-4.9,0C8.8,22.4,8.8,17,8.8,11.6z"/>
	<path d="M130.1,28.1c-3.7-0.1-6.3-1.4-8-4.3c-2.1-3.5-1-7.9,2.5-10.3c3.3-2.3,8.1-2.1,11.1,0.5c2.4,2,3.3,4.7,2.6,7.7
		c-0.7,3.2-2.8,5.1-5.9,6C131.5,28,130.6,28,130.1,28.1z M129.6,26.7c0.6-0.1,1.2-0.1,1.8-0.2c4.3-0.9,6.6-5.4,4.7-9.2
		c-1.3-2.7-4.7-4.3-7.8-3.8c-3.6,0.7-5.9,3.8-5.6,7.3C123.1,24,126.1,26.6,129.6,26.7z"/>
	<path d="M153.7,27.7c-0.6,0-1.1,0-1.7,0c0-0.3,0-0.5,0-0.8c0-3,0-5.9,0-8.9c0-0.6-0.1-1.3-0.2-1.9c-0.3-1.6-1.2-2.5-2.8-2.7
		c-2.9-0.4-4.9,0.9-5.5,3.7c-0.2,1-0.3,2-0.3,3c0,2.5,0,5,0,7.5c-0.5,0-1,0-1.6,0c0-5.1,0-10.2,0-15.4c0.5,0,1,0,1.5,0
		c0,0.7,0,1.4,0,2.3c0.3-0.3,0.4-0.4,0.5-0.6c1.8-2.2,5.4-2.8,7.8-1.3c1.5,0.9,2,2.4,2.1,4c0.1,2.3,0.1,4.6,0.1,6.9
		C153.7,25,153.7,26.3,153.7,27.7z"/>
	<path d="M74.5,12.3c0.6,0,1,0,1.6,0c0,0.3,0,0.5,0,0.8c0,3.1,0,6.1,0.1,9.2c0,0.4,0.1,0.9,0.2,1.3c0.4,1.9,1.6,2.9,3.5,3
		c3.3,0.2,4.8-1.1,4.9-4.4c0.1-3,0-6,0-9c0-0.3,0-0.6,0-0.9c0.5,0,1,0,1.6,0c0,0.3,0,0.5,0,0.8c0,3.1-0.1,6.3,0,9.4
		c0.1,3.6-2.3,5.1-5,5.5c-1.8,0.2-3.5-0.1-5-1.1c-1.4-0.9-1.9-2.3-1.9-3.9C74.5,19.5,74.5,15.9,74.5,12.3z"/>
	<path d="M103.4,15.8c-3.8-3.5-8.7-2.9-11.1-0.1c-2.3,2.7-2.1,6.5,0.4,9c2.7,2.7,7.5,2.6,10.8-0.7c0.4,1.3,0.2,2-0.9,2.7
		c-3.8,2.3-8.8,1.7-11.5-1.3c-2.1-2.4-2.6-5.2-1.5-8.1c1-2.9,3.2-4.5,6.2-5.1c2.4-0.5,4.6-0.1,6.7,1.1c0.7,0.4,1.1,0.8,1,1.6
		C103.4,15.1,103.4,15.4,103.4,15.8z"/>
	<path d="M202,24c0.6-0.2,1-0.3,1.6-0.5c0.2,0.3,0.3,0.7,0.4,0.9c1.1,2,3.6,2.8,5.6,1.7c1-0.5,1.6-1.3,1.8-2.4
		c0.2-1.3-0.3-2.3-1.5-2.9c-0.9-0.4-1.8-0.7-2.7-1c-0.8-0.3-1.6-0.7-2.3-1.2c-1.8-1.3-2-3.9-0.3-5.4c2.2-2.1,6.1-1.5,7.7,1.2
		c-0.2,0.1-0.4,0.2-0.7,0.4c-0.2,0.1-0.4,0.2-0.7,0.3c-0.7-1-1.5-1.7-2.8-1.7c-0.6,0-1.3,0.2-1.8,0.5c-1.7,1-1.6,2.9,0.1,3.8
		c0.8,0.4,1.7,0.7,2.6,1.1c0.5,0.2,0.9,0.3,1.4,0.5c1.7,0.7,2.8,1.9,2.8,3.8c0,2.1-0.9,3.5-2.7,4.4c-3.1,1.5-7,0.1-8.2-3
		C202.1,24.4,202,24.2,202,24z"/>
	<path d="M108,6.7c0.6,0,1.1,0,1.6,0c0,1.8,0,3.6,0,5.5c1,0,1.9,0,2.9,0c0,0.5,0,0.9,0,1.4c-0.9,0-1.8,0-2.8,0c0,4.7,0,9.4,0,14.1
		c-0.6,0-1.1,0-1.7,0c0-4.6,0-9.3,0-14c-0.7,0-1.2,0-1.8,0c0-0.5,0-0.9,0-1.4c0.6,0,1.2,0,1.8,0C108,10.4,108,8.6,108,6.7z"/>
	<path d="M194.9,12.3c0.5,0,1,0,1.6,0c0,0.6,0,1.1,0,1.7c0.7-0.9,1.4-1.5,2.4-1.9c1-0.3,2-0.2,3.1,0.2c-0.3,0.5-0.5,0.9-0.8,1.3
		c-0.3-0.1-0.7-0.2-1-0.2c-1.6-0.2-2.9,0.7-3.3,2.4c-0.2,1-0.3,2.1-0.3,3.2c0,2.6,0,5.2,0,7.8c0,0.3,0,0.5,0,0.8c-0.6,0-1.1,0-1.6,0
		C194.9,22.6,194.9,17.4,194.9,12.3z"/>
	<path d="M117.6,27.7c-0.6,0-1.1,0-1.6,0c0-5.1,0-10.3,0-15.4c0.5,0,1,0,1.6,0C117.6,17.4,117.6,22.5,117.6,27.7z"/>
	<path d="M11.3,2.2c1.6,0,2.9,1.2,2.9,2.7c0,1.5-1.3,2.8-3,2.7c-1.6,0-2.9-1.2-2.9-2.7C8.3,3.3,9.6,2.2,11.3,2.2z"/>
	<path d="M115.3,7.1c0-0.8,0.7-1.5,1.5-1.5c0.8,0,1.5,0.7,1.5,1.5c0,0.9-0.7,1.5-1.5,1.5C115.9,8.6,115.3,7.9,115.3,7.1z"/>
</g>
</svg>
