<?xml version="1.0" encoding="utf-8"?>
<!-- Generator: Adobe Illustrator 26.3.1, SVG Export Plug-In . SVG Version: 6.00 Build 0)  -->
<svg version="1.1" id="Слой_1" xmlns="http://www.w3.org/2000/svg" xmlns:xlink="http://www.w3.org/1999/xlink" x="0px" y="0px"
	 viewBox="0 0 161.7 28.3" style="enable-background:new 0 0 161.7 28.3;" xml:space="preserve">
<style type="text/css">
	.st0{fill:#707171;}
	.st1{fill:#EE3041;}
</style>
<g>
	<path class="st0" d="M161.7,23.1c-0.1,0.1-0.2,0.3-0.3,0.4c-1.2,1.9-2.7,3.4-4.9,4c-3,0.8-5.9,0.4-8.3-1.8
		c-1.3-1.2-2.1-2.8-2.5-4.5c-0.6-2.6-0.6-5.2,0.5-7.7c1.1-2.5,2.8-4.3,5.5-5c2.6-0.6,5-0.4,7.2,1.4c1.2,1,1.8,2.4,2.2,3.9
		c0.2,1.1,0.2,2.2,0.2,3.3c0,0.3-0.2,0.3-0.4,0.3c-3.7,0-7.3,0-11,0c-0.9,0-0.9,0-0.8,0.9c0.1,1.2,0.2,2.4,0.6,3.6
		c0.7,1.8,1.8,3.2,3.7,3.7c1.7,0.5,3.5,0.4,5-0.7c0.8-0.6,1.4-1.4,1.9-2.3c0.1-0.1,0.1-0.2,0.2-0.4
		C160.8,22.6,161.3,22.8,161.7,23.1C161.7,23,161.7,23.1,161.7,23.1z M153.3,16c1.2,0,2.3,0,3.5,0c0.8,0,0.8,0,0.8-0.8c0,0,0,0,0,0
		c-0.1-0.9-0.2-1.8-0.4-2.7c-0.6-2.1-2.4-3.1-4.5-2.6c-1.3,0.3-2.2,1.2-2.8,2.4c-0.6,1.1-0.8,2.2-0.9,3.4c0,0.3,0,0.4,0.3,0.4
		C150.6,16,152,16,153.3,16z"/>
	<path class="st0" d="M119.4,10.8c0.1-0.1,0.2-0.2,0.3-0.3c1.1-1.1,2.4-1.8,3.9-2.1c2.3-0.4,4.4,0.2,6.1,1.9
		c1.7,1.6,2.5,3.5,2.8,5.7c0.3,1.9,0.2,3.8-0.4,5.6c-1,2.8-2.9,4.9-5.8,5.9c-2.1,0.7-4.3,0.4-6.3-0.5c-0.5-0.2-1-0.5-1.5-0.7
		c-0.2-0.1-0.4-0.1-0.5,0.1c-0.3,0.5-0.7,1.1-1,1.6c-0.1,0.2-0.3,0.2-0.5,0.2c-0.8-0.2-0.8-0.2-0.7-1.1c0.1-1.6,0.1-3.3,0.1-4.9
		c0-5.8,0-11.5,0-17.3c0-0.4-0.1-0.9-0.3-1.3c-0.3-0.8-0.9-1.2-1.7-1.3c-0.4-0.1-0.8-0.1-1.2-0.1c-0.3,0-0.4-0.1-0.4-0.4
		c0-0.7,0-0.8,0.7-0.8c0.9-0.1,1.8-0.1,2.7-0.2c1-0.1,2.1-0.1,3.1-0.2c0.3,0,0.5,0.1,0.5,0.5c0,1.5,0,3.1,0,4.6c0,1.5,0,3.1,0,4.6
		c0,0.1,0,0.3,0,0.4C119.3,10.8,119.4,10.8,119.4,10.8z M128.8,18.4c0-0.5-0.1-1-0.1-1.5c-0.1-1.2-0.3-2.3-0.8-3.4
		c-0.6-1.3-1.5-2.3-2.9-2.8c-2-0.7-4.2-0.1-5.6,1.5c-0.1,0.1-0.2,0.4-0.2,0.5c0,3.4,0,6.7,0,10.1c0,0.3,0.1,0.7,0.2,0.9
		c0.2,0.5,0.5,0.9,0.8,1.3c1.4,1.7,3.9,2.1,5.7,0.9c0.9-0.6,1.5-1.5,1.9-2.5C128.6,21.8,128.8,20.1,128.8,18.4z"/>
	<path class="st0" d="M86.1,24.8c-0.1,0.1-0.2,0.2-0.3,0.3c-1,1.1-2.1,2-3.5,2.4c-1.4,0.5-2.9,0.5-4.3,0c-1.6-0.6-2.5-1.9-2.8-3.5
		c-0.2-0.8-0.3-1.7-0.3-2.5c0-3,0-5.9,0-8.9c0-1.3-0.8-2.1-2-2.3c-0.1,0-0.3-0.1-0.4-0.1c-0.5,0-0.5,0-0.5-0.5C72,9,72,9,72.7,9
		c1.5-0.1,2.9-0.2,4.4-0.3c0.3,0,0.6-0.1,0.9,0c0.1,0,0.3,0.2,0.4,0.4c0,0.1,0,0.2,0,0.3c0,4.3,0,8.5,0,12.8c0,0.6,0.1,1.2,0.3,1.8
		c0.5,1.4,1.8,2.1,3.3,1.9c1.7-0.2,3-1.1,4-2.4c0.1-0.2,0.2-0.4,0.2-0.6c0-3.4,0-6.7,0-10.1c0-0.8-0.3-1.4-0.8-1.9
		c-0.5-0.4-1.1-0.4-1.7-0.5c-0.2,0-0.4,0-0.6,0c-0.3,0-0.4-0.1-0.4-0.4c0-0.1,0-0.2,0-0.3c0-0.6,0-0.6,0.6-0.6c2-0.1,4-0.2,5.9-0.4
		c0.3,0,0.4,0.1,0.4,0.3c0,0.1,0,0.2,0,0.3c0,4.7,0,9.5,0,14.2c0,1.1,0.6,2,1.5,2.2c0.3,0.1,0.7,0.1,1.1,0.1c0.2,0,0.3,0.1,0.3,0.3
		c0,1,0.2,0.9-0.9,1c-1.5,0.1-3,0.2-4.5,0.3c-0.1,0-0.2,0-0.3,0c-0.5,0-0.6-0.1-0.6-0.5c0-0.6,0-1.1,0-1.7
		C86.3,25.1,86.2,25,86.1,24.8C86.2,24.9,86.2,24.9,86.1,24.8z"/>
	<path class="st0" d="M105.6,25c-0.1,0.1-0.1,0.3-0.2,0.4c-1.1,1.1-2.3,2-3.9,2.3c-1.1,0.2-2.2,0.3-3.3,0c-1.9-0.5-3.1-2.1-3.2-4
		c-0.1-1.7,0.3-3.2,1.7-4.3c0.8-0.7,1.7-1.1,2.7-1.4c1.7-0.6,3.5-1.2,5.2-1.8c1.2-0.4,1.1-0.5,1.2-1.7c0-0.9,0-1.7-0.4-2.6
		c-0.4-1.1-1.2-1.9-2.4-2.1c-1.1-0.2-2.2,0-3.2,0.6c-0.3,0.2-0.4,0.4-0.3,0.8c0.1,0.5,0.2,1,0.3,1.5c0.3,1.2-0.7,2.1-1.7,2.2
		c-0.3,0-0.7,0-1,0c-0.6-0.1-1-0.6-1.2-1.2c-0.3-1-0.1-1.9,0.6-2.7c1-1.2,2.4-1.9,3.9-2.3c1.8-0.4,3.7-0.4,5.5,0.2
		c1.8,0.6,2.8,1.9,3.1,3.7c0.3,1.5,0.1,3,0.1,4.5c0,2.3,0,4.6-0.1,6.8c0,1.3,0.8,2.1,2.1,2.1c0.3,0,0.6,0,0.8,0
		c0.2,0,0.3,0.1,0.3,0.2c0,0,0,0,0,0.1c0,0.9,0,0.9-0.8,1.1c-1.1,0.4-2.1,0.6-3.3,0.3c-1.2-0.3-2-1-2.3-2.2c0-0.1-0.1-0.2-0.1-0.4
		C105.8,25.1,105.7,25,105.6,25z M105.8,17.1c-0.4,0.1-0.7,0.2-1,0.3c-1.4,0.5-2.8,0.9-4,1.7c-1.5,1-2.2,2.3-2.1,4.1
		c0.1,0.8,0.3,1.6,1,2.1c0.9,0.6,1.8,0.7,2.8,0.5c1.3-0.2,2.2-1,3-2c0.1-0.1,0.1-0.3,0.1-0.4c0-0.9,0-1.7,0.1-2.6c0-1,0-2.1,0-3.1
		C105.8,17.5,105.8,17.3,105.8,17.1z"/>
	<path class="st0" d="M53.3,25.1c-0.1,0.1-0.2,0.2-0.3,0.2c-1,1.1-2.2,1.9-3.6,2.3c-1.5,0.4-3.1,0.5-4.5-0.3
		c-1.5-0.8-2.3-2.1-2.3-3.8c-0.1-1.4,0.2-2.6,1.1-3.7c0.8-0.9,1.8-1.4,2.9-1.8c1.7-0.6,3.4-1.2,5.1-1.8c0.5-0.2,0.9-0.4,1.3-0.6
		c0.1-0.1,0.2-0.2,0.3-0.3c0-1,0.1-2.1-0.2-3.1C52.7,11,52,10,50.6,9.7c-1.1-0.2-2.2,0-3.2,0.6c-0.2,0.1-0.4,0.3-0.3,0.6
		c0.1,0.6,0.2,1.2,0.3,1.9c0.2,1.2-1,1.9-1.8,2c-0.3,0-0.6,0-0.9,0c-0.7-0.1-1.2-0.9-1.2-1.7c-0.1-1.1,0.4-1.9,1.1-2.7
		c1.2-1.1,2.6-1.7,4.2-1.9c1.5-0.2,3-0.2,4.4,0.3c2,0.6,3.1,2,3.4,4c0.3,1.7,0.1,3.5,0.1,5.2c0,0.5,0,1,0,1.5c0,1.4-0.1,2.8-0.1,4.3
		c0,0.3,0,0.6,0.1,0.9c0.2,0.8,0.9,1.4,1.8,1.4c0.3,0,0.7,0,1,0c0.2,0,0.3,0.1,0.3,0.3c0,0.9,0,0.9-0.8,1.1
		c-1.1,0.4-2.1,0.6-3.3,0.3c-1.2-0.3-2-1-2.3-2.2C53.4,25.4,53.4,25.3,53.3,25.1C53.4,25.1,53.3,25.1,53.3,25.1z M53.3,17.1
		c-0.1,0-0.2,0-0.2,0c-1.6,0.5-3.1,0.9-4.5,1.8c-1.7,1-2.6,2.4-2.3,4.4c0.1,0.8,0.4,1.6,1.2,2c0.8,0.5,1.7,0.6,2.6,0.4
		c1.2-0.2,2.2-1,3-1.9c0.1-0.1,0.2-0.4,0.2-0.6c0-1.5,0.1-3,0.1-4.5C53.3,18.3,53.3,17.7,53.3,17.1z"/>
	<path class="st0" d="M140.7,12.7c0,3.8,0,7.5,0,11.3c0,0.7,0.1,1.4,0.8,1.7c0.5,0.2,1,0.4,1.6,0.5c0.2,0.1,0.4,0.1,0.4,0.4
		c0,0.8,0,0.8-0.8,0.8c-2.6,0-5.2,0-7.8,0c-0.3,0-0.4-0.1-0.4-0.4c0-0.7,0-0.7,0.7-0.8c0.3,0,0.5-0.1,0.8-0.1
		c0.8-0.2,1.2-0.7,1.3-1.5c0-0.1,0-0.1,0-0.2c0-6.4,0-12.9,0-19.3c0-0.4-0.2-0.9-0.3-1.3c-0.4-0.9-1.2-1.1-2.1-1.3
		c-0.3-0.1-0.6-0.1-1-0.2c-0.2,0-0.3-0.1-0.3-0.4c0-0.7,0-0.8,0.7-0.8c0.9-0.1,1.9-0.1,2.8-0.2c1.1-0.1,2.1-0.1,3.2-0.2
		c0.3,0,0.5,0.1,0.5,0.4c0,0.1,0,0.2,0,0.3C140.7,5.1,140.7,8.9,140.7,12.7z"/>
	<path class="st0" d="M67.6,12.7c0,3.7,0,7.4,0,11.2c0,1.3,0.4,1.8,1.6,2.2c0.3,0.1,0.6,0.1,0.9,0.2c0.2,0,0.3,0.1,0.3,0.3
		c0,0.9,0,0.9-0.9,0.9c-2.6,0-5.1,0-7.7,0c-0.3,0-0.4-0.1-0.4-0.4c0-0.7,0-0.7,0.7-0.8c0.3,0,0.6-0.1,0.8-0.1
		c0.8-0.2,1.2-0.7,1.2-1.5c0-0.2,0-0.4,0-0.6c0-6.3,0-12.6,0-18.8c0-0.6-0.2-1.2-0.6-1.7c-0.4-0.5-0.9-0.7-1.5-0.8
		c-0.4-0.1-0.8-0.2-1.3-0.2c-0.2,0-0.3-0.1-0.3-0.4c0-0.8,0-0.8,0.7-0.8C62.1,1,63,0.9,63.9,0.9C65,0.8,66,0.7,67.1,0.7
		c0.3,0,0.5,0.1,0.5,0.5c0,1.2,0,2.4,0,3.6C67.6,7.4,67.6,10,67.6,12.7z"/>
	<path class="st0" d="M32.6,22.8c0.3-0.8,0.6-1.4,0.9-2.1c1.1-2.7,2.2-5.4,3.3-8.1c0.1-0.3,0.2-0.6,0.2-0.9c0.1-0.4-0.1-0.7-0.4-0.8
		c-0.6-0.3-1.1-0.5-1.7-0.7c-0.3-0.1-0.5-0.2-0.5-0.6c0-0.8-0.1-0.7,0.7-0.7c2,0,3.9,0,5.9,0c0.3,0,0.5,0.1,0.5,0.4
		c0,0.6,0,0.6-0.6,0.8c-1.2,0.3-1.9,1.1-2.4,2.2c-1.7,4-3.4,8-5.1,12c-0.4,1-0.7,2-1.1,3c-0.1,0.2-0.2,0.3-0.4,0.3
		c-0.4,0-0.8,0.1-1-0.1c-0.2-0.2-0.3-0.6-0.4-0.9c-2-4.8-4-9.6-5.9-14.4c-0.5-1.2-1.4-1.7-2.6-2c-0.3-0.1-0.4-0.2-0.4-0.5
		c0-0.8,0-0.8,0.8-0.8c2.4,0,4.9,0,7.3,0c0.4,0,0.4,0,0.5,0.5c0,0.7,0,0.7-0.7,0.9c-0.4,0.1-0.8,0.2-1.2,0.3
		c-0.4,0.2-0.5,0.4-0.3,0.7c1.5,3.7,3,7.5,4.5,11.2C32.5,22.5,32.5,22.6,32.6,22.8z"/>
	<path class="st1" d="M22.2,27.4c-3,0-6,0-9,0c0-0.3,0-0.7,0-1c0-0.1,0.2-0.2,0.3-0.2c0.4-0.1,0.9-0.1,1.3-0.2
		c0.8-0.2,1.2-0.7,1.2-1.5c0-3.5,0-6.9,0-10.4c0-0.8-0.2-1.6-0.8-2.3c-1-1.3-2.4-1.6-4.2-1c-0.6,0.2-1.1,0.5-1.7,0.8
		c0-0.4,0-0.8,0-1.2c0-0.1,0.1-0.2,0.2-0.3C11.1,8.7,13,8.2,15,8.3c1.1,0.1,2.1,0.4,2.9,1.2c0.9,0.9,1.4,2,1.5,3.2
		c0.1,0.6,0.1,1.3,0.1,1.9c0,3.1,0,6.2,0,9.3c0,1.2,0.3,1.6,1.4,2c0.3,0.1,0.6,0.1,0.9,0.2c0.2,0,0.3,0.1,0.3,0.3
		C22.2,26.8,22.2,27.1,22.2,27.4z"/>
	<path class="st0" d="M6.7,16.7c0,2.3,0,4.7,0,7c0,1.9,0.7,2.1,2,2.4c0.8,0.2,0.8,0.2,0.8,1c0,0.2-0.1,0.3-0.3,0.3
		c-2.8,0-5.5,0-8.3,0c-0.2,0-0.3-0.1-0.3-0.3c0-0.8,0-0.8,0.8-0.9c0.2,0,0.3,0,0.5-0.1c1-0.2,1.4-0.7,1.4-1.7c0-2.2,0-4.4,0-6.7
		c0-1.6,0-3.3,0-4.9c0-1.1-0.6-1.9-1.7-2.3c-0.5-0.1-0.9-0.2-1.4-0.3C0.2,10.2,0.1,10,0,10c0-0.3-0.1-0.6,0-0.8C0.2,9,0.6,9,0.8,9
		c0.9-0.1,1.7-0.1,2.6-0.2c0.9-0.1,1.9-0.1,2.8-0.2c0.4,0,0.5,0.1,0.5,0.5c0,0.8,0,1.6,0,2.4C6.7,13.2,6.7,14.9,6.7,16.7z"/>
	<path class="st0" d="M7.1,2.5c0,0.5-0.2,1.1-0.6,1.6c-1.1,1.4-3,1.2-3.8-0.3C2,2.6,2.5,1,3.7,0.3c0.8-0.4,1.5-0.4,2.3,0
		C6.7,0.7,7.1,1.5,7.1,2.5z"/>
</g>
</svg>
