<svg width="88" height="60" viewBox="0 0 88 60" fill="none" xmlns="http://www.w3.org/2000/svg">
<g id="MasterCard">
<rect id="Rectangle" x="0.5" y="0.5" width="87" height="59" rx="3.5" fill="white" stroke="#F3F3F3"/>
<path id="Path" d="M52.0569 43.464H36.3518V15.7676H52.0569V43.464Z" fill="#FF5F00"/>
<path id="Path_2" d="M37.3579 29.6142C37.3579 23.9959 40.0386 18.9912 44.2132 15.766C41.1604 13.4076 37.3076 11.9999 33.1205 11.9999C23.2078 11.9999 15.1724 19.886 15.1724 29.6142C15.1724 39.3425 23.2078 47.2285 33.1205 47.2285C37.3076 47.2285 41.1604 45.8208 44.2132 43.4624C40.0386 40.2372 37.3579 35.2326 37.3579 29.6142" fill="#EB001B"/>
<path id="Path_3" d="M73.2383 29.6142C73.2383 39.3425 65.2029 47.2285 55.2902 47.2285C51.103 47.2285 47.2502 45.8208 44.1963 43.4624C48.372 40.2372 51.0528 35.2326 51.0528 29.6142C51.0528 23.9959 48.372 18.9912 44.1963 15.766C47.2502 13.4076 51.103 11.9999 55.2902 11.9999C65.2029 11.9999 73.2383 19.886 73.2383 29.6142" fill="#F79E1B"/>
</g>
</svg>
