<svg width="88" height="61" viewBox="0 0 88 61" fill="none" xmlns="http://www.w3.org/2000/svg">
<g id="Paypal">
<rect id="Rectangle" x="0.5" y="0.5" width="87" height="60" rx="3.5" fill="white" stroke="#F3F3F3"/>
<path id="Fill 7" fill-rule="evenodd" clip-rule="evenodd" d="M40.1139 30.8911L40.497 28.4382L39.6436 28.4181H35.5684L38.4005 10.3171C38.4093 10.2623 38.4379 10.2114 38.4795 10.1752C38.5214 10.139 38.5747 10.1191 38.6305 10.1191H45.5021C47.7835 10.1191 49.3578 10.5976 50.1796 11.542C50.5649 11.985 50.8104 12.4481 50.9292 12.9576C51.0537 13.4923 51.0558 14.131 50.9343 14.9101L50.9255 14.9668V15.4661L51.3108 15.6862C51.6353 15.8597 51.8932 16.0583 52.091 16.2856C52.4206 16.6645 52.6338 17.1461 52.7238 17.7167C52.817 18.3037 52.7862 19.0024 52.6338 19.7934C52.4579 20.703 52.1737 21.4954 51.7898 22.1437C51.4368 22.741 50.987 23.2366 50.4529 23.6205C49.943 23.9854 49.3372 24.2623 48.6523 24.4396C47.9885 24.6137 47.2317 24.7016 46.4017 24.7016H45.8669C45.4846 24.7016 45.1132 24.8404 44.8216 25.0893C44.5292 25.3432 44.3359 25.6903 44.2766 26.0699L44.2362 26.2908L43.5592 30.6143L43.5287 30.773C43.5205 30.8232 43.5065 30.8482 43.486 30.8652C43.4677 30.8807 43.4414 30.8911 43.4158 30.8911H40.1139" fill="#28356A"/>
<path id="Fill 8" fill-rule="evenodd" clip-rule="evenodd" d="M51.6759 15.0234C51.6556 15.1556 51.632 15.2907 51.6057 15.4295C50.6995 20.1193 47.5992 21.7395 43.6397 21.7395H41.6236C41.1393 21.7395 40.7312 22.0938 40.6559 22.5753L39.3313 31.0443C39.2822 31.3605 39.524 31.6454 39.8404 31.6454H43.4162C43.8395 31.6454 44.1992 31.3353 44.2659 30.9144L44.301 30.7313L44.9743 26.4248L45.0176 26.1886C45.0834 25.7662 45.444 25.4559 45.8673 25.4559H46.4021C49.8664 25.4559 52.5786 24.0383 53.3712 19.9354C53.7022 18.2216 53.5309 16.7905 52.6547 15.784C52.3896 15.4805 52.0606 15.2286 51.6759 15.0234" fill="#298FC2"/>
<path id="Fill 9" fill-rule="evenodd" clip-rule="evenodd" d="M50.728 14.6423C50.5895 14.6015 50.4466 14.5647 50.3001 14.5314C50.1528 14.499 50.002 14.4702 49.8466 14.445C49.3031 14.3564 48.7074 14.3145 48.0694 14.3145H42.6835C42.5508 14.3145 42.4248 14.3447 42.3121 14.3993C42.0636 14.5196 41.8792 14.7567 41.8344 15.0469L40.6886 22.3619L40.6558 22.5751C40.7311 22.0936 41.1392 21.7393 41.6235 21.7393H43.6396C47.5991 21.7393 50.6994 20.1183 51.6056 15.4293C51.6327 15.2905 51.6555 15.1555 51.6758 15.0233C51.4466 14.9006 51.1983 14.7958 50.9309 14.7064C50.8648 14.6843 50.7967 14.663 50.728 14.6423" fill="#22284F"/>
<path id="Fill 11" fill-rule="evenodd" clip-rule="evenodd" d="M41.8343 15.0484C41.879 14.7582 42.0635 14.5212 42.312 14.4016C42.4254 14.3468 42.5506 14.3166 42.6834 14.3166H48.0692C48.7072 14.3166 49.3029 14.3588 49.8465 14.4474C50.0018 14.4724 50.1526 14.5013 50.3 14.5338C50.4465 14.5669 50.5893 14.6039 50.7278 14.6445C50.7965 14.6652 50.8647 14.6867 50.9314 14.708C51.1987 14.7973 51.4472 14.903 51.6764 15.0249C51.9461 13.2918 51.6742 12.1117 50.7446 11.0432C49.7197 9.86673 47.87 9.36328 45.503 9.36328H38.6313C38.1478 9.36328 37.7354 9.71759 37.6607 10.1999L34.7986 28.4871C34.7422 28.8489 35.019 29.1753 35.3809 29.1753H39.6232L41.8343 15.0484" fill="#28356A"/>
<path id="Fill 1" fill-rule="evenodd" clip-rule="evenodd" d="M19.8677 35.8691H14.8576C14.5147 35.8691 14.2231 36.1202 14.1695 36.4615L12.1432 49.4112C12.103 49.6669 12.2993 49.8971 12.5565 49.8971H14.9483C15.2911 49.8971 15.5827 49.6462 15.6363 49.3043L16.1827 45.8114C16.2355 45.4695 16.5277 45.2184 16.8699 45.2184H18.4559C21.7562 45.2184 23.6608 43.6086 24.1584 40.4187C24.3825 39.023 24.1679 37.9266 23.5194 37.1586C22.8074 36.3153 21.5444 35.8691 19.8677 35.8691ZM20.4454 40.5989C20.1715 42.411 18.7979 42.411 17.4698 42.411H16.7137L17.2441 39.0267C17.2757 38.8222 17.4514 38.6716 17.6566 38.6716H18.0031C18.9079 38.6716 19.7613 38.6716 20.2023 39.1914C20.4653 39.5014 20.5458 39.9623 20.4454 40.5989Z" fill="#28356A"/>
<path id="Fill 2" fill-rule="evenodd" clip-rule="evenodd" d="M34.9717 40.4424H32.5725C32.3681 40.4424 32.1914 40.5929 32.16 40.7975L32.0537 41.4739L31.8861 41.2288C31.3667 40.4688 30.2084 40.2148 29.0525 40.2148C26.4011 40.2148 24.1367 42.239 23.6958 45.0782C23.4666 46.4944 23.7924 47.8488 24.5896 48.7932C25.3207 49.6616 26.3668 50.0235 27.6114 50.0235C29.7477 50.0235 30.9321 48.6389 30.9321 48.6389L30.8252 49.311C30.785 49.5679 30.9814 49.7983 31.237 49.7983H33.398C33.7417 49.7983 34.0319 49.5472 34.086 49.2053L35.3827 40.9282C35.4237 40.6734 35.228 40.4424 34.9717 40.4424ZM31.6273 45.1492C31.3958 46.5306 30.3081 47.4581 28.9205 47.4581C28.2239 47.4581 27.6672 47.2329 27.3095 46.8062C26.9549 46.3823 26.8203 45.779 26.933 45.107C27.1492 43.7373 28.2553 42.7794 29.6217 42.7794C30.303 42.7794 30.8568 43.0078 31.2216 43.438C31.5871 43.873 31.7322 44.4801 31.6273 45.1492Z" fill="#28356A"/>
<path id="Fill 3" fill-rule="evenodd" clip-rule="evenodd" d="M47.565 40.6504H45.1539C44.9239 40.6504 44.7078 40.7656 44.5775 40.9584L41.2523 45.8954L39.8427 41.1509C39.7541 40.8541 39.4824 40.6504 39.1746 40.6504H36.8056C36.5175 40.6504 36.3176 40.934 36.4091 41.2072L39.0648 49.0625L36.5682 52.6151C36.3718 52.895 36.5696 53.2797 36.9088 53.2797H39.3168C39.5454 53.2797 39.7592 53.1674 39.8889 52.9786L47.9077 41.3112C48.0998 41.0322 47.9026 40.6504 47.565 40.6504" fill="#28356A"/>
<path id="Fill 4" fill-rule="evenodd" clip-rule="evenodd" d="M55.6024 35.8691H50.5916C50.2495 35.8691 49.9579 36.1202 49.9044 36.4615L47.878 49.4112C47.8378 49.6669 48.0342 49.8971 48.2899 49.8971H50.8612C51.0999 49.8971 51.3043 49.7215 51.3416 49.4822L51.9168 45.8114C51.9695 45.4695 52.2619 45.2184 52.604 45.2184H54.1894C57.4902 45.2184 59.3942 43.6086 59.8925 40.4187C60.1174 39.023 59.9013 37.9266 59.2529 37.1586C58.5414 36.3153 57.2793 35.8691 55.6024 35.8691ZM56.1805 40.5989C55.9072 42.411 54.5336 42.411 53.2047 42.411H52.4495L52.9806 39.0267C53.012 38.8222 53.1864 38.6716 53.3922 38.6716H53.7388C54.6427 38.6716 55.497 38.6716 55.9379 39.1914C56.201 39.5014 56.2808 39.9623 56.1805 40.5989Z" fill="#298FC2"/>
<path id="Fill 5" fill-rule="evenodd" clip-rule="evenodd" d="M70.7033 40.4424H68.3056C68.0997 40.4424 67.9247 40.5929 67.8939 40.7975L67.7876 41.4739L67.6192 41.2288C67.0998 40.4688 65.9423 40.2148 64.7862 40.2148C62.135 40.2148 59.8715 42.239 59.4305 45.0782C59.2019 46.4944 59.5263 47.8488 60.3233 48.7932C61.0561 49.6616 62.1005 50.0235 63.3453 50.0235C65.4814 50.0235 66.666 48.6389 66.666 48.6389L66.5591 49.311C66.5189 49.5679 66.7151 49.7983 66.9724 49.7983H69.1327C69.4748 49.7983 69.7664 49.5472 69.8199 49.2053L71.1172 40.9282C71.1568 40.6734 70.9604 40.4424 70.7033 40.4424ZM67.359 45.1492C67.129 46.5306 66.0396 47.4581 64.6521 47.4581C63.9568 47.4581 63.3987 47.2329 63.041 46.8062C62.6867 46.3823 62.5533 45.779 62.6645 45.107C62.8822 43.7373 63.9868 42.7794 65.3532 42.7794C66.0345 42.7794 66.5883 43.0078 66.9532 43.438C67.3201 43.873 67.4651 44.4801 67.359 45.1492Z" fill="#298FC2"/>
<path id="Fill 6" fill-rule="evenodd" clip-rule="evenodd" d="M73.3318 36.2251L71.2755 49.4119C71.2353 49.6675 71.4315 49.8977 71.6871 49.8977H73.7545C74.0982 49.8977 74.3896 49.6468 74.4424 49.3049L76.4701 36.3558C76.5106 36.1002 76.3142 35.8691 76.0585 35.8691H73.7437C73.5393 35.8698 73.3634 36.0205 73.3318 36.2251" fill="#298FC2"/>
</g>
</svg>
