<svg width="88" height="62" viewBox="0 0 88 62" fill="none" xmlns="http://www.w3.org/2000/svg">
<g id="Visa">
<rect id="Rectangle" x="0.5" y="0.5" width="87" height="61" rx="3.5" fill="white" stroke="#F3F3F3"/>
<path id="polygon9" d="M39.0717 42.5214H33.2129L36.8774 20.8203H42.7359L39.0717 42.5214Z" fill="#15195A"/>
<path id="path11" d="M60.3099 21.3516C59.1543 20.9125 57.3214 20.4277 55.055 20.4277C49.2693 20.4277 45.195 23.3826 45.17 27.6072C45.1219 30.7241 48.0871 32.4553 50.3047 33.4946C52.5714 34.5566 53.342 35.2497 53.342 36.1963C53.3189 37.6502 51.5103 38.3203 49.8235 38.3203C47.4844 38.3203 46.2311 37.9748 44.3264 37.166L43.555 36.8192L42.7351 41.6907C44.1092 42.2902 46.6409 42.8223 49.2693 42.8456C55.4167 42.8456 59.4189 39.9364 59.4664 35.4345C59.4897 32.9641 57.924 31.0712 54.5485 29.5244C52.4994 28.5314 51.2444 27.8619 51.2444 26.846C51.2685 25.9224 52.3058 24.9764 54.619 24.9764C56.5237 24.93 57.9231 25.3685 58.9832 25.8073L59.5131 26.0377L60.3099 21.3516V21.3516V21.3516Z" fill="#15195A"/>
<path id="path13" fill-rule="evenodd" clip-rule="evenodd" d="M70.7974 20.8203H75.3292L80.0558 42.5211H74.6311C74.6311 42.5211 74.1002 40.0277 73.932 39.2658H66.4098C66.1923 39.8427 65.1802 42.5211 65.1802 42.5211H59.0327L67.7352 22.6209C68.3382 21.2125 69.3999 20.8203 70.7974 20.8203ZM70.4365 28.7617C70.4365 28.7617 68.5799 33.5868 68.0974 34.8335H72.9672C72.7262 33.7485 71.6168 28.554 71.6168 28.554L71.2073 26.6841C71.0349 27.1656 70.7855 27.8276 70.6174 28.2741C70.5033 28.5767 70.4266 28.7804 70.4365 28.7617Z" fill="#15195A"/>
<path id="Combined Shape" fill-rule="evenodd" clip-rule="evenodd" d="M7.82739 20.8203H17.2536C18.5313 20.866 19.5681 21.2585 19.9054 22.6445L21.9538 32.6143C21.9541 32.6152 21.9544 32.6162 21.9547 32.6172L22.5817 35.6184L28.3194 20.8203H34.5146L25.3056 42.4984H19.11L13.8881 23.6421C12.0863 22.6333 10.03 21.8219 7.73096 21.2588L7.82739 20.8203Z" fill="#15195A"/>
</g>
</svg>
